{"glyphs":{"0":{"ha":1088,"x_min":0,"x_max":0,"o":"m 69 94 b 56 153 60 113 56 132 l 1032 153 b 1017 94 1031 131 1026 112 z m 169 11 b 119 35 151 17 134 25 b 82 74 105 46 92 59 l 1006 74 b 917 11 983 43 954 22 z m 56 176 l 56 231 l 1032 231 l 1032 176 z m 343 676 l 343 671 l 56 671 l 56 701 l 1032 701 l 1032 671 l 744 671 l 744 676 z m 1032 765 l 1032 753 l 56 753 l 56 765 l 56 779 l 1031 779 b 1032 765 1031 775 1032 771 z m 1001 858 b 1009 847 1004 855 1007 851 b 1015 836 1011 844 1013 840 l 72 836 b 78 847 74 840 76 844 b 86 858 81 851 83 855 z m 56 258 l 56 310 l 343 310 l 343 258 z m 744 258 l 744 310 l 1032 310 l 1032 258 z m 56 342 l 56 388 l 343 388 l 343 342 z m 744 342 l 744 388 l 1032 388 l 1032 342 z m 56 424 l 56 467 l 343 467 l 343 424 z m 744 424 l 744 467 l 1032 467 l 1032 424 z m 56 506 l 56 544 l 343 544 l 343 506 z m 744 506 l 744 544 l 1032 544 l 1032 506 z m 418 463 l 418 467 l 669 467 l 669 463 b 663 424 669 449 667 436 l 425 424 b 418 463 420 436 418 449 z m 56 589 l 56 622 l 343 622 l 343 589 z m 744 589 l 744 622 l 1032 622 l 1032 589 z m 632 544 b 660 506 646 532 655 519 l 426 506 b 454 544 431 519 440 532 z m 846 926 b 908 918 868 926 889 924 l 178 918 b 242 926 197 924 219 926 z m 543 351 b 489 360 524 351 506 354 b 447 388 472 366 458 375 l 639 388 b 543 351 615 363 583 351 z "},"1":{"ha":606,"x_min":0,"x_max":0,"o":"m 263 11 l 263 74 l 550 74 l 550 11 z m 263 94 l 263 153 l 550 153 l 550 94 z m 263 176 l 263 231 l 550 231 l 550 176 z m 263 258 l 263 310 l 550 310 l 550 258 z m 56 676 l 56 701 l 550 701 l 550 671 l 263 671 l 263 676 z m 263 342 l 263 388 l 550 388 l 550 342 z m 56 753 l 56 779 l 550 779 l 550 753 z m 263 424 l 263 467 l 550 467 l 550 424 z m 263 506 l 263 544 l 550 544 l 550 506 z m 56 836 l 56 858 l 550 858 l 550 836 z m 263 589 l 263 622 l 550 622 l 550 589 z m 550 926 l 550 918 l 56 918 l 56 926 z "},"2":{"ha":1043,"x_min":0,"x_max":0,"o":"m 56 11 l 56 74 l 988 74 l 988 11 z m 56 94 l 56 153 l 988 153 l 988 94 z m 56 176 l 56 231 l 988 231 l 988 176 z m 56 424 l 56 426 b 60 467 56 440 57 454 l 983 467 b 968 424 981 451 975 437 z m 940 388 b 897 358 927 375 913 366 b 846 342 881 351 864 345 l 56 342 l 56 388 z m 76 506 b 110 544 85 520 96 533 l 988 544 l 988 506 z m 700 671 l 700 676 l 56 676 l 56 701 l 988 701 l 988 671 z m 986 779 b 988 765 987 775 988 771 l 988 753 l 56 753 l 56 779 z m 957 858 b 965 847 960 855 962 851 b 971 836 967 844 969 840 l 56 836 l 56 858 z m 56 258 l 56 310 l 343 310 l 343 258 z m 700 589 l 700 622 l 988 622 l 988 589 z m 56 918 l 56 926 l 801 926 b 864 918 824 926 844 924 z "},"3":{"ha":985,"x_min":0,"x_max":0,"o":"m 903 74 b 815 11 881 43 852 22 l 56 11 l 56 74 z m 929 153 b 914 94 928 131 923 112 l 56 94 l 56 153 z m 56 176 l 56 231 l 929 231 l 929 176 z m 918 388 b 929 342 925 372 928 356 l 140 342 l 140 388 z m 846 467 b 899 424 868 455 886 440 l 140 424 l 140 467 z m 915 544 b 904 524 913 537 909 530 b 890 506 900 517 895 511 l 140 506 l 140 544 z m 642 676 l 56 676 l 56 701 l 929 701 l 929 671 l 642 671 z m 929 765 l 929 753 l 56 753 l 56 779 l 928 779 b 929 765 929 775 929 771 z m 899 858 b 906 847 901 855 904 851 b 913 836 909 844 911 840 l 56 836 l 56 858 z m 642 258 l 642 310 l 929 310 l 929 258 z m 929 610 b 928 589 929 600 929 594 l 642 589 l 642 622 l 929 622 z m 743 926 b 806 918 765 926 786 924 l 56 918 l 56 926 z "},"4":{"ha":1088,"x_min":0,"x_max":0,"o":"m 149 258 b 83 310 123 269 101 287 l 1032 310 l 1032 258 z m 67 342 b 56 388 60 357 56 373 l 1032 388 l 1032 342 z m 56 424 l 56 467 l 1032 467 l 1032 424 z m 744 11 l 744 74 l 1032 74 l 1032 11 z m 744 94 l 744 153 l 1032 153 l 1032 94 z m 744 176 l 744 231 l 1032 231 l 1032 176 z m 56 506 l 56 544 l 343 544 l 343 506 z m 744 506 l 744 544 l 1032 544 l 1032 506 z m 744 589 l 744 622 l 1032 622 l 1032 589 z m 56 589 l 56 622 l 343 622 l 343 589 z m 56 671 l 56 701 l 343 701 l 343 671 z m 744 671 l 744 701 l 1032 701 l 1032 671 z m 56 753 l 56 779 l 343 779 l 343 753 z m 744 753 l 744 779 l 1032 779 l 1032 753 z m 56 836 l 56 858 l 343 858 l 343 836 z m 744 836 l 744 858 l 1032 858 l 1032 836 z m 343 926 l 343 918 l 56 918 l 56 926 z m 1032 926 l 1032 918 l 744 918 l 744 926 z "},"5":{"ha":1043,"x_min":0,"x_max":0,"o":"m 961 74 b 874 11 940 43 911 22 l 56 11 l 56 74 z m 988 153 b 972 94 987 131 981 112 l 56 94 l 56 153 z m 56 176 l 56 231 l 988 231 l 988 176 z m 56 342 l 56 388 l 988 388 l 988 342 z m 988 426 l 988 424 l 56 424 l 56 467 l 982 467 b 988 426 986 456 988 442 z m 932 544 b 967 506 946 533 957 520 l 56 506 l 56 544 z m 983 779 b 981 766 982 775 982 770 b 979 753 981 762 980 757 l 56 753 l 56 779 z m 343 676 l 343 671 l 56 671 l 56 701 l 957 701 b 913 676 945 685 930 676 z m 56 836 l 56 858 l 988 858 l 988 836 z m 700 258 l 700 310 l 988 310 l 988 258 z m 56 589 l 56 622 l 343 622 l 343 589 z m 988 926 l 988 918 l 56 918 l 56 926 z "},"6":{"ha":1088,"x_min":0,"x_max":0,"o":"m 1032 153 b 1017 94 1031 131 1026 112 l 69 94 b 56 153 60 113 56 132 z m 1006 74 b 917 11 983 43 954 22 l 169 11 b 119 35 151 17 134 25 b 82 74 105 46 92 59 z m 56 176 l 56 231 l 1032 231 l 1032 176 z m 56 342 l 56 388 l 1032 388 l 1032 342 z m 1032 426 l 1032 424 l 56 424 l 56 467 l 1026 467 b 1032 426 1030 456 1032 442 z m 976 544 b 1011 506 990 533 1002 520 l 56 506 l 56 544 z m 56 753 l 56 765 l 56 779 l 1028 779 b 1026 766 1027 775 1026 770 b 1024 753 1025 762 1025 757 z m 1001 701 b 957 676 989 685 975 676 l 343 676 l 343 671 l 56 671 l 56 701 z m 72 836 b 78 847 74 840 76 844 b 86 858 81 851 83 855 l 1032 858 l 1032 836 z m 744 258 l 744 310 l 1032 310 l 1032 258 z m 56 258 l 56 310 l 343 310 l 343 258 z m 56 589 l 56 622 l 343 622 l 343 589 z m 178 918 b 242 926 197 924 219 926 l 1032 926 l 1032 918 z "},"7":{"ha":1043,"x_min":0,"x_max":0,"o":"m 982 779 b 978 766 980 775 979 770 b 974 753 977 762 975 757 l 56 753 l 56 779 z m 56 676 l 56 701 l 949 701 b 940 689 946 697 943 693 l 932 678 l 926 671 l 569 671 l 569 676 z m 115 11 l 158 74 l 511 74 l 467 11 z m 56 836 l 56 858 l 988 858 l 988 836 z m 174 94 l 214 153 l 565 153 l 525 94 z m 231 176 l 268 231 l 619 231 l 582 176 z m 288 258 l 322 310 l 675 310 l 639 258 z m 344 342 l 376 388 l 729 388 l 697 342 z m 401 424 l 432 467 l 785 467 l 754 424 z m 458 506 l 485 544 l 839 544 l 811 506 z m 515 589 l 539 622 l 893 622 l 869 589 z m 56 918 l 56 926 l 988 926 l 988 918 z "},"8":{"ha":1088,"x_min":0,"x_max":0,"o":"m 69 94 b 56 153 60 113 56 132 l 1032 153 b 1017 94 1031 131 1026 112 z m 169 11 b 119 35 151 17 134 25 b 82 74 105 46 92 59 l 1006 74 b 917 11 983 43 954 22 z m 56 176 l 56 231 l 1032 231 l 1032 176 z m 56 342 b 65 388 57 360 61 375 l 1021 388 b 1032 342 1027 372 1031 356 z m 86 424 b 138 467 100 441 117 456 l 949 467 b 1001 424 971 455 988 440 z m 94 506 b 68 544 83 516 75 529 l 1018 544 b 1007 524 1015 537 1012 530 b 993 506 1002 517 998 511 z m 343 676 l 343 671 l 56 671 l 56 701 l 1032 701 l 1032 671 l 744 671 l 744 676 z m 56 765 l 56 779 l 1031 779 b 1032 765 1031 775 1032 771 l 1032 753 l 56 753 z m 1001 858 b 1009 847 1004 855 1007 851 b 1015 836 1011 844 1013 840 l 72 836 b 78 847 74 840 76 844 b 86 858 81 851 83 855 z m 56 258 l 56 310 l 343 310 l 343 258 z m 744 258 l 744 310 l 1032 310 l 1032 258 z m 56 589 l 56 610 l 56 622 l 343 622 l 343 589 z m 1032 610 b 1031 589 1032 600 1031 594 l 744 589 l 744 622 l 1032 622 z m 846 926 b 908 918 868 926 889 924 l 178 918 b 242 926 197 924 219 926 z "},"9":{"ha":1088,"x_min":0,"x_max":0,"o":"m 1006 74 b 917 11 983 43 954 22 l 56 11 l 56 74 z m 1032 153 b 1017 94 1031 131 1026 112 l 56 94 l 56 153 z m 56 176 l 56 231 l 1032 231 l 1032 176 z m 75 424 b 60 467 68 437 63 451 l 1032 467 l 1032 424 z m 214 342 b 106 388 170 346 134 362 l 1032 388 l 1032 342 z m 56 506 l 56 544 l 1032 544 l 1032 506 z m 744 671 l 744 676 l 343 676 l 343 671 l 56 671 l 56 701 l 1032 701 l 1032 671 z m 56 753 l 56 765 l 56 779 l 1031 779 b 1032 765 1031 775 1032 771 l 1032 753 z m 72 836 b 78 847 74 840 76 844 b 86 858 81 851 83 855 l 1001 858 b 1009 847 1004 855 1007 851 b 1015 836 1011 844 1013 840 z m 744 590 l 744 622 l 1032 622 l 1032 589 l 56 589 l 56 622 l 343 622 l 343 590 z m 744 258 l 744 310 l 1032 310 l 1032 258 z m 178 918 b 242 926 197 924 219 926 l 846 926 b 908 918 868 926 889 924 z "},"―":{"ha":694,"x_min":0,"x_max":0,"o":""},"‖":{"ha":694,"x_min":0,"x_max":0,"o":""},"‗":{"ha":694,"x_min":0,"x_max":0,"o":""},"‛":{"ha":694,"x_min":0,"x_max":0,"o":""},"‟":{"ha":694,"x_min":0,"x_max":0,"o":""},"‣":{"ha":694,"x_min":0,"x_max":0,"o":""},"․":{"ha":694,"x_min":0,"x_max":0,"o":""},"‥":{"ha":694,"x_min":0,"x_max":0,"o":""}," ":{"ha":399,"x_min":0,"x_max":0,"o":""},"!":{"ha":399,"x_min":0,"x_max":0,"o":"m 56 11 l 56 74 l 343 74 l 343 11 z m 56 94 l 56 153 l 343 153 l 343 94 z m 56 176 l 56 231 l 343 231 l 343 176 z m 56 342 l 56 388 l 343 388 l 343 342 z m 56 424 l 56 467 l 343 467 l 343 424 z m 56 506 l 56 544 l 343 544 l 343 506 z m 56 589 l 56 622 l 343 622 l 343 589 z m 56 671 l 56 701 l 343 701 l 343 671 z m 56 753 l 56 779 l 343 779 l 343 753 z m 56 836 l 56 858 l 343 858 l 343 836 z m 56 918 l 56 926 l 343 926 l 343 918 z "},"\"":{"ha":751,"x_min":0,"x_max":0,"o":"m 696 678 l 689 671 l 536 671 l 538 676 l 408 676 l 408 701 l 696 701 z m 343 678 l 336 671 l 183 671 l 185 676 l 56 676 l 56 701 l 343 701 z m 408 753 l 408 779 l 696 779 l 696 753 z m 56 753 l 56 779 l 343 779 l 343 753 z m 408 836 l 408 858 l 696 858 l 696 836 z m 56 836 l 56 858 l 343 858 l 343 836 z m 165 589 l 172 622 l 285 622 l 251 589 z m 518 589 l 525 622 l 638 622 l 604 589 z m 408 926 l 696 926 l 696 918 l 408 918 z m 56 926 l 343 926 l 343 918 l 56 918 z m 147 506 l 156 544 l 206 544 l 165 506 z m 500 506 l 508 544 l 558 544 l 518 506 z "},"#":{"ha":892,"x_min":0,"x_max":0,"o":"m 510 342 l 510 346 l 381 346 l 381 342 l 167 342 l 167 346 l 56 346 l 56 388 l 836 388 l 836 346 l 724 346 l 724 342 z m 56 424 l 56 467 l 836 467 l 836 424 z m 56 506 l 56 532 l 167 532 l 167 544 l 381 544 l 381 532 l 510 532 l 510 544 l 724 544 l 724 532 l 836 532 l 836 506 z m 56 671 l 56 701 l 836 701 l 836 671 z m 56 753 l 56 779 l 836 779 l 836 753 z m 167 258 l 167 310 l 381 310 l 381 258 z m 510 258 l 510 310 l 724 310 l 724 258 z m 167 589 l 167 622 l 381 622 l 381 589 z m 510 589 l 510 622 l 724 622 l 724 589 z m 167 836 l 167 858 l 381 858 l 381 836 z m 510 836 l 510 858 l 724 858 l 724 836 z m 167 918 l 167 926 l 381 926 l 381 918 z m 510 918 l 510 926 l 724 926 l 724 918 z "},"$":{"ha":1043,"x_min":0,"x_max":0,"o":"m 961 74 b 874 11 940 43 911 22 l 56 11 l 56 74 z m 988 153 b 972 94 987 131 981 112 l 56 94 l 56 153 z m 56 176 l 56 231 l 988 231 l 988 176 z m 988 426 l 988 424 l 74 424 b 58 467 66 437 61 451 l 982 467 b 988 426 986 456 988 442 z m 197 342 b 103 388 159 349 128 364 l 988 388 l 988 342 z m 932 544 b 967 506 946 533 957 520 l 56 506 l 56 544 z m 983 779 b 981 766 982 775 982 770 b 979 753 981 762 980 757 l 56 753 l 56 765 l 56 779 z m 343 676 l 343 671 l 56 671 l 56 701 l 957 701 b 913 676 945 685 930 676 z m 72 836 b 78 847 74 840 76 844 b 86 858 81 851 83 855 l 988 858 l 988 836 z m 378 -153 l 378 -83 l 665 -83 l 665 -153 z m 378 -71 l 378 -4 l 665 -4 l 665 -71 z m 700 258 l 700 310 l 988 310 l 988 258 z m 56 589 l 56 622 l 343 622 l 343 589 z m 988 926 l 988 918 l 178 918 b 242 926 197 924 219 926 l 378 926 l 378 936 l 665 936 l 665 926 z m 378 1001 l 378 1015 l 665 1015 l 665 1001 z m 665 1085 l 665 1083 l 378 1083 l 378 1085 z "},"%":{"ha":1133,"x_min":0,"x_max":0,"o":"m 1078 296 b 1074 275 1078 288 1077 281 b 1065 258 1072 269 1069 263 l 722 258 b 711 296 715 269 711 281 l 711 310 l 1078 310 z m 1078 515 l 1078 506 l 711 506 l 711 515 b 718 544 711 527 713 537 l 1069 544 b 1078 515 1075 536 1078 526 z m 88 589 b 58 622 74 595 64 606 l 418 622 b 389 589 413 606 403 595 z m 315 258 l 339 310 l 556 310 l 532 258 z m 353 342 l 372 388 l 589 388 l 569 342 z m 389 424 l 407 467 l 624 467 l 606 424 z m 174 685 l 301 685 l 301 701 l 422 701 l 422 671 l 56 671 l 56 701 l 174 701 z m 425 506 l 442 544 l 658 544 l 642 506 z m 56 836 l 56 858 l 422 858 l 422 836 z m 461 589 l 476 622 l 693 622 l 678 589 z m 497 671 l 511 701 l 728 701 l 714 671 z m 533 753 l 544 779 l 761 779 l 750 753 z m 958 342 l 958 388 l 1078 388 l 1078 342 z m 711 342 l 711 388 l 829 388 l 829 342 z m 958 424 l 958 467 l 1078 467 l 1078 424 z m 711 424 l 711 467 l 829 467 l 829 424 z m 569 836 l 579 858 l 796 858 l 786 836 z m 301 753 l 301 779 l 422 779 l 422 753 z m 56 753 l 56 779 l 174 779 l 174 753 z m 347 926 b 386 918 362 926 375 924 l 89 918 b 128 926 100 924 113 926 z m 826 926 l 822 918 l 606 918 l 610 926 z "},"&":{"ha":1165,"x_min":0,"x_max":0,"o":"m 169 11 b 119 35 151 17 134 25 b 82 74 105 46 92 59 l 1003 74 l 1003 11 z m 69 94 b 56 153 60 113 56 132 l 1003 153 l 1003 94 z m 56 176 l 56 231 l 1003 231 l 1003 176 z m 56 342 b 65 388 57 360 61 375 l 1110 388 l 1110 342 z m 86 424 b 138 467 100 441 117 456 l 1110 467 l 1110 424 z m 94 506 b 68 544 83 516 75 529 l 1110 544 l 1110 506 z m 343 676 l 343 671 l 56 671 l 56 701 l 1003 701 l 1003 676 z m 56 765 l 56 779 l 1003 779 l 1003 753 l 56 753 z m 72 836 b 78 847 74 840 76 844 b 86 858 81 851 83 855 l 1003 858 l 1003 836 z m 56 258 l 56 310 l 343 310 l 343 258 z m 715 258 l 715 310 l 1003 310 l 1003 258 z m 56 589 l 56 610 l 56 622 l 343 622 l 343 589 z m 1003 926 l 1003 918 l 178 918 b 242 926 197 924 219 926 z "},"'":{"ha":399,"x_min":0,"x_max":0,"o":"m 343 678 l 336 671 l 183 671 l 185 676 l 56 676 l 56 701 l 343 701 z m 56 753 l 56 779 l 343 779 l 343 753 z m 56 836 l 56 858 l 343 858 l 343 836 z m 165 589 l 172 622 l 285 622 l 251 589 z m 56 926 l 343 926 l 343 918 l 56 918 z m 147 506 l 156 544 l 206 544 l 165 506 z "},"(":{"ha":590,"x_min":0,"x_max":0,"o":"m 69 94 b 56 153 60 113 56 132 l 535 153 l 535 94 z m 169 11 b 119 35 151 17 134 25 b 82 74 105 46 92 59 l 535 74 l 535 11 z m 56 176 l 56 231 l 535 231 l 535 176 z m 56 258 l 56 310 l 343 310 l 343 258 z m 535 676 l 343 676 l 343 671 l 56 671 l 56 701 l 535 701 z m 56 342 l 56 388 l 343 388 l 343 342 z m 56 753 l 56 765 l 56 779 l 535 779 l 535 753 z m 56 424 l 56 467 l 343 467 l 343 424 z m 56 506 l 56 544 l 343 544 l 343 506 z m 72 836 b 78 847 74 840 76 844 b 86 858 81 851 83 855 l 535 858 l 535 836 z m 56 589 l 56 622 l 343 622 l 343 589 z m 178 918 b 242 926 197 924 219 926 l 535 926 l 535 918 z "},")":{"ha":590,"x_min":0,"x_max":0,"o":"m 535 153 b 519 94 534 131 529 112 l 56 94 l 56 153 z m 508 74 b 419 11 486 43 456 22 l 56 11 l 56 74 z m 56 176 l 56 231 l 535 231 l 535 176 z m 247 258 l 247 310 l 535 310 l 535 258 z m 247 676 l 56 676 l 56 701 l 535 701 l 535 671 l 247 671 z m 247 342 l 247 388 l 535 388 l 535 342 z m 535 765 l 535 753 l 56 753 l 56 779 l 533 779 b 535 765 534 775 535 771 z m 247 424 l 247 467 l 535 467 l 535 424 z m 247 506 l 247 544 l 535 544 l 535 506 z m 504 858 b 512 847 507 855 509 851 b 518 836 514 844 516 840 l 56 836 l 56 858 z m 247 589 l 247 622 l 535 622 l 535 589 z m 349 926 b 411 918 371 926 392 924 l 56 918 l 56 926 z "},"*":{"ha":447,"x_min":0,"x_max":0,"o":"m 225 754 l 224 753 l 78 753 l 61 765 l 75 779 l 371 779 l 386 764 l 369 753 l 225 753 z m 400 858 l 404 847 l 346 836 l 101 836 l 43 850 l 46 858 z m 161 936 l 167 933 l 165 936 l 285 936 l 285 933 l 289 936 l 372 936 l 378 918 l 67 918 l 72 936 z m 154 1001 l 151 1015 l 300 1015 l 297 1001 z m 179 681 l 150 701 l 192 701 z m 267 681 l 254 701 l 296 701 z "},"+":{"ha":656,"x_min":0,"x_max":0,"o":"m 56 342 l 56 388 l 600 388 l 600 342 z m 56 424 l 56 467 l 600 467 l 600 424 z m 56 506 l 56 544 l 600 544 l 600 506 z m 203 258 l 203 310 l 453 310 l 453 258 z m 453 190 l 203 190 l 203 231 l 453 231 z m 203 589 l 203 622 l 453 622 l 453 589 z m 203 671 l 203 701 l 453 701 l 453 671 z "},",":{"ha":399,"x_min":0,"x_max":0,"o":"m 56 11 l 56 74 l 343 74 l 343 11 z m 56 94 l 56 153 l 343 153 l 343 94 z m 56 176 l 56 231 l 343 231 l 343 176 z m 169 -71 l 183 -4 l 338 -4 l 268 -71 z m 151 -153 l 167 -83 l 256 -83 l 183 -153 z m 161 -175 l 147 -175 l 150 -161 l 175 -161 z "},"-":{"ha":569,"x_min":0,"x_max":0,"o":"m 56 342 l 56 388 l 514 388 l 514 342 z m 56 424 l 56 467 l 514 467 l 514 424 z m 56 506 l 56 544 l 514 544 l 514 506 z "},".":{"ha":399,"x_min":0,"x_max":0,"o":"m 56 11 l 56 74 l 343 74 l 343 11 z m 56 94 l 56 153 l 343 153 l 343 94 z m 56 176 l 56 231 l 343 231 l 343 176 z "},"/":{"ha":788,"x_min":0,"x_max":0,"o":"m 39 11 l 67 74 l 382 74 l 354 11 z m 75 94 l 101 153 l 417 153 l 390 94 z m 111 176 l 135 231 l 450 231 l 426 176 z m 147 258 l 169 310 l 485 310 l 463 258 z m 183 342 l 203 388 l 518 388 l 499 342 z m 219 424 l 238 467 l 553 467 l 535 424 z m 254 506 l 271 544 l 586 544 l 569 506 z m 290 589 l 306 622 l 621 622 l 606 589 z m 326 671 l 339 701 l 654 701 l 642 671 z m 361 753 l 374 779 l 689 779 l 676 753 z m 399 836 l 408 858 l 724 858 l 714 836 z m 433 918 l 438 926 l 753 926 l 749 918 z "},":":{"ha":399,"x_min":0,"x_max":0,"o":"m 56 11 l 56 74 l 343 74 l 343 11 z m 56 94 l 56 153 l 343 153 l 343 94 z m 56 176 l 56 231 l 343 231 l 343 176 z m 343 426 l 56 426 l 56 467 l 343 467 z m 56 506 l 56 544 l 343 544 l 343 506 z m 56 589 l 56 622 l 343 622 l 343 589 z m 56 676 l 343 676 l 343 671 l 56 671 z "},";":{"ha":399,"x_min":0,"x_max":0,"o":"m 56 11 l 56 74 l 343 74 l 343 11 z m 56 94 l 56 153 l 343 153 l 343 94 z m 56 176 l 56 231 l 343 231 l 343 176 z m 343 426 l 56 426 l 56 467 l 343 467 z m 56 506 l 56 544 l 343 544 l 343 506 z m 56 589 l 56 622 l 343 622 l 343 589 z m 169 -71 l 183 -4 l 338 -4 l 268 -71 z m 151 -153 l 167 -83 l 256 -83 l 183 -153 z m 56 676 l 343 676 l 343 671 l 56 671 z m 161 -175 l 147 -175 l 150 -161 l 175 -161 z "},"<":{"ha":738,"x_min":0,"x_max":0,"o":"m 365 11 l 319 74 l 650 74 l 694 11 z m 304 94 l 261 153 l 592 153 l 635 94 z m 243 176 l 204 231 l 535 231 l 575 176 z m 183 258 l 146 310 l 478 310 l 515 258 z m 122 342 l 89 388 l 421 388 l 454 342 z m 35 463 l 38 467 l 369 467 l 367 463 l 394 424 l 63 424 z m 65 506 l 94 544 l 426 544 l 397 506 z m 126 589 l 151 622 l 482 622 l 458 589 z m 186 671 l 208 701 l 540 701 l 518 671 z m 247 753 l 267 779 l 596 779 l 576 753 z m 308 836 l 325 858 l 653 858 l 638 836 z m 368 918 l 375 926 l 703 926 l 696 918 z "},"=":{"ha":614,"x_min":0,"x_max":0,"o":"m 56 176 l 56 231 l 558 231 l 558 176 z m 56 258 l 56 310 l 558 310 l 558 258 z m 56 342 l 56 388 l 558 388 l 558 342 z m 56 506 l 56 544 l 558 544 l 558 506 z m 56 589 l 56 622 l 558 622 l 558 589 z m 56 671 l 56 701 l 558 701 l 558 671 z "},">":{"ha":736,"x_min":0,"x_max":0,"o":"m 43 11 l 88 74 l 418 74 l 372 11 z m 103 94 l 146 153 l 475 153 l 433 94 z m 163 176 l 201 231 l 532 231 l 493 176 z m 222 258 l 258 310 l 590 310 l 553 258 z m 282 342 l 315 388 l 646 388 l 613 342 z m 369 463 l 367 467 l 699 467 l 701 463 l 672 424 l 342 424 z m 338 506 l 310 544 l 642 544 l 669 506 z m 278 589 l 254 622 l 585 622 l 608 589 z m 218 671 l 196 701 l 526 701 l 549 671 z m 160 753 l 140 779 l 469 779 l 489 753 z m 100 836 l 83 858 l 413 858 l 428 836 z m 35 926 l 363 926 l 368 918 l 40 918 z "},"?":{"ha":1043,"x_min":0,"x_max":0,"o":"m 147 424 l 147 426 b 151 467 147 440 149 454 l 983 467 b 968 424 981 451 975 437 z m 940 388 b 897 358 927 375 913 366 b 846 342 881 351 864 345 l 147 342 l 147 388 z m 168 506 b 201 544 176 520 188 533 l 988 544 l 988 506 z m 700 671 l 700 676 l 56 676 l 56 701 l 988 701 l 988 671 z m 986 779 b 988 765 987 775 988 771 l 988 753 l 56 753 l 56 779 z m 957 858 b 965 847 960 855 962 851 b 971 836 967 844 969 840 l 56 836 l 56 858 z m 147 11 l 147 74 l 435 74 l 435 11 z m 147 94 l 147 153 l 435 153 l 435 94 z m 147 176 l 147 231 l 435 231 l 435 176 z m 700 589 l 700 622 l 988 622 l 988 589 z m 56 918 l 56 926 l 801 926 b 864 918 824 926 844 924 z "},"@":{"ha":1335,"x_min":0,"x_max":0,"o":"m 156 -71 b 75 -4 120 -57 94 -35 l 1250 -4 l 1250 -71 z m 68 11 b 56 74 60 29 56 50 l 1250 74 l 1250 11 z m 1250 150 l 1250 94 l 56 94 l 56 153 l 331 153 l 331 150 z m 436 258 b 404 310 421 273 411 290 l 1263 310 b 1221 258 1253 289 1239 272 z m 399 342 l 399 353 l 399 388 l 1279 388 l 1279 379 b 1278 359 1279 372 1279 365 b 1274 342 1277 353 1275 347 z m 1279 853 l 1279 836 l 56 836 l 56 853 l 56 858 l 1279 858 z m 1256 936 b 1260 927 1257 933 1259 930 b 1265 918 1262 924 1263 921 l 69 918 b 74 927 71 921 73 924 b 79 936 76 930 77 933 z m 607 519 l 607 506 l 399 506 l 399 544 l 936 544 l 936 506 l 726 506 l 726 519 z m 399 589 b 407 622 400 600 402 611 l 936 622 l 936 589 z m 331 776 l 331 753 l 56 753 l 56 779 l 1279 779 l 1279 753 l 1004 753 l 1004 776 z m 56 176 l 56 231 l 331 231 l 331 176 z m 439 671 b 496 701 453 684 472 694 l 936 701 l 936 671 z m 56 258 l 56 310 l 331 310 l 331 258 z m 56 342 l 56 388 l 331 388 l 331 342 z m 1093 1014 b 1169 1001 1120 1014 1145 1010 l 165 1001 b 242 1014 188 1010 214 1014 z m 1004 424 l 1004 467 l 1279 467 l 1279 424 z m 56 424 l 56 467 l 331 467 l 331 424 z m 56 506 l 56 544 l 331 544 l 331 506 z m 1004 506 l 1004 544 l 1279 544 l 1279 506 z m 1004 589 l 1004 622 l 1279 622 l 1279 589 z m 56 589 l 56 622 l 331 622 l 331 589 z m 726 424 l 726 467 l 936 467 l 936 424 z m 399 424 l 399 467 l 607 467 l 607 424 z m 56 671 l 56 701 l 331 701 l 331 671 z m 1004 671 l 1004 701 l 1279 701 l 1279 671 z m 547 218 b 479 231 522 218 500 222 l 1169 231 b 1093 218 1145 222 1120 218 z m 242 -87 b 197 -83 226 -87 211 -86 l 1250 -83 l 1250 -87 z "},"A":{"ha":1260,"x_min":0,"x_max":0,"o":"m 108 176 l 132 231 l 1124 231 l 1147 176 z m 143 258 l 165 310 l 1090 310 l 1113 258 z m 404 131 l 389 94 l 72 94 l 97 153 l 1158 153 l 1183 94 l 867 94 l 851 131 z m 0 -71 l 29 -4 l 650 -4 l 600 -71 z m -35 -153 l -4 -83 l 592 -83 l 539 -153 z m 744 382 l 742 388 l 1056 388 l 1076 342 l 179 342 l 200 388 l 513 388 l 511 382 z m 168 -647 l 306 -240 l 474 -240 z m 901 11 l 875 74 l 1193 74 l 1219 11 z m 36 11 l 64 74 l 381 74 l 354 11 z m 322 671 l 335 701 l 919 701 l 933 671 z m -40 -167 l -37 -161 l 533 -161 l 476 -236 l 307 -236 l 331 -167 z m 351 753 l 335 779 l 886 779 l 897 753 z m 215 424 l 233 467 l 547 467 l 528 424 z m 726 424 l 708 467 l 1021 467 l 1040 424 z m 297 836 l 282 858 l 851 858 l 861 836 z m 250 506 l 267 544 l 581 544 l 564 506 z m 692 506 l 676 544 l 988 544 l 1004 506 z m 286 589 l 301 622 l 614 622 l 600 589 z m 657 589 l 643 622 l 954 622 l 968 589 z m 238 926 l 822 926 l 825 918 l 243 918 z "},"B":{"ha":1185,"x_min":0,"x_max":0,"o":"m 1103 74 b 1014 11 1081 43 1051 22 l 153 11 l 153 74 z m 1129 153 b 1114 94 1128 131 1123 112 l 153 94 l 153 153 z m 153 176 l 153 231 l 1129 231 l 1129 176 z m 1118 388 b 1129 342 1125 372 1128 356 l 153 342 l 153 388 z m 1046 467 b 1099 424 1068 455 1086 440 l 153 424 l 153 467 z m 1115 544 b 1104 524 1113 537 1109 530 b 1090 506 1100 517 1095 511 l 153 506 l 153 544 z m 440 676 l 440 671 l 153 671 l 153 701 l 1129 701 l 1129 671 l 842 671 l 842 676 z m 1128 779 b 1129 765 1129 775 1129 771 l 1129 753 l 149 753 l 132 779 z m 1099 858 b 1106 847 1101 855 1104 851 b 1113 836 1109 844 1111 840 l 94 836 l 79 858 z m 153 258 l 153 310 l 440 310 l 440 258 z m 842 258 l 842 310 l 1129 310 l 1129 258 z m 153 589 l 153 622 l 440 622 l 440 589 z m 1129 610 b 1128 589 1129 600 1129 594 l 842 589 l 842 622 l 1129 622 z m 35 926 l 943 926 b 1006 918 965 926 986 924 l 40 918 z "},"C":{"ha":985,"x_min":0,"x_max":0,"o":"m 169 11 b 119 35 151 17 134 25 b 82 74 105 46 92 59 l 929 74 l 929 11 z m 69 94 b 56 153 60 113 56 132 l 929 153 l 929 94 z m 56 176 l 56 231 l 929 231 l 929 176 z m 925 779 b 923 766 924 775 923 770 b 921 753 922 762 922 757 l 56 753 l 56 765 l 56 779 z m 343 676 l 343 671 l 56 671 l 56 701 l 899 701 b 854 676 887 685 872 676 z m 72 836 b 78 847 74 840 76 844 b 86 858 81 851 83 855 l 929 858 l 929 836 z m 56 258 l 56 310 l 343 310 l 343 258 z m 56 342 l 56 388 l 343 388 l 343 342 z m 56 424 l 56 467 l 343 467 l 343 424 z m 56 506 l 56 544 l 343 544 l 343 506 z m 56 589 l 56 622 l 343 622 l 343 589 z m 929 926 l 929 918 l 178 918 b 242 926 197 924 219 926 z "},"D":{"ha":1185,"x_min":0,"x_max":0,"o":"m 1103 74 b 1014 11 1081 43 1051 22 l 153 11 l 153 74 z m 1129 153 b 1114 94 1128 131 1123 112 l 153 94 l 153 153 z m 153 176 l 153 231 l 1129 231 l 1129 176 z m 842 671 l 842 676 l 440 676 l 440 671 l 153 671 l 153 701 l 1129 701 l 1129 671 z m 1128 779 b 1129 765 1129 775 1129 771 l 1129 753 l 149 753 l 132 779 z m 1099 858 b 1106 847 1101 855 1104 851 b 1113 836 1109 844 1111 840 l 94 836 l 79 858 z m 153 258 l 153 310 l 440 310 l 440 258 z m 842 258 l 842 310 l 1129 310 l 1129 258 z m 153 342 l 153 388 l 440 388 l 440 342 z m 842 342 l 842 388 l 1129 388 l 1129 342 z m 842 424 l 842 467 l 1129 467 l 1129 424 z m 153 424 l 153 467 l 440 467 l 440 424 z m 153 506 l 153 544 l 440 544 l 440 506 z m 842 506 l 842 544 l 1129 544 l 1129 506 z m 153 589 l 153 622 l 440 622 l 440 589 z m 842 589 l 842 622 l 1129 622 l 1129 589 z m 35 926 l 943 926 b 1006 918 965 926 986 924 l 40 918 z "},"E":{"ha":1082,"x_min":0,"x_max":0,"o":"m 153 11 l 153 74 l 1026 74 l 1026 11 z m 153 94 l 153 153 l 1026 153 l 1026 94 z m 153 176 l 153 231 l 1026 231 l 1026 176 z m 153 342 l 153 388 l 942 388 l 942 342 z m 153 424 l 153 467 l 942 467 l 942 424 z m 153 506 l 153 544 l 942 544 l 942 506 z m 1022 779 b 1020 766 1021 775 1021 770 b 1018 753 1020 762 1019 757 l 149 753 l 132 779 z m 996 701 b 951 676 984 685 969 676 l 440 676 l 440 671 l 153 671 l 153 701 z m 94 836 l 79 858 l 1026 858 l 1026 836 z m 153 258 l 153 310 l 440 310 l 440 258 z m 153 589 l 153 622 l 440 622 l 440 589 z m 35 926 l 1026 926 l 1026 918 l 40 918 z "},"F":{"ha":1082,"x_min":0,"x_max":0,"o":"m 153 342 l 153 388 l 942 388 l 942 342 z m 153 424 l 153 467 l 942 467 l 942 424 z m 153 506 l 153 544 l 942 544 l 942 506 z m 1022 779 b 1020 766 1021 775 1021 770 b 1018 753 1020 762 1019 757 l 149 753 l 132 779 z m 996 701 b 951 676 984 685 969 676 l 440 676 l 440 671 l 153 671 l 153 701 z m 94 836 l 79 858 l 1026 858 l 1026 836 z m 153 11 l 153 74 l 440 74 l 440 11 z m 153 94 l 153 153 l 440 153 l 440 94 z m 153 176 l 153 231 l 440 231 l 440 176 z m 153 258 l 153 310 l 440 310 l 440 258 z m 153 589 l 153 622 l 440 622 l 440 589 z m 35 926 l 1026 926 l 1026 918 l 40 918 z "},"G":{"ha":1088,"x_min":0,"x_max":0,"o":"m 169 11 b 119 35 151 17 134 25 b 82 74 105 46 92 59 l 1032 74 l 1032 11 z m 69 94 b 56 153 60 113 56 132 l 1032 153 l 1032 94 z m 56 176 l 56 231 l 1032 231 l 1032 176 z m 1028 779 b 1026 766 1027 775 1026 770 b 1024 753 1025 762 1025 757 l 56 753 l 56 765 l 56 779 z m 343 676 l 343 671 l 56 671 l 56 701 l 1001 701 b 957 676 989 685 975 676 z m 72 836 b 78 847 74 840 76 844 b 86 858 81 851 83 855 l 1032 858 l 1032 836 z m 694 424 l 667 467 l 1032 467 l 1032 424 z m 56 258 l 56 310 l 343 310 l 343 258 z m 744 258 l 744 310 l 1032 310 l 1032 258 z m 744 349 l 718 388 l 1032 388 l 1032 342 l 744 342 z m 56 342 l 56 388 l 343 388 l 343 342 z m 56 424 l 56 467 l 343 467 l 343 424 z m 56 506 l 56 544 l 343 544 l 343 506 z m 56 589 l 56 622 l 343 622 l 343 589 z m 1032 528 l 1032 506 l 640 506 l 626 528 z m 1032 926 l 1032 918 l 178 918 b 242 926 197 924 219 926 z "},"H":{"ha":1185,"x_min":0,"x_max":0,"o":"m 153 342 l 153 388 l 1129 388 l 1129 342 z m 153 424 l 153 467 l 1129 467 l 1129 424 z m 153 506 l 153 544 l 1129 544 l 1129 506 z m 153 11 l 153 74 l 440 74 l 440 11 z m 842 11 l 842 74 l 1129 74 l 1129 11 z m 153 94 l 153 153 l 440 153 l 440 94 z m 842 94 l 842 153 l 1129 153 l 1129 94 z m 842 176 l 842 231 l 1129 231 l 1129 176 z m 153 176 l 153 231 l 440 231 l 440 176 z m 153 258 l 153 310 l 440 310 l 440 258 z m 842 258 l 842 310 l 1129 310 l 1129 258 z m 153 589 l 153 622 l 440 622 l 440 589 z m 842 589 l 842 622 l 1129 622 l 1129 589 z m 153 671 l 153 701 l 440 701 l 440 671 z m 842 671 l 842 701 l 1129 701 l 1129 671 z m 149 753 l 132 779 l 440 779 l 440 753 z m 94 836 l 79 858 l 440 858 l 440 836 z m 842 753 l 842 779 l 1129 779 l 1129 753 z m 842 836 l 842 858 l 1129 858 l 1129 836 z m 35 926 l 440 926 l 440 918 l 40 918 z m 842 918 l 842 926 l 1129 926 l 1129 918 z "},"I":{"ha":497,"x_min":0,"x_max":0,"o":"m 153 11 l 153 74 l 440 74 l 440 11 z m 153 94 l 153 153 l 440 153 l 440 94 z m 153 176 l 153 231 l 440 231 l 440 176 z m 153 258 l 153 310 l 440 310 l 440 258 z m 153 342 l 153 388 l 440 388 l 440 342 z m 153 424 l 153 467 l 440 467 l 440 424 z m 153 506 l 153 544 l 440 544 l 440 506 z m 153 589 l 153 622 l 440 622 l 440 589 z m 153 671 l 153 701 l 440 701 l 440 671 z m 149 753 l 132 779 l 440 779 l 440 753 z m 94 836 l 79 858 l 440 858 l 440 836 z m 440 926 l 440 918 l 40 918 l 35 926 z "},"J":{"ha":1088,"x_min":0,"x_max":0,"o":"m 1004 74 b 915 11 982 43 952 22 l 54 11 l 54 74 z m 1031 153 b 1015 94 1030 131 1025 112 l 54 94 l 54 153 z m 54 176 l 54 231 l 1031 231 l 1031 176 z m 743 671 l 743 676 l 340 676 l 340 701 l 1031 701 l 1031 671 z m 340 753 l 340 779 l 1031 779 l 1031 753 z m 340 836 l 340 858 l 1031 858 l 1031 836 z m 54 424 l 54 467 l 419 467 l 390 424 z m 54 258 l 54 310 l 342 310 l 342 258 z m 743 258 l 743 310 l 1031 310 l 1031 258 z m 342 349 l 342 342 l 54 342 l 54 388 l 367 388 z m 743 342 l 743 388 l 1031 388 l 1031 342 z m 743 424 l 743 467 l 1031 467 l 1031 424 z m 743 506 l 743 544 l 1031 544 l 1031 506 z m 743 589 l 743 622 l 1031 622 l 1031 589 z m 54 506 l 54 528 l 460 528 l 444 506 z m 340 918 l 340 926 l 1031 926 l 1031 918 z "},"K":{"ha":1190,"x_min":0,"x_max":0,"o":"m 153 258 l 153 310 l 947 310 l 982 258 z m 153 342 l 153 388 l 896 388 l 926 342 z m 153 176 l 153 231 l 656 231 l 614 176 z m 153 94 l 153 153 l 596 153 l 551 94 z m 153 11 l 153 74 l 535 74 l 488 11 z m 831 11 l 789 74 l 1106 74 l 1147 11 z m 775 94 l 736 153 l 1053 153 l 1092 94 z m 719 176 l 683 231 l 1001 231 l 1038 176 z m 461 424 l 493 467 l 842 467 l 871 424 z m 521 506 l 550 544 l 885 544 l 857 506 z m 153 424 l 153 467 l 440 467 l 440 424 z m 153 506 l 153 544 l 440 544 l 440 506 z m 582 589 l 607 622 l 939 622 l 915 589 z m 642 671 l 664 701 l 996 701 l 974 671 z m 153 589 l 153 622 l 440 622 l 440 589 z m 153 671 l 153 701 l 440 701 l 440 671 z m 701 753 l 721 779 l 1051 779 l 1032 753 z m 149 753 l 132 779 l 440 779 l 440 753 z m 94 836 l 79 858 l 440 858 l 440 836 z m 763 836 l 778 858 l 1107 858 l 1092 836 z m 35 926 l 440 926 l 440 918 l 40 918 z m 821 918 l 828 926 l 1156 926 l 1150 918 z "},"L":{"ha":1024,"x_min":0,"x_max":0,"o":"m 153 11 l 153 74 l 968 74 l 968 11 z m 153 94 l 153 153 l 968 153 l 968 94 z m 153 176 l 153 231 l 968 231 l 968 176 z m 153 258 l 153 310 l 440 310 l 440 258 z m 153 342 l 153 388 l 440 388 l 440 342 z m 153 424 l 153 467 l 440 467 l 440 424 z m 153 506 l 153 544 l 440 544 l 440 506 z m 153 589 l 153 622 l 440 622 l 440 589 z m 153 671 l 153 701 l 440 701 l 440 671 z m 149 753 l 132 779 l 440 779 l 440 753 z m 94 836 l 79 858 l 440 858 l 440 836 z m 35 926 l 440 926 l 440 918 l 40 918 z "},"M":{"ha":1379,"x_min":0,"x_max":0,"o":"m 717 544 l 738 510 l 757 544 l 1324 544 l 1324 506 l 153 506 l 153 544 z m 472 424 l 447 467 l 1028 467 l 1003 424 z m 521 342 l 493 388 l 982 388 l 956 342 z m 569 258 l 539 310 l 936 310 l 907 258 z m 1036 11 l 1036 74 l 1324 74 l 1324 11 z m 153 11 l 153 74 l 440 74 l 440 11 z m 783 589 l 803 622 l 1324 622 l 1324 589 z m 153 589 l 153 622 l 672 622 l 692 589 z m 1036 94 l 1036 153 l 1324 153 l 1324 94 z m 153 94 l 153 153 l 440 153 l 440 94 z m 1036 176 l 1036 231 l 1324 231 l 1324 176 z m 153 176 l 153 231 l 440 231 l 440 176 z m 617 176 l 585 231 l 890 231 l 858 176 z m 831 671 l 849 701 l 1324 701 l 1324 671 z m 1036 258 l 1036 310 l 1324 310 l 1324 258 z m 153 258 l 153 310 l 440 310 l 440 258 z m 153 671 l 153 701 l 626 701 l 644 671 z m 153 342 l 153 388 l 440 388 l 440 342 z m 1036 342 l 1036 388 l 1324 388 l 1324 342 z m 1036 424 l 1036 467 l 1324 467 l 1324 424 z m 153 424 l 153 467 l 440 467 l 440 424 z m 149 753 l 132 779 l 582 779 l 597 753 z m 878 753 l 893 779 l 1324 779 l 1324 753 z m 665 94 l 631 153 l 844 153 l 811 94 z m 94 836 l 79 858 l 536 858 l 549 836 z m 926 836 l 939 858 l 1324 858 l 1324 836 z m 714 11 l 678 74 l 799 74 l 761 11 z m 35 926 l 497 926 l 501 918 l 40 918 z m 1324 926 l 1324 918 l 974 918 l 979 926 z "},"N":{"ha":1208,"x_min":0,"x_max":0,"o":"m 639 258 l 599 310 l 1153 310 l 1153 258 z m 824 467 l 856 426 l 865 426 l 865 467 l 1153 467 l 1153 424 l 508 424 l 475 467 z m 574 342 l 538 388 l 1153 388 l 1153 342 z m 703 176 l 660 231 l 1153 231 l 1153 176 z m 153 506 l 153 544 l 763 544 l 793 506 z m 767 94 l 721 153 l 1153 153 l 1153 94 z m 832 11 l 783 74 l 1153 74 l 1153 11 z m 153 589 l 153 622 l 701 622 l 728 589 z m 153 11 l 153 74 l 440 74 l 440 11 z m 153 94 l 153 153 l 440 153 l 440 94 z m 153 176 l 153 231 l 440 231 l 440 176 z m 153 671 l 153 701 l 639 701 l 663 671 z m 153 258 l 153 310 l 440 310 l 440 258 z m 153 342 l 153 388 l 440 388 l 440 342 z m 153 424 l 153 467 l 440 467 l 440 424 z m 149 753 l 132 779 l 578 779 l 599 753 z m 865 506 l 865 544 l 1153 544 l 1153 506 z m 94 836 l 79 858 l 515 858 l 533 836 z m 865 589 l 865 622 l 1153 622 l 1153 589 z m 865 671 l 865 701 l 1153 701 l 1153 671 z m 865 753 l 865 779 l 1153 779 l 1153 753 z m 865 836 l 865 858 l 1153 858 l 1153 836 z m 35 926 l 463 926 l 468 918 l 40 918 z m 865 918 l 865 926 l 1153 926 l 1153 918 z "},"O":{"ha":1088,"x_min":0,"x_max":0,"o":"m 1032 153 b 1017 94 1031 131 1026 112 l 69 94 b 56 153 60 113 56 132 z m 1006 74 b 917 11 983 43 954 22 l 169 11 b 119 35 151 17 134 25 b 82 74 105 46 92 59 z m 56 176 l 56 231 l 1032 231 l 1032 176 z m 744 671 l 744 676 l 343 676 l 343 671 l 56 671 l 56 701 l 1032 701 l 1032 671 z m 1032 765 l 1032 753 l 56 753 l 56 765 l 56 779 l 1031 779 b 1032 765 1031 775 1032 771 z m 72 836 b 78 847 74 840 76 844 b 86 858 81 851 83 855 l 1001 858 b 1009 847 1004 855 1007 851 b 1015 836 1011 844 1013 840 z m 56 258 l 56 310 l 343 310 l 343 258 z m 744 258 l 744 310 l 1032 310 l 1032 258 z m 56 342 l 56 388 l 343 388 l 343 342 z m 744 342 l 744 388 l 1032 388 l 1032 342 z m 744 424 l 744 467 l 1032 467 l 1032 424 z m 56 424 l 56 467 l 343 467 l 343 424 z m 56 506 l 56 544 l 343 544 l 343 506 z m 744 506 l 744 544 l 1032 544 l 1032 506 z m 56 589 l 56 622 l 343 622 l 343 589 z m 744 589 l 744 622 l 1032 622 l 1032 589 z m 178 918 b 242 926 197 924 219 926 l 846 926 b 908 918 868 926 889 924 z "},"P":{"ha":1185,"x_min":0,"x_max":0,"o":"m 1100 310 b 1035 258 1084 288 1063 270 l 153 258 l 153 310 z m 1128 388 b 1118 342 1126 369 1123 354 l 153 342 l 153 388 z m 153 424 l 153 467 l 1129 467 l 1129 424 z m 440 676 l 440 671 l 153 671 l 153 701 l 1129 701 l 1129 671 l 842 671 l 842 676 z m 1128 779 b 1129 765 1129 775 1129 771 l 1129 753 l 149 753 l 132 779 z m 1099 858 b 1106 847 1101 855 1104 851 b 1113 836 1109 844 1111 840 l 94 836 l 79 858 z m 153 11 l 153 74 l 440 74 l 440 11 z m 153 94 l 153 153 l 440 153 l 440 94 z m 153 176 l 153 231 l 440 231 l 440 176 z m 153 506 l 153 544 l 440 544 l 440 506 z m 842 506 l 842 544 l 1129 544 l 1129 506 z m 842 589 l 842 622 l 1129 622 l 1129 589 z m 153 589 l 153 622 l 440 622 l 440 589 z m 35 926 l 943 926 b 1006 918 965 926 986 924 l 40 918 z "},"Q":{"ha":1088,"x_min":0,"x_max":0,"o":"m 1032 153 b 1017 94 1031 131 1026 112 l 71 94 b 56 153 63 112 57 131 z m 1006 74 b 917 11 983 43 954 22 l 168 11 b 119 36 150 18 133 26 b 82 74 104 46 92 59 z m 56 176 l 56 231 l 1032 231 l 1032 176 z m 150 -153 l 189 -83 l 778 -83 l 725 -153 z m 196 -71 l 233 -4 l 836 -4 l 786 -71 z m 354 -647 l 492 -240 l 660 -240 z m 744 671 l 744 676 l 343 676 l 343 671 l 56 671 l 56 701 l 1032 701 l 1032 671 z m 500 258 l 531 310 l 1032 310 l 1032 258 z m 56 753 l 56 765 l 56 779 l 1031 779 b 1032 765 1031 775 1032 771 l 1032 753 z m 549 342 l 576 388 l 1032 388 l 1032 342 z m 72 836 b 78 847 74 840 76 844 b 86 858 81 851 83 855 l 1001 858 b 1009 847 1004 855 1007 851 b 1015 836 1011 844 1013 840 z m 493 -236 l 517 -167 l 143 -167 l 146 -161 l 719 -161 l 663 -236 z m 56 258 l 56 310 l 343 310 l 343 258 z m 56 342 l 56 388 l 343 388 l 343 342 z m 744 424 l 744 467 l 1032 467 l 1032 424 z m 56 424 l 56 467 l 343 467 l 343 424 z m 56 506 l 56 544 l 343 544 l 343 506 z m 744 506 l 744 544 l 1032 544 l 1032 506 z m 56 589 l 56 622 l 343 622 l 343 589 z m 744 589 l 744 622 l 1032 622 l 1032 589 z m 178 918 b 242 926 197 924 219 926 l 846 926 b 908 918 868 926 889 924 z "},"R":{"ha":1188,"x_min":0,"x_max":0,"o":"m 1094 310 b 1063 281 1085 299 1075 289 b 1024 258 1050 272 1038 265 l 153 258 l 153 310 z m 1128 388 b 1115 342 1126 371 1122 356 l 153 342 l 153 388 z m 153 424 l 153 467 l 1129 467 l 1129 424 z m 440 676 l 440 671 l 153 671 l 153 701 l 1129 701 l 1129 671 l 842 671 l 842 676 z m 1129 765 l 1129 753 l 149 753 l 132 779 l 1128 779 b 1129 765 1129 775 1129 771 z m 1099 858 b 1106 847 1101 855 1104 851 b 1113 836 1109 844 1111 840 l 94 836 l 79 858 z m 850 11 l 789 74 l 1118 74 l 1176 11 z m 768 94 l 711 153 l 1043 153 l 1099 94 z m 688 176 l 635 231 l 969 231 l 1021 176 z m 153 11 l 153 74 l 440 74 l 440 11 z m 153 94 l 153 153 l 440 153 l 440 94 z m 153 176 l 153 231 l 440 231 l 440 176 z m 153 506 l 153 544 l 440 544 l 440 506 z m 842 506 l 842 544 l 1129 544 l 1129 506 z m 153 589 l 153 622 l 440 622 l 440 589 z m 842 589 l 842 622 l 1129 622 l 1129 589 z m 943 926 b 1006 918 965 926 986 924 l 40 918 l 35 926 z "},"S":{"ha":1043,"x_min":0,"x_max":0,"o":"m 961 74 b 874 11 940 43 911 22 l 56 11 l 56 74 z m 988 153 b 972 94 987 131 981 112 l 56 94 l 56 153 z m 56 176 l 56 231 l 988 231 l 988 176 z m 74 424 b 58 467 66 437 61 451 l 982 467 b 988 426 986 456 988 442 l 988 424 z m 197 342 b 103 388 159 349 128 364 l 988 388 l 988 342 z m 932 544 b 967 506 946 533 957 520 l 56 506 l 56 544 z m 56 753 l 56 765 l 56 779 l 983 779 b 981 766 982 775 982 770 b 979 753 981 762 980 757 z m 957 701 b 913 676 945 685 930 676 l 343 676 l 343 671 l 56 671 l 56 701 z m 72 836 b 78 847 74 840 76 844 b 86 858 81 851 83 855 l 988 858 l 988 836 z m 700 258 l 700 310 l 988 310 l 988 258 z m 56 589 l 56 622 l 343 622 l 343 589 z m 178 918 b 242 926 197 924 219 926 l 988 926 l 988 918 z "},"T":{"ha":1001,"x_min":0,"x_max":0,"o":"m 356 -71 l 356 -4 l 943 -4 l 893 -71 z m 356 -153 l 356 -83 l 885 -83 l 832 -153 z m 461 -647 l 599 -240 l 767 -240 z m 942 779 b 940 766 941 775 940 770 b 938 753 939 762 938 757 l 56 753 l 56 779 z m 56 676 l 56 701 l 915 701 b 871 676 903 685 888 676 l 643 676 l 643 671 l 356 671 l 356 676 z m 56 836 l 56 858 l 946 858 l 946 836 z m 356 11 l 356 74 l 643 74 l 643 11 z m 356 94 l 356 153 l 643 153 l 643 94 z m 356 176 l 356 231 l 643 231 l 643 176 z m 600 -236 l 624 -167 l 356 -167 l 356 -161 l 826 -161 l 769 -236 z m 356 258 l 356 310 l 643 310 l 643 258 z m 356 342 l 356 388 l 643 388 l 643 342 z m 356 424 l 356 467 l 643 467 l 643 424 z m 356 506 l 356 544 l 643 544 l 643 506 z m 356 589 l 356 622 l 643 622 l 643 589 z m 56 918 l 56 926 l 946 926 l 946 918 z "},"U":{"ha":1185,"x_min":0,"x_max":0,"o":"m 1129 153 b 1114 94 1128 131 1123 112 l 167 94 b 153 153 157 113 153 132 z m 1103 74 b 1014 11 1081 43 1051 22 l 267 11 b 217 35 248 17 231 25 b 179 74 202 46 189 59 z m 153 176 l 153 231 l 1129 231 l 1129 176 z m 153 258 l 153 310 l 440 310 l 440 258 z m 842 258 l 842 310 l 1129 310 l 1129 258 z m 153 342 l 153 388 l 440 388 l 440 342 z m 842 342 l 842 388 l 1129 388 l 1129 342 z m 153 424 l 153 467 l 440 467 l 440 424 z m 842 424 l 842 467 l 1129 467 l 1129 424 z m 153 506 l 153 544 l 440 544 l 440 506 z m 842 506 l 842 544 l 1129 544 l 1129 506 z m 153 589 l 153 622 l 440 622 l 440 589 z m 842 589 l 842 622 l 1129 622 l 1129 589 z m 153 671 l 153 701 l 440 701 l 440 671 z m 842 671 l 842 701 l 1129 701 l 1129 671 z m 149 753 l 132 779 l 440 779 l 440 753 z m 94 836 l 79 858 l 440 858 l 440 836 z m 842 753 l 842 779 l 1129 779 l 1129 753 z m 842 836 l 842 858 l 1129 858 l 1129 836 z m 35 926 l 440 926 l 440 918 l 40 918 z m 842 918 l 842 926 l 1129 926 l 1129 918 z "},"V":{"ha":1251,"x_min":0,"x_max":0,"o":"m 407 -71 l 435 -4 l 1056 -4 l 1006 -71 z m 371 -153 l 401 -83 l 997 -83 l 944 -153 z m 711 -240 l 879 -240 l 574 -647 z m 613 310 l 626 278 l 639 310 l 949 310 l 926 258 l 325 258 l 303 310 z m 360 176 l 336 231 l 914 231 l 890 176 z m 396 94 l 371 153 l 881 153 l 854 94 z m 432 11 l 406 74 l 846 74 l 818 11 z m 713 -236 l 736 -167 l 365 -167 l 367 -161 l 939 -161 l 882 -236 z m 289 342 l 268 388 l 579 388 l 599 342 z m 653 342 l 672 388 l 982 388 l 963 342 z m 253 424 l 233 467 l 546 467 l 564 424 z m 688 424 l 706 467 l 1017 467 l 999 424 z m 217 506 l 200 544 l 513 544 l 529 506 z m 722 506 l 738 544 l 1050 544 l 1033 506 z m 181 589 l 167 622 l 481 622 l 494 589 z m 757 589 l 771 622 l 1085 622 l 1069 589 z m 790 671 l 804 701 l 1118 701 l 1106 671 z m 146 671 l 132 701 l 446 701 l 460 671 z m 825 753 l 836 779 l 1153 779 l 1140 753 z m 110 753 l 99 779 l 414 779 l 425 753 z m 860 836 l 869 858 l 1188 858 l 1178 836 z m 74 836 l 64 858 l 379 858 l 389 836 z m 899 926 l 1217 926 l 1213 918 l 894 918 z m 35 926 l 351 926 l 354 918 l 38 918 z "},"W":{"ha":1653,"x_min":0,"x_max":0,"o":"m 825 268 l 821 258 l 325 258 l 303 310 l 1350 310 l 1328 258 l 829 258 z m 289 342 l 268 388 l 1383 388 l 1364 342 z m 908 -71 l 938 -4 l 1524 -4 l 1474 -71 z m 874 -153 l 903 -83 l 1465 -83 l 1413 -153 z m 1179 -240 l 1347 -240 l 1042 -647 z m 864 176 l 840 231 l 1315 231 l 1292 176 z m 360 176 l 336 231 l 808 231 l 786 176 z m 900 94 l 875 153 l 1282 153 l 1256 94 z m 396 94 l 371 153 l 775 153 l 750 94 z m 581 424 l 599 467 l 1050 467 l 1068 424 z m 936 11 l 910 74 l 1247 74 l 1219 11 z m 432 11 l 406 74 l 742 74 l 714 11 z m 1204 -167 l 868 -167 l 869 -161 l 1407 -161 l 1350 -236 l 1181 -236 z m 615 506 l 631 544 l 1018 544 l 1035 506 z m 1083 424 l 1101 467 l 1418 467 l 1400 424 z m 253 424 l 233 467 l 547 467 l 565 424 z m 1118 506 l 1135 544 l 1451 544 l 1435 506 z m 217 506 l 200 544 l 514 544 l 531 506 z m 649 589 l 663 622 l 985 622 l 999 589 z m 1154 589 l 1168 622 l 1486 622 l 1471 589 z m 181 589 l 167 622 l 482 622 l 496 589 z m 1189 671 l 1203 701 l 1519 701 l 1507 671 z m 146 671 l 132 701 l 447 701 l 461 671 z m 651 671 l 638 701 l 951 701 l 964 671 z m 1225 753 l 1236 779 l 1554 779 l 1542 753 z m 110 753 l 99 779 l 414 779 l 425 753 z m 615 753 l 604 779 l 918 779 l 929 753 z m 1260 836 l 1269 858 l 1589 858 l 1579 836 z m 74 836 l 64 858 l 381 858 l 390 836 z m 579 836 l 569 858 l 885 858 l 894 836 z m 1618 926 l 1614 918 l 1294 918 l 1299 926 z m 540 926 l 857 926 l 860 918 l 543 918 z m 35 926 l 351 926 l 354 918 l 38 918 z "},"X":{"ha":1072,"x_min":0,"x_max":0,"o":"m -62 -153 l -14 -83 l 588 -83 l 535 -153 z m -4 -71 l 42 -4 l 646 -4 l 596 -71 z m 301 -240 l 469 -240 l 164 -647 z m 225 258 l 261 310 l 813 310 l 850 258 z m 283 342 l 317 388 l 756 388 l 789 342 z m 700 11 l 654 74 l 985 74 l 1029 11 z m 51 11 l 96 74 l 418 74 l 372 11 z m 526 701 l 536 688 l 546 701 l 875 701 l 853 671 l 218 671 l 196 701 z m 639 94 l 597 153 l 926 153 l 969 94 z m 110 94 l 151 153 l 475 153 l 433 94 z m 278 589 l 254 622 l 817 622 l 793 589 z m 579 176 l 540 231 l 869 231 l 910 176 z m 168 176 l 206 231 l 532 231 l 493 176 z m 338 506 l 310 544 l 761 544 l 732 506 z m 303 -236 l 326 -167 l -72 -167 l -68 -161 l 529 -161 l 472 -236 z m 342 424 l 369 463 l 367 467 l 704 467 l 701 463 l 729 424 z m 160 753 l 140 779 l 469 779 l 489 753 z m 583 753 l 603 779 l 931 779 l 911 753 z m 100 836 l 83 858 l 411 858 l 428 836 z m 644 836 l 660 858 l 988 858 l 972 836 z m 35 926 l 363 926 l 368 918 l 40 918 z m 703 918 l 710 926 l 1038 926 l 1031 918 z "},"Y":{"ha":1185,"x_min":0,"x_max":0,"o":"m 1100 310 b 1035 258 1084 288 1063 270 l 246 258 b 181 310 220 269 198 287 z m 1128 388 b 1118 342 1126 369 1123 354 l 164 342 b 153 388 157 357 154 373 z m 153 424 l 153 467 l 1129 467 l 1129 424 z m 496 11 l 496 74 l 785 74 l 785 11 z m 496 94 l 496 153 l 785 153 l 785 94 z m 496 176 l 496 231 l 785 231 l 785 176 z m 153 506 l 153 544 l 440 544 l 440 506 z m 842 506 l 842 544 l 1129 544 l 1129 506 z m 153 589 l 153 622 l 440 622 l 440 589 z m 842 589 l 842 622 l 1129 622 l 1129 589 z m 153 671 l 153 701 l 440 701 l 440 671 z m 842 671 l 842 701 l 1129 701 l 1129 671 z m 149 753 l 132 779 l 440 779 l 440 753 z m 94 836 l 79 858 l 440 858 l 440 836 z m 842 753 l 842 779 l 1129 779 l 1129 753 z m 842 836 l 842 858 l 1129 858 l 1129 836 z m 440 926 l 440 918 l 40 918 l 35 926 z m 1129 926 l 1129 918 l 842 918 l 842 926 z "},"Z":{"ha":1043,"x_min":0,"x_max":0,"o":"m 56 11 l 56 74 l 988 74 l 988 11 z m 56 94 l 56 153 l 988 153 l 988 94 z m 56 176 l 56 231 l 988 231 l 988 176 z m 56 676 l 56 701 l 950 701 b 941 689 947 697 944 693 b 932 678 938 685 935 681 l 924 671 l 519 671 l 519 676 z m 982 779 b 978 766 980 775 979 770 b 974 753 977 762 975 757 l 56 753 l 56 779 z m 56 836 l 56 858 l 988 858 l 988 836 z m 67 258 l 124 310 l 521 310 l 464 258 z m 158 342 l 210 388 l 608 388 l 557 342 z m 250 424 l 297 467 l 696 467 l 649 424 z m 340 506 l 383 544 l 783 544 l 739 506 z m 433 589 l 469 622 l 869 622 l 832 589 z m 988 926 l 988 918 l 56 918 l 56 926 z "},"[":{"ha":590,"x_min":0,"x_max":0,"o":"m 56 11 l 56 74 l 535 74 l 535 11 z m 56 94 l 56 153 l 535 153 l 535 94 z m 56 176 l 56 231 l 535 231 l 535 176 z m 56 258 l 56 310 l 343 310 l 343 258 z m 535 676 l 343 676 l 343 671 l 56 671 l 56 701 l 535 701 z m 56 342 l 56 388 l 343 388 l 343 342 z m 56 753 l 56 779 l 535 779 l 535 753 z m 56 424 l 56 467 l 343 467 l 343 424 z m 56 506 l 56 544 l 343 544 l 343 506 z m 56 836 l 56 858 l 535 858 l 535 836 z m 56 589 l 56 622 l 343 622 l 343 589 z m 56 918 l 56 926 l 535 926 l 535 918 z "},"\\":{"ha":788,"x_min":0,"x_max":0,"o":"m 432 11 l 406 74 l 721 74 l 747 11 z m 396 94 l 371 153 l 686 153 l 711 94 z m 360 176 l 336 231 l 651 231 l 675 176 z m 325 258 l 303 310 l 618 310 l 640 258 z m 289 342 l 268 388 l 583 388 l 604 342 z m 253 424 l 233 467 l 549 467 l 568 424 z m 217 506 l 200 544 l 515 544 l 532 506 z m 181 589 l 167 622 l 482 622 l 496 589 z m 146 671 l 132 701 l 447 701 l 461 671 z m 110 753 l 99 779 l 414 779 l 425 753 z m 74 836 l 64 858 l 379 858 l 389 836 z m 35 926 l 350 926 l 353 918 l 38 918 z "},"]":{"ha":590,"x_min":0,"x_max":0,"o":"m 56 11 l 56 74 l 535 74 l 535 11 z m 56 94 l 56 153 l 535 153 l 535 94 z m 56 176 l 56 231 l 535 231 l 535 176 z m 247 258 l 247 310 l 535 310 l 535 258 z m 247 676 l 56 676 l 56 701 l 535 701 l 535 671 l 247 671 z m 247 342 l 247 388 l 535 388 l 535 342 z m 56 753 l 56 779 l 535 779 l 535 753 z m 247 424 l 247 467 l 535 467 l 535 424 z m 247 506 l 247 544 l 535 544 l 535 506 z m 56 836 l 56 858 l 535 858 l 535 836 z m 247 589 l 247 622 l 535 622 l 535 589 z m 535 926 l 535 918 l 56 918 l 56 926 z "},"^":{"ha":1185,"x_min":0,"x_max":0,"o":"m 246 258 b 181 310 220 269 198 287 l 1100 310 b 1035 258 1084 288 1063 270 z m 164 342 b 153 388 157 357 154 373 l 1128 388 b 1118 342 1126 369 1123 354 z m 153 424 l 153 467 l 1129 467 l 1129 424 z m 496 -71 l 496 -4 l 1093 -4 l 1043 -71 z m 496 -153 l 496 -83 l 1035 -83 l 982 -153 z m 611 -647 l 749 -240 l 917 -240 z m 496 11 l 496 74 l 785 74 l 785 11 z m 496 94 l 496 153 l 785 153 l 785 94 z m 496 176 l 496 231 l 785 231 l 785 176 z m 750 -236 l 774 -167 l 496 -167 l 496 -161 l 976 -161 l 919 -236 z m 153 506 l 153 544 l 440 544 l 440 506 z m 842 506 l 842 544 l 1129 544 l 1129 506 z m 153 589 l 153 622 l 440 622 l 440 589 z m 842 589 l 842 622 l 1129 622 l 1129 589 z m 153 671 l 153 701 l 440 701 l 440 671 z m 842 671 l 842 701 l 1129 701 l 1129 671 z m 149 753 l 132 779 l 440 779 l 440 753 z m 94 836 l 79 858 l 440 858 l 440 836 z m 842 753 l 842 779 l 1129 779 l 1129 753 z m 842 836 l 842 858 l 1129 858 l 1129 836 z m 35 926 l 440 926 l 440 918 l 40 918 z m 842 918 l 842 926 l 1129 926 l 1129 918 z "},"_":{"ha":783,"x_min":0,"x_max":0,"o":"m 56 11 l 56 74 l 728 74 l 728 11 z m 56 94 l 56 153 l 728 153 l 728 94 z m 56 176 l 56 231 l 728 231 l 728 176 z "},"`":{"ha":342,"x_min":0,"x_max":0,"o":"m 4 1083 l 0 1093 l 274 1093 l 276 1083 z m 307 1006 l 35 1006 l 31 1015 l 303 1015 z m -28 1165 l -31 1172 l 243 1172 l 246 1165 z "},"a":{"ha":1263,"x_min":0,"x_max":0,"o":"m 111 176 l 135 231 l 1126 231 l 1150 176 z m 146 258 l 168 310 l 1093 310 l 1115 258 z m 854 131 l 407 131 l 392 94 l 75 94 l 100 153 l 1161 153 l 1186 94 l 869 94 z m 514 382 l 747 382 l 744 388 l 1058 388 l 1079 342 l 182 342 l 203 388 l 515 388 z m 904 11 l 878 74 l 1196 74 l 1222 11 z m 39 11 l 67 74 l 382 74 l 356 11 z m 325 671 l 338 701 l 922 701 l 936 671 z m 354 753 l 338 779 l 889 779 l 900 753 z m 218 424 l 236 467 l 550 467 l 531 424 z m 729 424 l 711 467 l 1024 467 l 1043 424 z m 300 836 l 285 858 l 854 858 l 864 836 z m 253 506 l 269 544 l 583 544 l 567 506 z m 694 506 l 679 544 l 990 544 l 1007 506 z m 289 589 l 304 622 l 617 622 l 603 589 z m 660 589 l 646 622 l 957 622 l 971 589 z m 240 926 l 825 926 l 828 918 l 246 918 z "},"b":{"ha":1088,"x_min":0,"x_max":0,"o":"m 1006 74 b 917 11 983 43 954 22 l 56 11 l 56 74 z m 1032 153 b 1017 94 1031 131 1026 112 l 56 94 l 56 153 z m 56 176 l 56 231 l 1032 231 l 1032 176 z m 1021 388 b 1032 342 1027 372 1031 356 l 56 342 l 56 388 z m 949 467 b 1001 424 971 455 988 440 l 56 424 l 56 467 z m 1018 544 b 1007 524 1015 537 1012 530 b 993 506 1002 517 998 511 l 56 506 l 56 544 z m 343 676 l 343 671 l 56 671 l 56 701 l 1032 701 l 1032 671 l 744 671 l 744 676 z m 1032 765 l 1032 753 l 56 753 l 56 779 l 1031 779 b 1032 765 1031 775 1032 771 z m 1001 858 b 1009 847 1004 855 1007 851 b 1015 836 1011 844 1013 840 l 56 836 l 56 858 z m 56 258 l 56 310 l 343 310 l 343 258 z m 744 258 l 744 310 l 1032 310 l 1032 258 z m 56 589 l 56 622 l 343 622 l 343 589 z m 1032 610 b 1031 589 1032 600 1031 594 l 744 589 l 744 622 l 1032 622 z m 846 926 b 908 918 868 926 889 924 l 56 918 l 56 926 z "},"c":{"ha":985,"x_min":0,"x_max":0,"o":"m 169 11 b 119 35 151 17 134 25 b 82 74 105 46 92 59 l 929 74 l 929 11 z m 69 94 b 56 153 60 113 56 132 l 929 153 l 929 94 z m 56 176 l 56 231 l 929 231 l 929 176 z m 925 779 b 923 766 924 775 923 770 b 921 753 922 762 922 757 l 56 753 l 56 765 l 56 779 z m 343 676 l 343 671 l 56 671 l 56 701 l 899 701 b 854 676 887 685 872 676 z m 72 836 b 78 847 74 840 76 844 b 86 858 81 851 83 855 l 929 858 l 929 836 z m 56 258 l 56 310 l 343 310 l 343 258 z m 56 342 l 56 388 l 343 388 l 343 342 z m 56 424 l 56 467 l 343 467 l 343 424 z m 56 506 l 56 544 l 343 544 l 343 506 z m 56 589 l 56 622 l 343 622 l 343 589 z m 929 926 l 929 918 l 178 918 b 242 926 197 924 219 926 z "},"d":{"ha":1088,"x_min":0,"x_max":0,"o":"m 1006 74 b 917 11 983 43 954 22 l 56 11 l 56 74 z m 1032 153 b 1017 94 1031 131 1026 112 l 56 94 l 56 153 z m 56 176 l 56 231 l 1032 231 l 1032 176 z m 343 676 l 343 671 l 56 671 l 56 701 l 1032 701 l 1032 671 l 744 671 l 744 676 z m 1032 765 l 1032 753 l 56 753 l 56 779 l 1031 779 b 1032 765 1031 775 1032 771 z m 1001 858 b 1009 847 1004 855 1007 851 b 1015 836 1011 844 1013 840 l 56 836 l 56 858 z m 56 258 l 56 310 l 343 310 l 343 258 z m 744 258 l 744 310 l 1032 310 l 1032 258 z m 56 342 l 56 388 l 343 388 l 343 342 z m 744 342 l 744 388 l 1032 388 l 1032 342 z m 744 424 l 744 467 l 1032 467 l 1032 424 z m 56 424 l 56 467 l 343 467 l 343 424 z m 56 506 l 56 544 l 343 544 l 343 506 z m 744 506 l 744 544 l 1032 544 l 1032 506 z m 56 589 l 56 622 l 343 622 l 343 589 z m 744 589 l 744 622 l 1032 622 l 1032 589 z m 846 926 b 908 918 868 926 889 924 l 56 918 l 56 926 z "},"e":{"ha":985,"x_min":0,"x_max":0,"o":"m 56 11 l 56 74 l 929 74 l 929 11 z m 56 94 l 56 153 l 929 153 l 929 94 z m 56 176 l 56 231 l 929 231 l 929 176 z m 56 342 l 56 388 l 844 388 l 844 342 z m 56 424 l 56 467 l 844 467 l 844 424 z m 56 506 l 56 544 l 844 544 l 844 506 z m 925 779 b 923 766 924 775 923 770 b 921 753 922 762 922 757 l 56 753 l 56 779 z m 343 676 l 343 671 l 56 671 l 56 701 l 899 701 b 854 676 887 685 872 676 z m 56 836 l 56 858 l 929 858 l 929 836 z m 56 258 l 56 310 l 343 310 l 343 258 z m 56 589 l 56 622 l 343 622 l 343 589 z m 929 926 l 929 918 l 56 918 l 56 926 z "},"f":{"ha":985,"x_min":0,"x_max":0,"o":"m 56 342 l 56 388 l 844 388 l 844 342 z m 56 424 l 56 467 l 844 467 l 844 424 z m 56 506 l 56 544 l 844 544 l 844 506 z m 925 779 b 923 766 924 775 923 770 b 921 753 922 762 922 757 l 56 753 l 56 779 z m 343 676 l 343 671 l 56 671 l 56 701 l 899 701 b 854 676 887 685 872 676 z m 56 836 l 56 858 l 929 858 l 929 836 z m 56 11 l 56 74 l 343 74 l 343 11 z m 56 94 l 56 153 l 343 153 l 343 94 z m 56 176 l 56 231 l 343 231 l 343 176 z m 56 258 l 56 310 l 343 310 l 343 258 z m 56 589 l 56 622 l 343 622 l 343 589 z m 929 926 l 929 918 l 56 918 l 56 926 z "},"g":{"ha":1088,"x_min":0,"x_max":0,"o":"m 169 11 b 119 35 151 17 134 25 b 82 74 105 46 92 59 l 1032 74 l 1032 11 z m 69 94 b 56 153 60 113 56 132 l 1032 153 l 1032 94 z m 56 176 l 56 231 l 1032 231 l 1032 176 z m 56 753 l 56 765 l 56 779 l 942 779 b 940 766 941 775 940 770 b 938 753 939 762 938 757 z m 915 701 b 871 676 903 685 888 676 l 343 676 l 343 671 l 56 671 l 56 701 z m 72 836 b 78 847 74 840 76 844 b 86 858 81 851 83 855 l 946 858 l 946 836 z m 694 424 l 667 467 l 1032 467 l 1032 424 z m 56 258 l 56 310 l 343 310 l 343 258 z m 744 258 l 744 310 l 1032 310 l 1032 258 z m 744 349 l 718 388 l 1032 388 l 1032 342 l 744 342 z m 56 342 l 56 388 l 343 388 l 343 342 z m 56 424 l 56 467 l 343 467 l 343 424 z m 56 506 l 56 544 l 343 544 l 343 506 z m 56 589 l 56 622 l 343 622 l 343 589 z m 626 528 l 1032 528 l 1032 506 l 640 506 z m 178 918 b 242 926 197 924 219 926 l 946 926 l 946 918 z "},"h":{"ha":1088,"x_min":0,"x_max":0,"o":"m 56 342 l 56 388 l 1032 388 l 1032 342 z m 56 424 l 56 467 l 1032 467 l 1032 424 z m 56 506 l 56 544 l 1032 544 l 1032 506 z m 56 11 l 56 74 l 343 74 l 343 11 z m 744 11 l 744 74 l 1032 74 l 1032 11 z m 56 94 l 56 153 l 343 153 l 343 94 z m 744 94 l 744 153 l 1032 153 l 1032 94 z m 744 176 l 744 231 l 1032 231 l 1032 176 z m 56 176 l 56 231 l 343 231 l 343 176 z m 56 258 l 56 310 l 343 310 l 343 258 z m 744 258 l 744 310 l 1032 310 l 1032 258 z m 56 589 l 56 622 l 343 622 l 343 589 z m 744 589 l 744 622 l 1032 622 l 1032 589 z m 56 671 l 56 701 l 343 701 l 343 671 z m 744 671 l 744 701 l 1032 701 l 1032 671 z m 744 753 l 744 779 l 1032 779 l 1032 753 z m 56 753 l 56 779 l 343 779 l 343 753 z m 56 836 l 56 858 l 343 858 l 343 836 z m 744 836 l 744 858 l 1032 858 l 1032 836 z m 56 918 l 56 926 l 343 926 l 343 918 z m 744 918 l 744 926 l 1032 926 l 1032 918 z "},"i":{"ha":401,"x_min":0,"x_max":0,"o":"m 57 11 l 57 74 l 344 74 l 344 11 z m 57 94 l 57 153 l 344 153 l 344 94 z m 57 176 l 57 231 l 344 231 l 344 176 z m 57 258 l 57 310 l 344 310 l 344 258 z m 57 342 l 57 388 l 344 388 l 344 342 z m 57 424 l 57 467 l 344 467 l 344 424 z m 57 506 l 57 544 l 344 544 l 344 506 z m 57 589 l 57 622 l 344 622 l 344 589 z m 57 671 l 57 701 l 344 701 l 344 671 z m 57 753 l 57 779 l 344 779 l 344 753 z m 57 836 l 57 858 l 344 858 l 344 836 z m 344 926 l 344 918 l 57 918 l 57 926 z "},"j":{"ha":926,"x_min":0,"x_max":0,"o":"m 871 153 b 856 94 870 131 865 112 l 56 94 l 56 153 z m 844 74 b 757 11 823 43 794 22 l 56 11 l 56 74 z m 56 176 l 56 231 l 871 231 l 871 176 z m 583 258 l 583 310 l 871 310 l 871 258 z m 583 342 l 583 388 l 871 388 l 871 342 z m 583 424 l 583 467 l 871 467 l 871 424 z m 583 506 l 583 544 l 871 544 l 871 506 z m 583 589 l 583 622 l 871 622 l 871 589 z m 583 671 l 583 701 l 871 701 l 871 671 z m 579 753 l 563 779 l 871 779 l 871 753 z m 525 836 l 510 858 l 871 858 l 871 836 z m 465 926 l 871 926 l 871 918 l 471 918 z "},"k":{"ha":1093,"x_min":0,"x_max":0,"o":"m 56 258 l 56 310 l 850 310 l 885 258 z m 56 342 l 56 388 l 799 388 l 829 342 z m 56 176 l 56 231 l 558 231 l 517 176 z m 56 94 l 56 153 l 499 153 l 453 94 z m 56 11 l 56 74 l 438 74 l 389 11 z m 733 11 l 692 74 l 1008 74 l 1050 11 z m 678 94 l 639 153 l 956 153 l 994 94 z m 622 176 l 586 231 l 904 231 l 940 176 z m 364 424 l 396 467 l 744 467 l 774 424 z m 424 506 l 453 544 l 788 544 l 760 506 z m 56 424 l 56 467 l 343 467 l 343 424 z m 56 506 l 56 544 l 343 544 l 343 506 z m 485 589 l 510 622 l 842 622 l 818 589 z m 544 671 l 567 701 l 899 701 l 876 671 z m 56 589 l 56 622 l 343 622 l 343 589 z m 56 671 l 56 701 l 343 701 l 343 671 z m 604 753 l 624 779 l 954 779 l 935 753 z m 56 753 l 56 779 l 343 779 l 343 753 z m 665 836 l 681 858 l 1010 858 l 994 836 z m 56 836 l 56 858 l 343 858 l 343 836 z m 1058 926 l 1053 918 l 724 918 l 731 926 z m 56 926 l 343 926 l 343 918 l 56 918 z "},"l":{"ha":926,"x_min":0,"x_max":0,"o":"m 56 11 l 56 74 l 871 74 l 871 11 z m 56 94 l 56 153 l 871 153 l 871 94 z m 56 176 l 56 231 l 871 231 l 871 176 z m 56 258 l 56 310 l 343 310 l 343 258 z m 56 342 l 56 388 l 343 388 l 343 342 z m 56 424 l 56 467 l 343 467 l 343 424 z m 56 506 l 56 544 l 343 544 l 343 506 z m 56 589 l 56 622 l 343 622 l 343 589 z m 56 671 l 56 701 l 343 701 l 343 671 z m 56 753 l 56 779 l 343 779 l 343 753 z m 56 836 l 56 858 l 343 858 l 343 836 z m 56 926 l 343 926 l 343 918 l 56 918 z "},"m":{"ha":1282,"x_min":0,"x_max":0,"o":"m 619 544 l 640 510 l 660 544 l 1226 544 l 1226 506 l 56 506 l 56 544 z m 375 424 l 350 467 l 931 467 l 906 424 z m 424 342 l 396 388 l 885 388 l 858 342 z m 472 258 l 442 310 l 839 310 l 810 258 z m 939 11 l 939 74 l 1226 74 l 1226 11 z m 56 11 l 56 74 l 343 74 l 343 11 z m 686 589 l 706 622 l 1226 622 l 1226 589 z m 56 589 l 56 622 l 575 622 l 594 589 z m 56 94 l 56 153 l 343 153 l 343 94 z m 939 94 l 939 153 l 1226 153 l 1226 94 z m 939 176 l 939 231 l 1226 231 l 1226 176 z m 56 176 l 56 231 l 343 231 l 343 176 z m 519 176 l 488 231 l 793 231 l 761 176 z m 733 671 l 751 701 l 1226 701 l 1226 671 z m 939 258 l 939 310 l 1226 310 l 1226 258 z m 56 258 l 56 310 l 343 310 l 343 258 z m 56 671 l 56 701 l 529 701 l 547 671 z m 939 342 l 939 388 l 1226 388 l 1226 342 z m 56 342 l 56 388 l 343 388 l 343 342 z m 939 424 l 939 467 l 1226 467 l 1226 424 z m 56 424 l 56 467 l 343 467 l 343 424 z m 781 753 l 796 779 l 1226 779 l 1226 753 z m 56 753 l 56 779 l 485 779 l 500 753 z m 568 94 l 533 153 l 747 153 l 714 94 z m 829 836 l 842 858 l 1226 858 l 1226 836 z m 56 836 l 56 858 l 439 858 l 451 836 z m 617 11 l 581 74 l 701 74 l 664 11 z m 876 918 l 882 926 l 1226 926 l 1226 918 z m 56 918 l 56 926 l 400 926 l 404 918 z "},"n":{"ha":1111,"x_min":0,"x_max":0,"o":"m 542 258 l 501 310 l 1056 310 l 1056 258 z m 726 467 l 758 426 l 768 426 l 768 467 l 1056 467 l 1056 424 l 411 424 l 378 467 z m 476 342 l 440 388 l 1056 388 l 1056 342 z m 606 176 l 563 231 l 1056 231 l 1056 176 z m 56 506 l 56 544 l 665 544 l 696 506 z m 669 94 l 624 153 l 1056 153 l 1056 94 z m 735 11 l 686 74 l 1056 74 l 1056 11 z m 56 589 l 56 622 l 604 622 l 631 589 z m 56 11 l 56 74 l 343 74 l 343 11 z m 56 94 l 56 153 l 343 153 l 343 94 z m 56 176 l 56 231 l 343 231 l 343 176 z m 56 671 l 56 701 l 542 701 l 565 671 z m 56 258 l 56 310 l 343 310 l 343 258 z m 56 342 l 56 388 l 343 388 l 343 342 z m 56 424 l 56 467 l 343 467 l 343 424 z m 56 753 l 56 779 l 481 779 l 501 753 z m 768 506 l 768 544 l 1056 544 l 1056 506 z m 768 589 l 768 622 l 1056 622 l 1056 589 z m 768 671 l 768 701 l 1056 701 l 1056 671 z m 56 836 l 56 858 l 418 858 l 436 836 z m 768 753 l 768 779 l 1056 779 l 1056 753 z m 768 836 l 768 858 l 1056 858 l 1056 836 z m 56 918 l 56 926 l 365 926 l 371 918 z m 768 918 l 768 926 l 1056 926 l 1056 918 z "},"o":{"ha":1088,"x_min":0,"x_max":0,"o":"m 69 94 b 56 153 60 113 56 132 l 1032 153 b 1017 94 1031 131 1026 112 z m 169 11 b 119 35 151 17 134 25 b 82 74 105 46 92 59 l 1006 74 b 917 11 983 43 954 22 z m 56 176 l 56 231 l 1032 231 l 1032 176 z m 343 676 l 343 671 l 56 671 l 56 701 l 1032 701 l 1032 671 l 744 671 l 744 676 z m 1032 765 l 1032 753 l 56 753 l 56 765 l 56 779 l 1031 779 b 1032 765 1031 775 1032 771 z m 1001 858 b 1009 847 1004 855 1007 851 b 1015 836 1011 844 1013 840 l 72 836 b 78 847 74 840 76 844 b 86 858 81 851 83 855 z m 56 258 l 56 310 l 343 310 l 343 258 z m 744 258 l 744 310 l 1032 310 l 1032 258 z m 56 342 l 56 388 l 343 388 l 343 342 z m 744 342 l 744 388 l 1032 388 l 1032 342 z m 744 424 l 744 467 l 1032 467 l 1032 424 z m 56 424 l 56 467 l 343 467 l 343 424 z m 56 506 l 56 544 l 343 544 l 343 506 z m 744 506 l 744 544 l 1032 544 l 1032 506 z m 56 589 l 56 622 l 343 622 l 343 589 z m 744 589 l 744 622 l 1032 622 l 1032 589 z m 846 926 b 908 918 868 926 889 924 l 178 918 b 242 926 197 924 219 926 z "},"p":{"ha":1088,"x_min":0,"x_max":0,"o":"m 1003 310 b 938 258 987 288 965 270 l 56 258 l 56 310 z m 1031 388 b 1021 342 1029 369 1025 354 l 56 342 l 56 388 z m 56 424 l 56 467 l 1032 467 l 1032 424 z m 343 676 l 343 671 l 56 671 l 56 701 l 1032 701 l 1032 671 l 744 671 l 744 676 z m 1032 765 l 1032 753 l 56 753 l 56 779 l 1031 779 b 1032 765 1031 775 1032 771 z m 1001 858 b 1009 847 1004 855 1007 851 b 1015 836 1011 844 1013 840 l 56 836 l 56 858 z m 56 11 l 56 74 l 343 74 l 343 11 z m 56 94 l 56 153 l 343 153 l 343 94 z m 56 176 l 56 231 l 343 231 l 343 176 z m 56 506 l 56 544 l 343 544 l 343 506 z m 744 506 l 744 544 l 1032 544 l 1032 506 z m 56 589 l 56 622 l 343 622 l 343 589 z m 744 589 l 744 622 l 1032 622 l 1032 589 z m 846 926 b 908 918 868 926 889 924 l 56 918 l 56 926 z "},"q":{"ha":1088,"x_min":0,"x_max":0,"o":"m 1032 153 b 1017 94 1031 131 1026 112 l 69 94 b 56 153 60 113 56 132 z m 1004 74 b 967 36 993 58 981 45 l 990 11 l 169 11 b 119 35 151 17 134 25 b 82 74 105 46 92 59 z m 56 176 l 56 231 l 1032 231 l 1032 176 z m 744 671 l 744 676 l 343 676 l 343 671 l 56 671 l 56 701 l 1032 701 l 1032 671 z m 1032 765 l 1032 753 l 56 753 l 56 765 l 56 779 l 1031 779 b 1032 765 1031 775 1032 771 z m 551 258 l 589 310 l 1032 310 l 1032 258 z m 740 -71 l 675 -4 l 1004 -4 l 1068 -71 z m 72 836 b 78 847 74 840 76 844 b 86 858 81 851 83 855 l 1001 858 b 1009 847 1004 855 1007 851 b 1015 836 1011 844 1013 840 z m 613 342 l 639 376 l 744 376 l 744 388 l 1032 388 l 1032 342 z m 56 258 l 56 310 l 343 310 l 343 258 z m 56 342 l 56 388 l 343 388 l 343 342 z m 744 424 l 744 467 l 1032 467 l 1032 424 z m 56 424 l 56 467 l 343 467 l 343 424 z m 56 506 l 56 544 l 343 544 l 343 506 z m 744 506 l 744 544 l 1032 544 l 1032 506 z m 1081 -83 l 1113 -117 l 786 -117 l 753 -83 z m 56 589 l 56 622 l 343 622 l 343 589 z m 744 589 l 744 622 l 1032 622 l 1032 589 z m 178 918 b 242 926 197 924 219 926 l 846 926 b 908 918 868 926 889 924 z "},"r":{"ha":1086,"x_min":0,"x_max":0,"o":"m 997 310 b 965 281 988 299 977 289 b 926 258 953 272 940 265 l 56 258 l 56 310 z m 1031 388 b 1018 342 1029 371 1025 356 l 56 342 l 56 388 z m 56 424 l 56 467 l 1032 467 l 1032 424 z m 343 676 l 343 671 l 56 671 l 56 701 l 1032 701 l 1032 671 l 744 671 l 744 676 z m 1031 779 b 1032 765 1031 775 1032 771 l 1032 753 l 56 753 l 56 779 z m 1001 858 b 1009 847 1004 855 1007 851 b 1015 836 1011 844 1013 840 l 56 836 l 56 858 z m 753 11 l 692 74 l 1021 74 l 1079 11 z m 671 94 l 614 153 l 946 153 l 1001 94 z m 590 176 l 538 231 l 872 231 l 924 176 z m 56 11 l 56 74 l 343 74 l 343 11 z m 56 94 l 56 153 l 343 153 l 343 94 z m 56 176 l 56 231 l 343 231 l 343 176 z m 56 506 l 56 544 l 343 544 l 343 506 z m 744 506 l 744 544 l 1032 544 l 1032 506 z m 56 589 l 56 622 l 343 622 l 343 589 z m 744 589 l 744 622 l 1032 622 l 1032 589 z m 56 918 l 56 926 l 846 926 b 908 918 868 926 889 924 z "},"s":{"ha":1043,"x_min":0,"x_max":0,"o":"m 961 74 b 874 11 940 43 911 22 l 56 11 l 56 74 z m 988 153 b 972 94 987 131 981 112 l 56 94 l 56 153 z m 56 176 l 56 231 l 988 231 l 988 176 z m 74 424 b 58 467 66 437 61 451 l 982 467 b 988 426 986 456 988 442 l 988 424 z m 197 342 b 103 388 159 349 128 364 l 988 388 l 988 342 z m 932 544 b 967 506 946 533 957 520 l 56 506 l 56 544 z m 56 753 l 56 765 l 56 779 l 983 779 b 981 766 982 775 982 770 b 979 753 981 762 980 757 z m 957 701 b 913 676 945 685 930 676 l 343 676 l 343 671 l 56 671 l 56 701 z m 72 836 b 78 847 74 840 76 844 b 86 858 81 851 83 855 l 988 858 l 988 836 z m 700 258 l 700 310 l 988 310 l 988 258 z m 56 589 l 56 622 l 343 622 l 343 589 z m 178 918 b 242 926 197 924 219 926 l 988 926 l 988 918 z "},"t":{"ha":1000,"x_min":0,"x_max":0,"o":"m 940 779 b 938 766 939 775 939 770 b 936 753 938 762 937 757 l 56 753 l 56 779 z m 56 676 l 56 701 l 914 701 b 869 676 902 685 887 676 l 643 676 l 643 671 l 356 671 l 356 676 z m 56 836 l 56 858 l 944 858 l 944 836 z m 356 11 l 356 74 l 643 74 l 643 11 z m 356 94 l 356 153 l 643 153 l 643 94 z m 356 176 l 356 231 l 643 231 l 643 176 z m 356 258 l 356 310 l 643 310 l 643 258 z m 356 342 l 356 388 l 643 388 l 643 342 z m 356 424 l 356 467 l 643 467 l 643 424 z m 356 506 l 356 544 l 643 544 l 643 506 z m 356 589 l 356 622 l 643 622 l 643 589 z m 56 918 l 56 926 l 944 926 l 944 918 z "},"u":{"ha":1088,"x_min":0,"x_max":0,"o":"m 69 94 b 56 153 60 113 56 132 l 1032 153 b 1017 94 1031 131 1026 112 z m 169 11 b 119 35 151 17 134 25 b 82 74 105 46 92 59 l 1006 74 b 917 11 983 43 954 22 z m 56 176 l 56 231 l 1032 231 l 1032 176 z m 56 258 l 56 310 l 343 310 l 343 258 z m 744 258 l 744 310 l 1032 310 l 1032 258 z m 56 342 l 56 388 l 343 388 l 343 342 z m 744 342 l 744 388 l 1032 388 l 1032 342 z m 56 424 l 56 467 l 343 467 l 343 424 z m 744 424 l 744 467 l 1032 467 l 1032 424 z m 56 506 l 56 544 l 343 544 l 343 506 z m 744 506 l 744 544 l 1032 544 l 1032 506 z m 56 589 l 56 622 l 343 622 l 343 589 z m 744 589 l 744 622 l 1032 622 l 1032 589 z m 56 671 l 56 701 l 343 701 l 343 671 z m 744 671 l 744 701 l 1032 701 l 1032 671 z m 56 753 l 56 779 l 343 779 l 343 753 z m 744 753 l 744 779 l 1032 779 l 1032 753 z m 56 836 l 56 858 l 343 858 l 343 836 z m 744 836 l 744 858 l 1032 858 l 1032 836 z m 343 926 l 343 918 l 56 918 l 56 926 z m 1032 926 l 1032 918 l 744 918 l 744 926 z "},"v":{"ha":1251,"x_min":0,"x_max":0,"o":"m 626 278 l 639 310 l 949 310 l 926 258 l 325 258 l 303 310 l 613 310 z m 360 176 l 336 231 l 914 231 l 890 176 z m 396 94 l 371 153 l 881 153 l 854 94 z m 432 11 l 406 74 l 846 74 l 818 11 z m 289 342 l 268 388 l 579 388 l 599 342 z m 653 342 l 672 388 l 982 388 l 963 342 z m 253 424 l 233 467 l 546 467 l 564 424 z m 688 424 l 706 467 l 1017 467 l 999 424 z m 217 506 l 200 544 l 513 544 l 529 506 z m 722 506 l 738 544 l 1050 544 l 1033 506 z m 181 589 l 167 622 l 481 622 l 494 589 z m 757 589 l 771 622 l 1085 622 l 1069 589 z m 790 671 l 804 701 l 1118 701 l 1106 671 z m 146 671 l 132 701 l 446 701 l 460 671 z m 825 753 l 836 779 l 1153 779 l 1140 753 z m 110 753 l 99 779 l 414 779 l 425 753 z m 860 836 l 869 858 l 1188 858 l 1178 836 z m 74 836 l 64 858 l 379 858 l 389 836 z m 1217 926 l 1213 918 l 894 918 l 899 926 z m 35 926 l 351 926 l 354 918 l 38 918 z "},"w":{"ha":1656,"x_min":0,"x_max":0,"o":"m 828 268 l 824 258 l 328 258 l 306 310 l 1351 310 l 1329 258 l 832 258 z m 292 342 l 271 388 l 1385 388 l 1365 342 z m 867 176 l 843 231 l 1317 231 l 1293 176 z m 363 176 l 339 231 l 811 231 l 789 176 z m 903 94 l 878 153 l 1283 153 l 1257 94 z m 399 94 l 374 153 l 778 153 l 753 94 z m 583 424 l 601 467 l 1053 467 l 1071 424 z m 939 11 l 913 74 l 1249 74 l 1221 11 z m 435 11 l 408 74 l 744 74 l 717 11 z m 618 506 l 633 544 l 1021 544 l 1038 506 z m 1086 424 l 1104 467 l 1419 467 l 1401 424 z m 256 424 l 236 467 l 550 467 l 568 424 z m 1121 506 l 1138 544 l 1453 544 l 1436 506 z m 219 506 l 203 544 l 517 544 l 533 506 z m 651 589 l 665 622 l 988 622 l 1001 589 z m 1157 589 l 1171 622 l 1488 622 l 1472 589 z m 183 589 l 169 622 l 485 622 l 499 589 z m 1192 671 l 1206 701 l 1521 701 l 1508 671 z m 149 671 l 135 701 l 450 701 l 464 671 z m 654 671 l 640 701 l 954 701 l 967 671 z m 1228 753 l 1239 779 l 1556 779 l 1543 753 z m 113 753 l 101 779 l 417 779 l 428 753 z m 618 753 l 607 779 l 921 779 l 932 753 z m 1263 836 l 1272 858 l 1590 858 l 1581 836 z m 76 836 l 67 858 l 383 858 l 393 836 z m 582 836 l 572 858 l 888 858 l 897 836 z m 1297 918 l 1301 926 l 1619 926 l 1615 918 z m 543 926 l 860 926 l 863 918 l 546 918 z m 38 926 l 354 926 l 357 918 l 40 918 z "},"x":{"ha":1072,"x_min":0,"x_max":0,"o":"m 222 258 l 258 310 l 813 310 l 850 258 z m 282 342 l 315 388 l 756 388 l 789 342 z m 700 11 l 654 74 l 985 74 l 1029 11 z m 43 11 l 88 74 l 418 74 l 372 11 z m 526 701 l 536 688 l 546 701 l 875 701 l 853 671 l 218 671 l 196 701 z m 103 94 l 146 153 l 475 153 l 433 94 z m 639 94 l 597 153 l 926 153 l 969 94 z m 278 589 l 254 622 l 817 622 l 793 589 z m 163 176 l 201 231 l 532 231 l 493 176 z m 579 176 l 540 231 l 869 231 l 910 176 z m 338 506 l 310 544 l 761 544 l 732 506 z m 342 424 l 369 463 l 367 467 l 704 467 l 701 463 l 729 424 z m 160 753 l 140 779 l 469 779 l 489 753 z m 583 753 l 603 779 l 931 779 l 911 753 z m 644 836 l 660 858 l 988 858 l 972 836 z m 100 836 l 83 858 l 411 858 l 428 836 z m 703 918 l 710 926 l 1038 926 l 1031 918 z m 35 926 l 363 926 l 368 918 l 40 918 z "},"y":{"ha":1088,"x_min":0,"x_max":0,"o":"m 149 258 b 83 310 123 269 101 287 l 1003 310 b 938 258 987 288 965 270 z m 67 342 b 56 388 60 357 56 373 l 1031 388 b 1021 342 1029 369 1025 354 z m 56 424 l 56 467 l 1032 467 l 1032 424 z m 400 11 l 400 74 l 688 74 l 688 11 z m 400 94 l 400 153 l 688 153 l 688 94 z m 400 176 l 400 231 l 688 231 l 688 176 z m 56 506 l 56 544 l 343 544 l 343 506 z m 744 506 l 744 544 l 1032 544 l 1032 506 z m 56 589 l 56 622 l 343 622 l 343 589 z m 744 589 l 744 622 l 1032 622 l 1032 589 z m 56 671 l 56 701 l 343 701 l 343 671 z m 744 671 l 744 701 l 1032 701 l 1032 671 z m 56 753 l 56 779 l 343 779 l 343 753 z m 744 753 l 744 779 l 1032 779 l 1032 753 z m 56 836 l 56 858 l 343 858 l 343 836 z m 744 836 l 744 858 l 1032 858 l 1032 836 z m 56 918 l 56 926 l 343 926 l 343 918 z m 744 918 l 744 926 l 1032 926 l 1032 918 z "},"z":{"ha":1043,"x_min":0,"x_max":0,"o":"m 56 11 l 56 74 l 988 74 l 988 11 z m 56 94 l 56 153 l 988 153 l 988 94 z m 56 176 l 56 231 l 988 231 l 988 176 z m 56 676 l 56 701 l 950 701 b 941 689 947 697 944 693 b 932 678 938 685 935 681 l 924 671 l 519 671 l 519 676 z m 982 779 b 978 766 980 775 979 770 b 974 753 977 762 975 757 l 56 753 l 56 779 z m 56 836 l 56 858 l 988 858 l 988 836 z m 67 258 l 124 310 l 521 310 l 464 258 z m 158 342 l 210 388 l 608 388 l 557 342 z m 250 424 l 297 467 l 696 467 l 649 424 z m 340 506 l 383 544 l 783 544 l 739 506 z m 433 589 l 469 622 l 869 622 l 832 589 z m 988 926 l 988 918 l 56 918 l 56 926 z "},"{":{"ha":1185,"x_min":0,"x_max":0,"o":"m 1100 310 b 1035 258 1084 288 1063 270 l 153 258 l 153 310 z m 1128 388 b 1118 342 1126 369 1123 354 l 153 342 l 153 388 z m 153 424 l 153 467 l 1129 467 l 1129 424 z m 153 -71 l 153 -4 l 749 -4 l 699 -71 z m 153 -153 l 153 -83 l 690 -83 l 638 -153 z m 267 -647 l 404 -240 l 572 -240 z m 842 676 l 440 676 l 440 671 l 153 671 l 153 701 l 1129 701 l 1129 671 l 842 671 z m 1128 779 b 1129 765 1129 775 1129 771 l 1129 753 l 149 753 l 132 779 z m 1099 858 b 1106 847 1101 855 1104 851 b 1113 836 1109 844 1111 840 l 94 836 l 79 858 z m 153 11 l 153 74 l 440 74 l 440 11 z m 153 94 l 153 153 l 440 153 l 440 94 z m 153 176 l 153 231 l 440 231 l 440 176 z m 153 -167 l 153 -161 l 632 -161 l 575 -236 l 406 -236 l 429 -167 z m 153 506 l 153 544 l 440 544 l 440 506 z m 842 506 l 842 544 l 1129 544 l 1129 506 z m 842 589 l 842 622 l 1129 622 l 1129 589 z m 153 589 l 153 622 l 440 622 l 440 589 z m 35 926 l 943 926 b 1006 918 965 926 986 924 l 40 918 z "},"|":{"ha":1190,"x_min":0,"x_max":0,"o":"m 153 258 l 153 310 l 947 310 l 982 258 z m 153 -71 l 153 -4 l 750 -4 l 700 -71 z m 153 -153 l 153 -83 l 692 -83 l 639 -153 z m 153 342 l 153 388 l 896 388 l 926 342 z m 406 -240 l 574 -240 l 268 -647 z m 153 176 l 153 231 l 656 231 l 614 176 z m 153 94 l 153 153 l 596 153 l 551 94 z m 153 11 l 153 74 l 535 74 l 488 11 z m 831 11 l 789 74 l 1106 74 l 1147 11 z m 775 94 l 736 153 l 1053 153 l 1092 94 z m 719 176 l 683 231 l 1001 231 l 1038 176 z m 461 424 l 493 467 l 842 467 l 871 424 z m 407 -236 l 431 -167 l 153 -167 l 153 -161 l 633 -161 l 576 -236 z m 521 506 l 550 544 l 885 544 l 857 506 z m 153 424 l 153 467 l 440 467 l 440 424 z m 153 506 l 153 544 l 440 544 l 440 506 z m 582 589 l 607 622 l 939 622 l 915 589 z m 642 671 l 664 701 l 996 701 l 974 671 z m 153 589 l 153 622 l 440 622 l 440 589 z m 153 671 l 153 701 l 440 701 l 440 671 z m 701 753 l 721 779 l 1051 779 l 1032 753 z m 149 753 l 132 779 l 440 779 l 440 753 z m 94 836 l 79 858 l 440 858 l 440 836 z m 763 836 l 778 858 l 1107 858 l 1092 836 z m 35 926 l 440 926 l 440 918 l 40 918 z m 821 918 l 828 926 l 1156 926 l 1150 918 z "},"}":{"ha":1188,"x_min":0,"x_max":0,"o":"m 1094 310 b 1063 281 1085 299 1075 289 b 1024 258 1050 272 1038 265 l 153 258 l 153 310 z m 1128 388 b 1115 342 1126 371 1122 356 l 153 342 l 153 388 z m 153 424 l 153 467 l 1129 467 l 1129 424 z m 153 -71 l 153 -4 l 749 -4 l 699 -71 z m 153 -153 l 153 -83 l 690 -83 l 638 -153 z m 404 -240 l 572 -240 l 267 -647 z m 440 676 l 440 671 l 153 671 l 153 701 l 1129 701 l 1129 671 l 842 671 l 842 676 z m 1128 779 b 1129 765 1129 775 1129 771 l 1129 753 l 149 753 l 132 779 z m 1099 858 b 1106 847 1101 855 1104 851 b 1113 836 1109 844 1111 840 l 94 836 l 79 858 z m 850 11 l 789 74 l 1118 74 l 1176 11 z m 768 94 l 711 153 l 1043 153 l 1099 94 z m 688 176 l 635 231 l 969 231 l 1021 176 z m 153 11 l 153 74 l 440 74 l 440 11 z m 153 94 l 153 153 l 440 153 l 440 94 z m 153 176 l 153 231 l 440 231 l 440 176 z m 406 -236 l 429 -167 l 153 -167 l 153 -161 l 632 -161 l 575 -236 z m 153 506 l 153 544 l 440 544 l 440 506 z m 842 506 l 842 544 l 1129 544 l 1129 506 z m 153 589 l 153 622 l 440 622 l 440 589 z m 842 589 l 842 622 l 1129 622 l 1129 589 z m 35 926 l 943 926 b 1006 918 965 926 986 924 l 40 918 z "},"~":{"ha":1208,"x_min":0,"x_max":0,"o":"m 153 -71 l 153 -4 l 750 -4 l 700 -71 z m 153 -153 l 153 -83 l 692 -83 l 639 -153 z m 406 -240 l 574 -240 l 268 -647 z m 639 258 l 599 310 l 1153 310 l 1153 258 z m 856 426 l 865 426 l 865 467 l 1153 467 l 1153 424 l 508 424 l 475 467 l 824 467 z m 574 342 l 538 388 l 1153 388 l 1153 342 z m 703 176 l 660 231 l 1153 231 l 1153 176 z m 153 506 l 153 544 l 763 544 l 793 506 z m 767 94 l 721 153 l 1153 153 l 1153 94 z m 832 11 l 783 74 l 1153 74 l 1153 11 z m 153 589 l 153 622 l 701 622 l 728 589 z m 153 11 l 153 74 l 440 74 l 440 11 z m 153 94 l 153 153 l 440 153 l 440 94 z m 153 176 l 153 231 l 440 231 l 440 176 z m 431 -167 l 153 -167 l 153 -161 l 633 -161 l 576 -236 l 407 -236 z m 153 671 l 153 701 l 639 701 l 663 671 z m 153 258 l 153 310 l 440 310 l 440 258 z m 153 342 l 153 388 l 440 388 l 440 342 z m 153 424 l 153 467 l 440 467 l 440 424 z m 149 753 l 132 779 l 578 779 l 599 753 z m 865 506 l 865 544 l 1153 544 l 1153 506 z m 94 836 l 79 858 l 515 858 l 533 836 z m 865 589 l 865 622 l 1153 622 l 1153 589 z m 865 671 l 865 701 l 1153 701 l 1153 671 z m 865 753 l 865 779 l 1153 779 l 1153 753 z m 865 836 l 865 858 l 1153 858 l 1153 836 z m 35 926 l 463 926 l 468 918 l 40 918 z m 1153 926 l 1153 918 l 865 918 l 865 926 z "},"":{"ha":282,"x_min":0,"x_max":0,"o":""}," ":{"ha":407,"x_min":0,"x_max":0,"o":""},"¡":{"ha":399,"x_min":0,"x_max":0,"o":"m 56 11 l 56 74 l 343 74 l 343 11 z m 56 94 l 56 153 l 343 153 l 343 94 z m 56 176 l 56 231 l 343 231 l 343 176 z m 56 258 l 56 310 l 343 310 l 343 258 z m 56 342 l 56 388 l 343 388 l 343 342 z m 56 424 l 56 467 l 343 467 l 343 424 z m 56 506 l 56 544 l 343 544 l 343 506 z m 56 753 l 56 779 l 343 779 l 343 753 z m 56 676 l 56 701 l 343 701 l 343 676 z m 56 836 l 56 858 l 343 858 l 343 836 z m 343 926 l 343 918 l 56 918 l 56 926 z "},"¢":{"ha":985,"x_min":0,"x_max":0,"o":"m 88 176 b 61 231 75 191 67 209 l 929 231 l 929 176 z m 56 258 l 56 272 l 56 310 l 929 310 l 929 258 z m 242 111 b 171 122 217 111 193 115 b 113 153 149 128 129 139 l 929 153 l 929 111 l 682 111 l 682 94 l 394 94 l 394 111 z m 914 622 b 897 589 909 607 904 596 l 56 589 l 56 622 z m 929 701 b 927 686 928 697 928 692 b 925 671 927 681 926 675 l 56 671 b 63 701 56 679 59 689 z m 929 361 l 929 342 l 56 342 l 56 388 l 343 388 l 343 361 z m 90 753 b 119 779 98 761 107 770 l 929 779 l 929 753 z m 394 11 l 394 74 l 682 74 l 682 11 z m 56 424 l 56 467 l 343 467 l 343 424 z m 56 506 l 56 544 l 343 544 l 343 506 z m 394 836 l 394 858 l 682 858 l 682 836 z m 682 926 l 682 918 l 394 918 l 394 926 z "},"£":{"ha":1093,"x_min":0,"x_max":0,"o":"m 56 11 l 56 74 l 1038 74 l 1038 11 z m 56 94 l 56 153 l 1038 153 l 1038 94 z m 56 176 l 56 231 l 1038 231 l 1038 176 z m 56 342 l 56 388 l 889 388 l 889 342 z m 56 424 l 56 467 l 889 467 l 889 424 z m 56 506 l 56 544 l 889 544 l 889 506 z m 233 258 l 233 310 l 521 310 l 521 258 z m 781 779 b 778 766 780 775 779 770 b 776 753 778 762 777 757 l 233 753 l 233 765 l 233 779 z m 521 676 l 521 671 l 233 671 l 233 701 l 754 701 b 710 676 742 685 727 676 z m 250 836 b 256 847 252 840 254 844 b 264 858 259 851 261 855 l 785 858 l 785 836 z m 233 589 l 233 622 l 521 622 l 521 589 z m 785 926 l 785 918 l 356 918 b 419 926 375 924 396 926 z "},"¤":{"ha":1072,"x_min":0,"x_max":0,"o":"m 940 153 b 936 148 938 151 937 149 b 933 143 935 147 934 145 l 968 94 l 103 94 l 138 142 b 129 153 136 144 133 147 z m 957 215 b 950 176 957 203 955 190 l 119 176 b 114 215 116 187 114 200 l 114 231 l 957 231 z m 708 288 l 708 310 l 957 310 l 957 258 l 114 258 l 114 310 l 363 310 l 363 288 z m 114 671 l 114 701 l 957 701 l 957 671 z m 935 779 b 942 766 938 775 940 770 b 949 753 945 762 947 757 l 121 753 b 135 779 125 763 130 772 z m 43 11 l 88 74 l 418 74 l 372 11 z m 700 11 l 654 74 l 983 74 l 1029 11 z m 424 842 l 647 842 l 660 858 l 988 858 l 972 836 l 100 836 l 83 858 l 411 858 z m 114 342 l 114 388 l 363 388 l 363 342 z m 708 342 l 708 388 l 957 388 l 957 342 z m 114 424 l 114 467 l 363 467 l 363 424 z m 708 424 l 708 467 l 957 467 l 957 424 z m 114 506 l 114 544 l 363 544 l 363 506 z m 708 506 l 708 544 l 957 544 l 957 506 z m 708 589 l 708 622 l 957 622 l 957 589 z m 114 589 l 114 622 l 363 622 l 363 589 z m 703 918 l 710 926 l 1038 926 l 1031 918 z m 35 926 l 363 926 l 368 918 l 40 918 z "},"¥":{"ha":1088,"x_min":0,"x_max":0,"o":"m 111 11 l 111 74 l 976 74 l 976 11 z m 400 -61 l 111 -61 l 111 -4 l 976 -4 l 976 -61 l 688 -61 l 688 -71 l 400 -71 z m 111 94 l 111 153 l 976 153 l 976 94 z m 111 258 l 111 310 l 976 310 l 976 258 z m 111 342 l 111 388 l 976 388 l 976 342 z m 111 424 l 111 467 l 976 467 l 976 424 z m 1008 622 b 978 589 999 609 989 598 l 108 589 b 79 622 97 598 88 609 z m 1032 701 b 1031 685 1032 696 1031 691 b 1028 671 1030 680 1029 675 l 60 671 b 56 701 57 680 56 690 z m 56 753 l 56 779 l 1032 779 l 1032 753 z m 400 -153 l 400 -83 l 688 -83 l 688 -153 z m 111 178 l 400 178 l 400 231 l 688 231 l 688 178 l 976 178 l 976 176 l 111 176 z m 688 544 l 688 506 l 400 506 l 400 544 z m 56 836 l 56 858 l 343 858 l 343 836 z m 744 836 l 744 858 l 1032 858 l 1032 836 z m 343 926 l 343 918 l 56 918 l 56 926 z m 1032 926 l 1032 918 l 744 918 l 744 926 z "},"¦":{"ha":399,"x_min":0,"x_max":0,"o":"m 56 -153 l 56 -83 l 343 -83 l 343 -153 z m 56 -71 l 56 -4 l 343 -4 l 343 -71 z m 56 11 l 56 74 l 343 74 l 343 11 z m 56 94 l 56 153 l 343 153 l 343 94 z m 56 176 l 56 231 l 343 231 l 343 176 z m 56 258 l 56 310 l 343 310 l 343 258 z m 56 342 l 56 388 l 343 388 l 343 342 z m 56 424 l 56 467 l 343 467 l 343 424 z m 56 506 l 56 544 l 343 544 l 343 506 z m 56 589 l 56 622 l 343 622 l 343 589 z m 56 671 l 56 701 l 343 701 l 343 671 z m 56 753 l 56 779 l 343 779 l 343 753 z m 56 836 l 56 858 l 343 858 l 343 836 z m 56 918 l 56 936 l 343 936 l 343 918 z m 56 1001 l 56 1015 l 343 1015 l 343 1001 z m 343 1085 l 343 1083 l 56 1083 l 56 1085 z "},"§":{"ha":1072,"x_min":0,"x_max":0,"o":"m 940 153 b 908 117 932 139 921 127 b 864 94 894 108 880 100 l 103 94 l 138 142 b 129 153 136 144 133 147 z m 957 215 b 950 176 957 201 955 188 l 119 176 b 114 215 116 187 114 200 l 114 231 l 957 231 z m 708 288 l 708 310 l 957 310 l 957 258 l 114 258 l 114 310 l 363 310 l 363 288 z m 114 671 l 114 701 l 957 701 l 957 671 z m 121 753 b 135 779 125 763 130 772 l 935 779 b 942 766 938 775 940 770 b 949 753 945 762 947 757 z m 43 11 l 88 74 l 418 74 l 372 11 z m 114 342 l 114 388 l 363 388 l 363 342 z m 708 342 l 708 388 l 957 388 l 957 342 z m 114 424 l 114 467 l 363 467 l 363 424 z m 708 424 l 708 467 l 957 467 l 957 424 z m 114 506 l 114 544 l 363 544 l 363 506 z m 708 506 l 708 544 l 957 544 l 957 506 z m 224 836 b 275 842 238 840 256 842 l 647 842 l 660 858 l 988 858 l 972 836 z m 708 589 l 708 622 l 957 622 l 957 589 z m 114 589 l 114 622 l 363 622 l 363 589 z m 703 918 l 710 926 l 1038 926 l 1031 918 z "},"¨":{"ha":756,"x_min":0,"x_max":0,"o":"m 700 1006 l 424 1006 l 424 1015 l 700 1015 z m 332 1006 l 56 1006 l 56 1015 l 332 1015 z m 56 1083 l 56 1093 l 332 1093 l 332 1083 z m 424 1083 l 424 1093 l 700 1093 l 700 1083 z m 424 1165 l 424 1172 l 700 1172 l 700 1165 z m 56 1165 l 56 1172 l 332 1172 l 332 1165 z "},"©":{"ha":425,"x_min":0,"x_max":0,"o":"m 214 754 b 143 779 181 754 158 763 l 276 779 b 214 754 261 763 240 754 z m 267 936 l 275 928 b 282 918 278 925 280 922 l 138 918 b 154 936 141 925 147 931 z m 136 700 b 133 701 135 700 134 700 l 290 701 b 264 692 279 698 270 695 b 247 687 257 690 252 688 b 233 684 243 685 238 684 b 214 683 229 684 222 683 b 136 700 184 683 158 689 z m 129 1001 b 168 1015 138 1006 151 1011 l 256 1015 b 288 1001 267 1011 277 1006 z m 358 768 b 353 760 356 765 355 763 b 349 753 352 757 350 755 l 292 753 b 304 765 296 756 300 761 l 315 779 l 364 779 l 361 774 z m 67 768 b 60 779 63 771 61 775 l 108 779 b 129 753 113 768 120 759 l 78 753 b 72 760 76 755 74 757 z m 165 851 l 165 836 l 121 836 l 121 851 l 121 858 l 165 858 z m 382 851 b 381 836 382 844 381 839 l 339 836 b 340 844 339 839 339 841 b 340 851 340 846 340 849 l 340 858 l 382 858 z m 43 836 l 43 851 l 43 858 l 83 858 l 83 851 b 85 836 83 845 84 840 z m 54 918 b 58 926 55 921 56 924 l 63 936 l 111 936 b 105 927 109 933 107 930 b 99 918 103 924 100 921 z m 356 935 b 365 918 358 931 362 925 l 322 918 b 315 927 320 921 318 924 b 308 936 313 930 310 933 l 356 936 b 357 933 356 935 357 934 l 358 932 z m 258 839 l 269 836 l 257 836 l 258 837 b 258 839 258 837 258 838 z "},"ª":{"ha":1185,"x_min":0,"x_max":0,"o":"m 1100 310 b 1035 258 1084 288 1063 270 l 153 258 l 153 310 z m 1128 388 b 1118 342 1126 369 1123 354 l 153 342 l 153 388 z m 153 424 l 153 467 l 1129 467 l 1129 424 z m 153 -71 l 153 -4 l 750 -4 l 700 -71 z m 153 -153 l 153 -83 l 692 -83 l 639 -153 z m 268 -647 l 406 -240 l 574 -240 z m 842 676 l 440 676 l 440 671 l 153 671 l 153 701 l 1129 701 l 1129 671 l 842 671 z m 1128 779 b 1129 765 1129 775 1129 771 l 1129 753 l 149 753 l 132 779 z m 1099 858 b 1106 847 1101 855 1104 851 b 1113 836 1109 844 1111 840 l 94 836 l 79 858 z m 153 11 l 153 74 l 440 74 l 440 11 z m 153 94 l 153 153 l 440 153 l 440 94 z m 153 176 l 153 231 l 440 231 l 440 176 z m 153 -167 l 153 -161 l 633 -161 l 576 -236 l 407 -236 l 431 -167 z m 153 506 l 153 544 l 440 544 l 440 506 z m 842 506 l 842 544 l 1129 544 l 1129 506 z m 842 589 l 842 622 l 1129 622 l 1129 589 z m 153 589 l 153 622 l 440 622 l 440 589 z m 35 926 l 943 926 b 1006 918 965 926 986 924 l 40 918 z "},"«":{"ha":653,"x_min":0,"x_max":0,"o":"m 56 258 l 56 310 l 294 310 l 294 258 z m 358 258 l 358 310 l 597 310 l 597 258 z m 56 342 l 56 388 l 294 388 l 294 342 z m 358 342 l 358 388 l 597 388 l 597 342 z m 183 176 l 56 225 l 56 231 l 294 231 l 294 176 z m 486 176 l 358 225 l 358 231 l 597 231 l 597 176 z m 294 517 l 265 506 l 56 506 l 56 544 l 294 544 z m 597 517 l 568 506 l 358 506 l 358 544 l 597 544 z m 56 589 l 56 622 l 294 622 l 294 589 z m 358 589 l 358 622 l 597 622 l 597 589 z m 358 701 l 597 701 l 597 671 l 358 671 z m 56 701 l 294 701 l 294 671 l 56 671 z m 56 424 l 56 467 l 165 467 l 156 463 l 257 424 z m 358 424 l 358 467 l 468 467 l 458 463 l 560 424 z m 192 753 l 261 779 l 294 779 l 294 753 z m 494 753 l 564 779 l 597 779 l 597 753 z m 597 135 l 549 153 l 597 153 z m 294 135 l 246 153 l 294 153 z "},"¬":{"ha":656,"x_min":0,"x_max":0,"o":"m 56 342 l 56 388 l 600 388 l 600 342 z m 56 424 l 56 467 l 600 467 l 600 424 z m 56 506 l 56 544 l 600 544 l 600 506 z m 350 258 l 350 310 l 600 310 l 600 258 z m 600 190 l 350 190 l 350 231 l 600 231 z "},"­":{"ha":519,"x_min":0,"x_max":0,"o":"m 56 342 l 56 388 l 464 388 l 464 342 z m 56 424 l 56 467 l 464 467 l 464 424 z m 56 506 l 56 544 l 464 544 l 464 506 z "},"®":{"ha":431,"x_min":0,"x_max":0,"o":"m 282 858 b 257 836 275 847 267 840 l 139 836 l 139 858 z m 304 701 b 300 699 302 700 301 699 b 265 683 282 691 271 686 b 238 678 259 679 250 678 l 217 678 b 129 701 188 678 159 686 z m 372 779 b 365 764 371 774 369 769 l 365 767 b 362 759 363 764 362 761 b 358 753 361 757 360 755 l 251 753 l 239 779 l 288 779 l 301 756 b 315 768 307 760 311 764 b 324 779 318 772 321 775 z m 256 936 l 264 932 l 261 933 b 271 931 266 932 269 931 l 274 929 l 269 929 b 278 918 273 924 276 920 l 139 918 l 139 936 z m 253 1015 b 290 1001 269 1011 281 1006 l 135 1001 b 169 1015 146 1008 157 1013 z m 76 753 b 69 764 73 756 70 759 b 60 779 67 767 63 772 l 107 779 b 117 766 110 775 113 770 b 129 753 120 762 125 757 z m 139 753 l 139 779 l 182 779 l 182 753 z m 43 836 l 43 849 l 43 858 l 86 858 l 86 851 l 88 846 b 90 836 88 843 88 840 z m 386 858 b 387 853 386 856 386 855 b 388 849 387 852 388 850 l 388 836 l 344 836 b 346 839 345 837 346 838 b 347 843 346 840 346 841 l 349 849 l 347 858 z m 58 918 l 67 935 l 67 936 l 115 936 b 109 927 113 933 111 930 b 103 918 107 924 105 921 z m 360 936 l 365 926 b 369 918 366 924 368 921 l 328 918 b 322 927 326 921 324 924 b 315 936 319 930 317 933 z "},"¯":{"ha":783,"x_min":0,"x_max":0,"o":"m 56 753 l 56 779 l 728 779 l 728 753 z m 56 676 l 56 701 l 728 701 l 728 676 z m 56 836 l 56 858 l 728 858 l 728 836 z m 56 918 l 56 926 l 728 926 l 728 918 z "},"°":{"ha":388,"x_min":0,"x_max":0,"o":"m 56 1006 l 56 1015 l 332 1015 l 332 1006 z m 151 1089 l 235 1089 l 235 1093 l 332 1093 l 332 1083 l 56 1083 l 56 1093 l 151 1093 z m 56 1165 l 56 1172 l 332 1172 l 332 1165 z "},"±":{"ha":656,"x_min":0,"x_max":0,"o":"m 56 11 l 56 74 l 600 74 l 600 11 z m 56 94 l 56 153 l 600 153 l 600 94 z m 56 176 l 56 231 l 600 231 l 600 176 z m 56 506 l 56 544 l 600 544 l 600 506 z m 56 589 l 56 622 l 600 622 l 600 589 z m 56 671 l 56 701 l 600 701 l 600 671 z m 203 342 l 203 388 l 453 388 l 453 342 z m 203 424 l 203 467 l 453 467 l 453 424 z m 203 753 l 203 779 l 453 779 l 453 753 z m 203 836 l 203 858 l 453 858 l 453 836 z "},"²":{"ha":578,"x_min":0,"x_max":0,"o":"m 56 589 l 56 622 l 522 622 l 522 589 z m 517 779 b 500 753 512 768 506 759 l 56 753 l 56 772 l 56 779 z m 522 693 l 522 671 l 56 671 l 56 701 l 207 701 l 207 693 z m 151 857 l 369 857 l 369 858 l 522 858 l 522 836 l 86 836 b 116 851 95 843 105 848 b 151 857 127 855 138 857 z m 56 918 l 56 936 l 522 936 l 522 918 z m 465 1015 b 478 1009 470 1013 474 1011 b 490 1001 483 1007 487 1004 l 56 1001 l 56 1015 z "},"³":{"ha":549,"x_min":0,"x_max":0,"o":"m 490 622 b 472 589 488 609 481 598 l 56 589 l 56 622 z m 56 671 l 56 692 l 340 692 l 340 701 l 493 701 l 493 671 z m 471 779 b 488 753 478 770 484 761 l 100 753 l 100 779 z m 340 856 l 340 858 l 493 858 b 489 836 493 850 492 843 l 100 836 l 100 856 z m 493 936 l 493 918 l 56 918 l 56 936 z m 432 1015 b 446 1009 437 1013 441 1011 b 460 1001 450 1007 455 1004 l 56 1001 l 56 1015 z "},"´":{"ha":343,"x_min":0,"x_max":0,"o":"m 65 1083 l 68 1093 l 343 1093 l 339 1083 z m 308 1006 l 36 1006 l 39 1015 l 313 1015 z m 96 1165 l 99 1172 l 374 1172 l 371 1165 z "},"µ":{"ha":1088,"x_min":0,"x_max":0,"o":"m 1006 74 b 917 11 983 43 954 22 l 56 11 l 56 74 z m 1032 153 b 1017 94 1031 131 1026 112 l 56 94 l 56 153 z m 56 176 l 56 231 l 1032 231 l 1032 176 z m 56 -153 l 56 -83 l 343 -83 l 343 -153 z m 56 -71 l 56 -4 l 343 -4 l 343 -71 z m 56 258 l 56 310 l 343 310 l 343 258 z m 744 258 l 744 310 l 1032 310 l 1032 258 z m 56 342 l 56 388 l 343 388 l 343 342 z m 744 342 l 744 388 l 1032 388 l 1032 342 z m 56 424 l 56 467 l 343 467 l 343 424 z m 744 424 l 744 467 l 1032 467 l 1032 424 z m 56 506 l 56 544 l 343 544 l 343 506 z m 744 506 l 744 544 l 1032 544 l 1032 506 z m 56 589 l 56 622 l 343 622 l 343 589 z m 744 589 l 744 622 l 1032 622 l 1032 589 z m 56 671 l 56 701 l 343 701 l 343 671 z m 744 671 l 744 701 l 1032 701 l 1032 671 z m 56 753 l 56 779 l 343 779 l 343 753 z m 744 753 l 744 779 l 1032 779 l 1032 753 z m 744 836 l 744 858 l 1032 858 l 1032 836 z m 56 836 l 56 858 l 343 858 l 343 836 z m 343 926 l 343 918 l 56 918 l 56 926 z m 1032 926 l 1032 918 l 744 918 l 744 926 z "},"¶":{"ha":1243,"x_min":0,"x_max":0,"o":"m 1094 310 b 1063 281 1085 299 1075 289 b 1024 258 1050 272 1038 265 l 153 258 l 153 310 z m 1128 388 b 1115 342 1126 371 1122 356 l 153 342 l 153 388 z m 153 424 l 153 467 l 1129 467 l 1129 424 z m 1082 -240 l 1219 -647 l 914 -240 z m 849 -153 l 796 -83 l 1257 -83 l 1321 -153 z m 786 -71 l 736 -4 l 1183 -4 l 1244 -71 z m 440 676 l 440 671 l 153 671 l 153 701 l 1129 701 l 1129 671 l 842 671 l 842 676 z m 1128 779 b 1129 765 1129 775 1129 771 l 1129 753 l 149 753 l 132 779 z m 1099 858 b 1106 847 1101 855 1104 851 b 1113 836 1109 844 1111 840 l 94 836 l 79 858 z m 849 11 l 788 74 l 1113 74 l 1169 11 z m 767 94 l 710 153 l 1040 153 l 1094 94 z m 688 176 l 635 231 l 969 231 l 1019 176 z m 153 11 l 153 74 l 440 74 l 440 11 z m 153 94 l 153 153 l 440 153 l 440 94 z m 153 176 l 153 231 l 440 231 l 440 176 z m 1328 -161 l 1333 -167 l 1057 -167 l 1081 -236 l 911 -236 l 854 -161 z m 153 506 l 153 544 l 440 544 l 440 506 z m 842 506 l 842 544 l 1129 544 l 1129 506 z m 842 589 l 842 622 l 1129 622 l 1129 589 z m 153 589 l 153 622 l 440 622 l 440 589 z m 35 926 l 943 926 b 1006 918 965 926 986 924 l 40 918 z "},"·":{"ha":399,"x_min":0,"x_max":0,"o":"m 56 342 l 56 388 l 343 388 l 343 342 z m 56 424 l 56 467 l 343 467 l 343 424 z m 56 506 l 56 544 l 343 544 l 343 506 z "},"¸":{"ha":310,"x_min":0,"x_max":0,"o":"m 32 -71 l 54 -4 l 250 -4 l 200 -71 z m -25 -240 l 74 -240 l -106 -479 z m 4 -153 l 28 -83 l 192 -83 l 139 -153 z m -24 -236 l 1 -161 l 133 -161 l 76 -236 z "},"¹":{"ha":364,"x_min":0,"x_max":0,"o":"m 156 589 l 156 622 l 308 622 l 308 589 z m 156 671 l 156 701 l 308 701 l 308 671 z m 56 918 l 56 936 l 308 936 l 308 918 z m 156 753 l 156 779 l 308 779 l 308 753 z m 56 1001 l 56 1015 l 308 1015 l 308 1001 z m 156 836 l 156 858 l 308 858 l 308 836 z "},"º":{"ha":600,"x_min":0,"x_max":0,"o":"m 76 589 b 58 622 67 598 61 609 l 542 622 b 524 589 537 607 531 596 z m 208 694 l 390 694 l 390 701 l 544 701 l 544 671 l 56 671 l 56 701 l 208 701 z m 56 918 l 56 936 l 544 936 l 544 918 z m 488 1015 b 513 1001 499 1011 507 1006 l 86 1001 b 111 1015 92 1006 100 1011 z m 390 753 l 390 779 l 544 779 l 544 753 z m 56 753 l 56 779 l 208 779 l 208 753 z m 390 836 l 390 858 l 544 858 l 544 836 z m 56 836 l 56 858 l 208 858 l 208 836 z "},"»":{"ha":653,"x_min":0,"x_max":0,"o":"m 56 258 l 56 310 l 294 310 l 294 258 z m 358 258 l 358 310 l 597 310 l 597 258 z m 56 342 l 56 388 l 294 388 l 294 342 z m 358 342 l 358 388 l 597 388 l 597 342 z m 294 225 l 165 176 l 56 176 l 56 231 l 294 231 z m 597 225 l 468 176 l 358 176 l 358 231 l 597 231 z m 56 517 l 56 544 l 294 544 l 294 506 l 83 506 z m 358 517 l 358 544 l 597 544 l 597 506 l 386 506 z m 56 589 l 56 622 l 294 622 l 294 589 z m 358 589 l 358 622 l 597 622 l 597 589 z m 597 701 l 597 671 l 358 671 l 358 701 z m 294 701 l 294 671 l 56 671 l 56 701 z m 394 424 l 497 463 l 486 467 l 597 467 l 597 424 z m 92 424 l 194 463 l 183 467 l 294 467 l 294 424 z m 56 753 l 56 779 l 89 779 l 158 753 z m 358 753 l 358 779 l 392 779 l 461 753 z m 358 135 l 358 153 l 406 153 z m 56 135 l 56 153 l 103 153 z "},"¼":{"ha":1281,"x_min":0,"x_max":0,"o":"m 739 176 b 736 201 737 186 736 194 l 736 231 l 1225 231 l 1225 176 z m 1071 94 l 1071 115 l 833 115 b 750 153 795 115 768 128 l 1225 153 l 1225 94 z m 183 11 l 211 74 l 497 74 l 469 11 z m 219 94 l 244 153 l 531 153 l 506 94 z m 256 176 l 279 231 l 565 231 l 542 176 z m 290 258 l 313 310 l 599 310 l 576 258 z m 326 342 l 346 388 l 632 388 l 613 342 z m 361 424 l 381 467 l 667 467 l 647 424 z m 397 506 l 414 544 l 700 544 l 683 506 z m 1071 11 l 1071 74 l 1225 74 l 1225 11 z m 432 589 l 447 622 l 733 622 l 719 589 z m 468 671 l 481 701 l 768 701 l 754 671 z m 1071 258 l 1071 310 l 1225 310 l 1225 258 z m 736 258 l 736 310 l 889 310 l 889 258 z m 503 753 l 514 779 l 801 779 l 790 753 z m 1071 342 l 1071 388 l 1225 388 l 1225 342 z m 736 342 l 736 388 l 889 388 l 889 342 z m 539 836 l 549 858 l 836 858 l 826 836 z m 1071 424 l 1071 463 l 1225 463 l 1225 424 z m 156 506 l 156 544 l 308 544 l 308 506 z m 736 424 l 736 463 l 889 463 l 889 424 z m 56 836 l 56 858 l 308 858 l 308 836 z m 156 589 l 156 622 l 308 622 l 308 589 z m 156 671 l 156 701 l 308 701 l 308 671 z m 156 753 l 156 779 l 308 779 l 308 753 z m 574 918 l 578 926 l 865 926 l 861 918 z m 56 926 l 308 926 l 308 918 l 56 918 z m 308 464 l 156 464 l 156 467 l 308 467 z "},"½":{"ha":1258,"x_min":0,"x_max":0,"o":"m 736 11 l 736 74 l 1203 74 l 1203 11 z m 1200 231 b 1157 176 1194 206 1180 188 l 736 176 l 736 213 l 736 221 b 738 231 736 225 737 228 z m 1203 378 l 1203 342 l 736 342 l 736 388 l 1201 388 b 1203 378 1202 385 1203 381 z m 1203 133 l 1203 94 l 736 94 l 736 153 l 888 153 l 888 133 z m 832 297 l 1050 297 l 1050 310 l 1203 310 l 1203 258 l 750 258 b 784 287 758 270 770 280 b 832 297 798 294 814 297 z m 183 11 l 211 74 l 497 74 l 469 11 z m 1106 463 b 1153 453 1122 463 1138 459 b 1189 424 1168 446 1180 437 l 736 424 l 736 463 z m 219 94 l 244 153 l 531 153 l 506 94 z m 256 176 l 279 231 l 565 231 l 542 176 z m 290 258 l 313 310 l 599 310 l 576 258 z m 326 342 l 346 388 l 632 388 l 613 342 z m 361 424 l 381 467 l 667 467 l 647 424 z m 397 506 l 414 544 l 700 544 l 683 506 z m 432 589 l 447 622 l 733 622 l 719 589 z m 468 671 l 481 701 l 768 701 l 754 671 z m 503 753 l 514 779 l 801 779 l 790 753 z m 539 836 l 549 858 l 836 858 l 826 836 z m 156 506 l 156 544 l 308 544 l 308 506 z m 56 836 l 56 858 l 308 858 l 308 836 z m 156 589 l 156 622 l 308 622 l 308 589 z m 156 671 l 156 701 l 308 701 l 308 671 z m 156 753 l 156 779 l 308 779 l 308 753 z m 865 926 l 861 918 l 574 918 l 578 926 z m 308 926 l 308 918 l 56 918 l 56 926 z m 308 464 l 156 464 l 156 467 l 308 467 z "},"¾":{"ha":1433,"x_min":0,"x_max":0,"o":"m 892 176 b 889 201 890 186 889 194 l 889 231 l 1378 231 l 1378 176 z m 1224 94 l 1224 115 l 986 115 b 903 153 948 115 920 128 l 1378 153 l 1378 94 z m 336 11 l 364 74 l 650 74 l 622 11 z m 493 544 b 481 506 492 530 488 517 l 56 506 l 56 544 z m 372 94 l 397 153 l 683 153 l 658 94 z m 408 176 l 432 231 l 718 231 l 694 176 z m 443 258 l 465 310 l 751 310 l 729 258 z m 479 342 l 499 388 l 785 388 l 765 342 z m 514 424 l 533 467 l 819 467 l 800 424 z m 460 701 b 456 699 458 700 456 699 b 482 671 465 691 474 682 l 100 671 l 100 701 z m 550 506 l 567 544 l 853 544 l 836 506 z m 492 858 b 492 850 492 856 492 853 b 493 842 493 847 493 844 l 493 836 l 56 836 l 56 858 z m 1224 11 l 1224 74 l 1378 74 l 1378 11 z m 585 589 l 600 622 l 886 622 l 872 589 z m 621 671 l 633 701 l 921 701 l 907 671 z m 1224 258 l 1224 310 l 1378 310 l 1378 258 z m 889 258 l 889 310 l 1042 310 l 1042 258 z m 656 753 l 667 779 l 954 779 l 943 753 z m 56 589 l 56 597 l 340 597 l 340 622 l 493 622 l 493 589 z m 1224 342 l 1224 388 l 1378 388 l 1378 342 z m 889 342 l 889 388 l 1042 388 l 1042 342 z m 692 836 l 701 858 l 989 858 l 979 836 z m 340 761 l 340 779 l 493 779 l 493 767 b 492 753 493 760 493 756 l 100 753 l 100 761 z m 1224 424 l 1224 463 l 1378 463 l 1378 424 z m 889 424 l 889 463 l 1042 463 l 1042 424 z m 56 918 l 56 926 l 396 926 b 439 918 412 926 426 924 z m 726 918 l 731 926 l 1018 926 l 1014 918 z m 422 467 b 408 464 418 465 413 464 l 396 464 l 56 464 l 56 467 z "},"¿":{"ha":1043,"x_min":0,"x_max":0,"o":"m 169 11 b 119 35 151 17 134 25 b 82 74 105 46 92 59 l 988 74 l 988 11 z m 69 94 b 56 153 60 113 56 132 l 988 153 l 988 94 z m 56 176 l 56 231 l 988 231 l 988 176 z m 892 467 b 876 424 889 451 884 437 l 56 424 l 56 428 b 60 467 56 441 57 454 z m 847 388 b 746 342 819 363 786 347 l 56 342 l 56 388 z m 75 506 b 90 526 80 513 85 520 b 108 544 96 533 102 539 l 896 544 l 896 506 z m 56 258 l 56 310 l 343 310 l 343 258 z m 608 753 l 608 779 l 896 779 l 896 753 z m 896 676 l 608 676 l 608 701 l 896 701 z m 608 836 l 608 858 l 896 858 l 896 836 z m 608 918 l 608 926 l 896 926 l 896 918 z "},"À":{"ha":1263,"x_min":0,"x_max":0,"o":"m 111 176 l 135 231 l 1126 231 l 1150 176 z m 146 258 l 168 310 l 1093 310 l 1115 258 z m 407 131 l 392 94 l 75 94 l 100 153 l 1161 153 l 1186 94 l 869 94 l 854 131 z m 3 -71 l 32 -4 l 653 -4 l 603 -71 z m -32 -153 l -1 -83 l 594 -83 l 542 -153 z m 747 382 l 744 388 l 1058 388 l 1079 342 l 182 342 l 203 388 l 515 388 l 514 382 z m 171 -647 l 308 -240 l 476 -240 z m 904 11 l 878 74 l 1196 74 l 1222 11 z m 39 11 l 67 74 l 383 74 l 357 11 z m 325 671 l 338 701 l 922 701 l 936 671 z m -37 -167 l -35 -161 l 536 -161 l 479 -236 l 310 -236 l 333 -167 z m 354 753 l 338 779 l 889 779 l 900 753 z m 218 424 l 236 467 l 550 467 l 531 424 z m 729 424 l 711 467 l 1024 467 l 1043 424 z m 300 836 l 285 858 l 854 858 l 864 836 z m 253 506 l 269 544 l 583 544 l 567 506 z m 694 506 l 679 544 l 990 544 l 1007 506 z m 289 589 l 304 622 l 617 622 l 603 589 z m 660 589 l 646 622 l 957 622 l 971 589 z m 240 926 l 825 926 l 828 918 l 246 918 z m 460 1083 l 456 1093 l 729 1093 l 732 1083 z m 763 1006 l 490 1006 l 486 1015 l 758 1015 z m 426 1165 l 424 1172 l 699 1172 l 701 1165 z "},"Á":{"ha":1263,"x_min":0,"x_max":0,"o":"m 111 176 l 135 231 l 1126 231 l 1150 176 z m 146 258 l 168 310 l 1093 310 l 1115 258 z m 407 131 l 392 94 l 75 94 l 100 153 l 1161 153 l 1186 94 l 869 94 l 854 131 z m 3 -71 l 32 -4 l 653 -4 l 603 -71 z m -32 -153 l -1 -83 l 594 -83 l 542 -153 z m 747 382 l 744 388 l 1058 388 l 1079 342 l 182 342 l 203 388 l 515 388 l 514 382 z m 171 -647 l 308 -240 l 476 -240 z m 904 11 l 878 74 l 1196 74 l 1222 11 z m 39 11 l 67 74 l 383 74 l 357 11 z m 325 671 l 338 701 l 922 701 l 936 671 z m -37 -167 l -35 -161 l 536 -161 l 479 -236 l 310 -236 l 333 -167 z m 354 753 l 338 779 l 889 779 l 900 753 z m 218 424 l 236 467 l 550 467 l 531 424 z m 729 424 l 711 467 l 1024 467 l 1043 424 z m 300 836 l 285 858 l 854 858 l 864 836 z m 253 506 l 269 544 l 583 544 l 567 506 z m 694 506 l 679 544 l 990 544 l 1007 506 z m 289 589 l 304 622 l 617 622 l 603 589 z m 660 589 l 646 622 l 957 622 l 971 589 z m 240 926 l 825 926 l 828 918 l 246 918 z m 485 1083 l 488 1093 l 763 1093 l 758 1083 z m 728 1006 l 456 1006 l 458 1015 l 732 1015 z m 515 1165 l 518 1172 l 793 1172 l 790 1165 z "},"Â":{"ha":1263,"x_min":0,"x_max":0,"o":"m 111 176 l 135 231 l 1126 231 l 1150 176 z m 146 258 l 168 310 l 1093 310 l 1115 258 z m 407 131 l 392 94 l 75 94 l 100 153 l 1161 153 l 1186 94 l 869 94 l 854 131 z m 3 -71 l 32 -4 l 653 -4 l 603 -71 z m -32 -153 l -1 -83 l 594 -83 l 542 -153 z m 747 382 l 744 388 l 1058 388 l 1079 342 l 182 342 l 203 388 l 515 388 l 514 382 z m 171 -647 l 308 -240 l 476 -240 z m 904 11 l 878 74 l 1196 74 l 1222 11 z m 39 11 l 67 74 l 383 74 l 357 11 z m 325 671 l 338 701 l 922 701 l 936 671 z m -37 -167 l -35 -161 l 536 -161 l 479 -236 l 310 -236 l 333 -167 z m 354 753 l 338 779 l 889 779 l 900 753 z m 218 424 l 236 467 l 550 467 l 531 424 z m 729 424 l 711 467 l 1024 467 l 1043 424 z m 300 836 l 285 858 l 854 858 l 864 836 z m 253 506 l 269 544 l 583 544 l 567 506 z m 694 506 l 679 544 l 990 544 l 1007 506 z m 289 589 l 304 622 l 617 622 l 603 589 z m 660 589 l 646 622 l 957 622 l 971 589 z m 240 926 l 825 926 l 828 918 l 246 918 z m 342 1165 l 344 1172 l 875 1172 l 878 1165 z m 633 1083 l 629 1093 l 906 1093 l 908 1083 z m 664 1006 l 660 1015 l 935 1015 l 939 1006 z m 311 1083 l 314 1093 l 589 1093 l 586 1083 z m 557 1006 l 282 1006 l 285 1015 l 560 1015 z "},"Ã":{"ha":1263,"x_min":0,"x_max":0,"o":"m 111 176 l 135 231 l 1126 231 l 1150 176 z m 146 258 l 168 310 l 1093 310 l 1115 258 z m 407 131 l 392 94 l 75 94 l 100 153 l 1161 153 l 1186 94 l 869 94 l 854 131 z m 3 -71 l 32 -4 l 653 -4 l 603 -71 z m -32 -153 l -1 -83 l 594 -83 l 542 -153 z m 747 382 l 744 388 l 1058 388 l 1079 342 l 182 342 l 203 388 l 515 388 l 514 382 z m 171 -647 l 308 -240 l 476 -240 z m 904 11 l 878 74 l 1196 74 l 1222 11 z m 39 11 l 67 74 l 383 74 l 357 11 z m 325 671 l 338 701 l 922 701 l 936 671 z m -37 -167 l -35 -161 l 536 -161 l 479 -236 l 310 -236 l 333 -167 z m 354 753 l 338 779 l 889 779 l 900 753 z m 218 424 l 236 467 l 550 467 l 531 424 z m 729 424 l 711 467 l 1024 467 l 1043 424 z m 300 836 l 285 858 l 854 858 l 864 836 z m 253 506 l 269 544 l 583 544 l 567 506 z m 694 506 l 679 544 l 990 544 l 1007 506 z m 289 589 l 304 622 l 617 622 l 603 589 z m 660 589 l 646 622 l 957 622 l 971 589 z m 240 926 l 825 926 l 828 918 l 246 918 z m 488 1083 l 483 1093 l 939 1093 l 936 1083 z m 518 1006 l 514 1015 l 910 1015 l 907 1006 z m 283 1165 l 286 1172 l 731 1172 l 733 1165 z m 411 1006 l 224 1006 l 226 1015 l 414 1015 z m 253 1083 l 256 1093 l 443 1093 l 440 1083 z m 779 1165 l 782 1172 l 969 1172 l 967 1165 z "},"Ä":{"ha":1263,"x_min":0,"x_max":0,"o":"m 111 176 l 135 231 l 1126 231 l 1150 176 z m 146 258 l 168 310 l 1093 310 l 1115 258 z m 407 131 l 392 94 l 75 94 l 100 153 l 1161 153 l 1186 94 l 869 94 l 854 131 z m 3 -71 l 32 -4 l 653 -4 l 603 -71 z m -32 -153 l -1 -83 l 594 -83 l 542 -153 z m 747 382 l 744 388 l 1058 388 l 1079 342 l 182 342 l 203 388 l 515 388 l 514 382 z m 171 -647 l 308 -240 l 476 -240 z m 904 11 l 878 74 l 1196 74 l 1222 11 z m 39 11 l 67 74 l 383 74 l 357 11 z m 325 671 l 338 701 l 922 701 l 936 671 z m -37 -167 l -35 -161 l 536 -161 l 479 -236 l 310 -236 l 333 -167 z m 354 753 l 338 779 l 889 779 l 900 753 z m 218 424 l 236 467 l 550 467 l 531 424 z m 729 424 l 711 467 l 1024 467 l 1043 424 z m 300 836 l 285 858 l 854 858 l 864 836 z m 253 506 l 269 544 l 583 544 l 567 506 z m 694 506 l 679 544 l 990 544 l 1007 506 z m 289 589 l 304 622 l 617 622 l 603 589 z m 660 589 l 646 622 l 957 622 l 971 589 z m 240 926 l 825 926 l 828 918 l 246 918 z m 932 1006 l 656 1006 l 656 1015 l 932 1015 z m 656 1083 l 656 1093 l 932 1093 l 932 1083 z m 288 1083 l 288 1093 l 564 1093 l 564 1083 z m 564 1006 l 288 1006 l 288 1015 l 564 1015 z m 288 1165 l 288 1172 l 564 1172 l 564 1165 z m 656 1165 l 656 1172 l 932 1172 l 932 1165 z "},"Å":{"ha":1263,"x_min":0,"x_max":0,"o":"m 111 176 l 135 231 l 1126 231 l 1150 176 z m 146 258 l 168 310 l 1093 310 l 1115 258 z m 854 131 l 407 131 l 392 94 l 75 94 l 100 153 l 1161 153 l 1186 94 l 869 94 z m 3 -71 l 32 -4 l 653 -4 l 603 -71 z m -32 -153 l -1 -83 l 594 -83 l 542 -153 z m 747 382 l 744 388 l 1058 388 l 1079 342 l 182 342 l 203 388 l 515 388 l 514 382 z m 308 -240 l 476 -240 l 171 -647 z m 904 11 l 878 74 l 1196 74 l 1222 11 z m 39 11 l 67 74 l 383 74 l 357 11 z m 325 671 l 338 701 l 922 701 l 936 671 z m 333 -167 l -37 -167 l -35 -161 l 536 -161 l 479 -236 l 310 -236 z m 354 753 l 338 779 l 889 779 l 900 753 z m 218 424 l 236 467 l 550 467 l 531 424 z m 729 424 l 711 467 l 1024 467 l 1043 424 z m 300 836 l 285 858 l 854 858 l 864 836 z m 253 506 l 269 544 l 583 544 l 567 506 z m 694 506 l 679 544 l 990 544 l 1007 506 z m 289 589 l 304 622 l 617 622 l 603 589 z m 660 589 l 646 622 l 957 622 l 971 589 z m 240 926 l 825 926 l 828 918 l 246 918 z m 469 1006 l 469 1015 l 746 1015 l 746 1006 z m 565 1089 l 649 1089 l 649 1093 l 746 1093 l 746 1083 l 469 1083 l 469 1093 l 565 1093 z m 469 1165 l 469 1172 l 746 1172 l 746 1165 z "},"Æ":{"ha":1847,"x_min":0,"x_max":0,"o":"m 111 176 l 135 231 l 1792 231 l 1792 176 z m 854 131 l 407 131 l 392 94 l 75 94 l 100 153 l 1792 153 l 1792 94 l 869 94 z m 514 382 l 747 382 l 744 388 l 1707 388 l 1707 342 l 182 342 l 203 388 l 515 388 z m 904 11 l 878 74 l 1792 74 l 1792 11 z m 146 258 l 168 310 l 1206 310 l 1206 258 z m 729 424 l 711 467 l 1707 467 l 1707 424 z m 3 -71 l 32 -4 l 653 -4 l 603 -71 z m -32 -153 l -1 -83 l 594 -83 l 542 -153 z m 1761 701 b 1717 676 1749 685 1734 676 l 1206 676 l 1206 671 l 325 671 l 338 701 z m 694 506 l 679 544 l 1707 544 l 1707 506 z m 171 -647 l 308 -240 l 476 -240 z m 1788 779 b 1785 766 1787 775 1786 770 b 1783 753 1785 762 1784 757 l 918 753 l 918 779 z m 39 11 l 67 74 l 383 74 l 357 11 z m 918 836 l 918 858 l 1792 858 l 1792 836 z m 660 589 l 646 622 l 1206 622 l 1206 589 z m -37 -167 l -35 -161 l 536 -161 l 479 -236 l 310 -236 l 333 -167 z m 354 753 l 338 779 l 889 779 l 900 753 z m 218 424 l 236 467 l 550 467 l 531 424 z m 300 836 l 285 858 l 854 858 l 864 836 z m 253 506 l 269 544 l 583 544 l 567 506 z m 289 589 l 304 622 l 617 622 l 603 589 z m 918 918 l 918 926 l 1792 926 l 1792 918 z m 240 926 l 825 926 l 828 918 l 246 918 z "},"Ç":{"ha":985,"x_min":0,"x_max":0,"o":"m 169 11 b 119 35 151 17 134 25 b 82 74 105 46 92 59 l 929 74 l 929 11 z m 69 94 b 56 153 60 113 56 132 l 929 153 l 929 94 z m 56 176 l 56 231 l 929 231 l 929 176 z m 925 779 b 923 766 924 775 923 770 b 921 753 922 762 922 757 l 56 753 l 56 765 l 56 779 z m 343 676 l 343 671 l 56 671 l 56 701 l 899 701 b 854 676 887 685 872 676 z m 72 836 b 78 847 74 840 76 844 b 86 858 81 851 83 855 l 929 858 l 929 836 z m 56 258 l 56 310 l 343 310 l 343 258 z m 56 342 l 56 388 l 343 388 l 343 342 z m 56 424 l 56 467 l 343 467 l 343 424 z m 444 -71 l 467 -4 l 663 -4 l 613 -71 z m 307 -479 l 388 -240 l 486 -240 z m 56 506 l 56 544 l 343 544 l 343 506 z m 417 -153 l 440 -83 l 604 -83 l 551 -153 z m 56 589 l 56 622 l 343 622 l 343 589 z m 489 -236 l 389 -236 l 414 -161 l 546 -161 z m 929 926 l 929 918 l 178 918 b 242 926 197 924 219 926 z "},"È":{"ha":1082,"x_min":0,"x_max":0,"o":"m 153 11 l 153 74 l 1026 74 l 1026 11 z m 153 94 l 153 153 l 1026 153 l 1026 94 z m 153 176 l 153 231 l 1026 231 l 1026 176 z m 153 342 l 153 388 l 942 388 l 942 342 z m 153 424 l 153 467 l 942 467 l 942 424 z m 153 506 l 153 544 l 942 544 l 942 506 z m 1022 779 b 1020 766 1021 775 1021 770 b 1018 753 1020 762 1019 757 l 149 753 l 132 779 z m 440 676 l 440 671 l 153 671 l 153 701 l 996 701 b 951 676 984 685 969 676 z m 94 836 l 79 858 l 1026 858 l 1026 836 z m 153 258 l 153 310 l 440 310 l 440 258 z m 153 589 l 153 622 l 440 622 l 440 589 z m 1026 926 l 1026 918 l 40 918 l 35 926 z m 442 1083 l 438 1093 l 711 1093 l 714 1083 z m 472 1006 l 468 1015 l 740 1015 l 744 1006 z m 408 1165 l 406 1172 l 681 1172 l 683 1165 z "},"É":{"ha":1082,"x_min":0,"x_max":0,"o":"m 153 11 l 153 74 l 1026 74 l 1026 11 z m 153 94 l 153 153 l 1026 153 l 1026 94 z m 153 176 l 153 231 l 1026 231 l 1026 176 z m 153 342 l 153 388 l 942 388 l 942 342 z m 153 424 l 153 467 l 942 467 l 942 424 z m 153 506 l 153 544 l 942 544 l 942 506 z m 1022 779 b 1020 766 1021 775 1021 770 b 1018 753 1020 762 1019 757 l 149 753 l 132 779 z m 440 676 l 440 671 l 153 671 l 153 701 l 996 701 b 951 676 984 685 969 676 z m 94 836 l 79 858 l 1026 858 l 1026 836 z m 153 258 l 153 310 l 440 310 l 440 258 z m 153 589 l 153 622 l 440 622 l 440 589 z m 1026 926 l 1026 918 l 40 918 l 35 926 z m 465 1083 l 468 1093 l 743 1093 l 739 1083 z m 708 1006 l 436 1006 l 439 1015 l 713 1015 z m 496 1165 l 499 1172 l 774 1172 l 771 1165 z "},"Ê":{"ha":1082,"x_min":0,"x_max":0,"o":"m 153 11 l 153 74 l 1026 74 l 1026 11 z m 153 94 l 153 153 l 1026 153 l 1026 94 z m 153 176 l 153 231 l 1026 231 l 1026 176 z m 153 342 l 153 388 l 942 388 l 942 342 z m 153 424 l 153 467 l 942 467 l 942 424 z m 153 506 l 153 544 l 942 544 l 942 506 z m 1022 779 b 1020 766 1021 775 1021 770 b 1018 753 1020 762 1019 757 l 149 753 l 132 779 z m 996 701 b 951 676 984 685 969 676 l 440 676 l 440 671 l 153 671 l 153 701 z m 94 836 l 79 858 l 1026 858 l 1026 836 z m 153 258 l 153 310 l 440 310 l 440 258 z m 153 589 l 153 622 l 440 622 l 440 589 z m 35 926 l 1026 926 l 1026 918 l 40 918 z m 321 1165 l 324 1172 l 854 1172 l 857 1165 z m 613 1083 l 608 1093 l 885 1093 l 888 1083 z m 914 1015 l 918 1006 l 643 1006 l 639 1015 z m 290 1083 l 293 1093 l 568 1093 l 565 1083 z m 536 1006 l 261 1006 l 264 1015 l 539 1015 z "},"Ë":{"ha":1082,"x_min":0,"x_max":0,"o":"m 153 11 l 153 74 l 1026 74 l 1026 11 z m 153 94 l 153 153 l 1026 153 l 1026 94 z m 153 176 l 153 231 l 1026 231 l 1026 176 z m 153 342 l 153 388 l 942 388 l 942 342 z m 153 424 l 153 467 l 942 467 l 942 424 z m 153 506 l 153 544 l 942 544 l 942 506 z m 1022 779 b 1020 766 1021 775 1021 770 b 1018 753 1020 762 1019 757 l 149 753 l 132 779 z m 996 701 b 951 676 984 685 969 676 l 440 676 l 440 671 l 153 671 l 153 701 z m 94 836 l 79 858 l 1026 858 l 1026 836 z m 153 258 l 153 310 l 440 310 l 440 258 z m 153 589 l 153 622 l 440 622 l 440 589 z m 35 926 l 1026 926 l 1026 918 l 40 918 z m 543 1006 l 267 1006 l 267 1015 l 543 1015 z m 635 1083 l 635 1093 l 911 1093 l 911 1083 z m 911 1006 l 635 1006 l 635 1015 l 911 1015 z m 267 1083 l 267 1093 l 543 1093 l 543 1083 z m 267 1165 l 267 1172 l 543 1172 l 543 1165 z m 635 1165 l 635 1172 l 911 1172 l 911 1165 z "},"Ì":{"ha":497,"x_min":0,"x_max":0,"o":"m 153 11 l 153 74 l 440 74 l 440 11 z m 153 94 l 153 153 l 440 153 l 440 94 z m 153 176 l 153 231 l 440 231 l 440 176 z m 153 258 l 153 310 l 440 310 l 440 258 z m 153 342 l 153 388 l 440 388 l 440 342 z m 153 424 l 153 467 l 440 467 l 440 424 z m 153 506 l 153 544 l 440 544 l 440 506 z m 153 589 l 153 622 l 440 622 l 440 589 z m 153 671 l 153 701 l 440 701 l 440 671 z m 149 753 l 132 779 l 440 779 l 440 753 z m 94 836 l 79 858 l 440 858 l 440 836 z m 35 926 l 440 926 l 440 918 l 40 918 z m 147 1083 l 143 1093 l 417 1093 l 419 1083 z m 450 1006 l 178 1006 l 174 1015 l 446 1015 z m 114 1165 l 111 1172 l 386 1172 l 389 1165 z "},"Í":{"ha":497,"x_min":0,"x_max":0,"o":"m 153 11 l 153 74 l 440 74 l 440 11 z m 153 94 l 153 153 l 440 153 l 440 94 z m 153 176 l 153 231 l 440 231 l 440 176 z m 153 258 l 153 310 l 440 310 l 440 258 z m 153 342 l 153 388 l 440 388 l 440 342 z m 153 424 l 153 467 l 440 467 l 440 424 z m 153 506 l 153 544 l 440 544 l 440 506 z m 153 589 l 153 622 l 440 622 l 440 589 z m 153 671 l 153 701 l 440 701 l 440 671 z m 149 753 l 132 779 l 440 779 l 440 753 z m 94 836 l 79 858 l 440 858 l 440 836 z m 35 926 l 440 926 l 440 918 l 40 918 z m 172 1083 l 175 1093 l 450 1093 l 446 1083 z m 415 1006 l 143 1006 l 146 1015 l 419 1015 z m 203 1165 l 206 1172 l 481 1172 l 478 1165 z "},"Î":{"ha":497,"x_min":0,"x_max":0,"o":"m 153 11 l 153 74 l 440 74 l 440 11 z m 153 94 l 153 153 l 440 153 l 440 94 z m 153 176 l 153 231 l 440 231 l 440 176 z m 153 258 l 153 310 l 440 310 l 440 258 z m 153 342 l 153 388 l 440 388 l 440 342 z m 153 424 l 153 467 l 440 467 l 440 424 z m 153 506 l 153 544 l 440 544 l 440 506 z m 153 589 l 153 622 l 440 622 l 440 589 z m 153 671 l 153 701 l 440 701 l 440 671 z m 149 753 l 132 779 l 440 779 l 440 753 z m 94 836 l 79 858 l 440 858 l 440 836 z m 28 1165 l 31 1172 l 561 1172 l 564 1165 z m 440 926 l 440 918 l 40 918 l 35 926 z m 319 1083 l 315 1093 l 592 1093 l 594 1083 z m 350 1006 l 346 1015 l 621 1015 l 625 1006 z m -3 1083 l 0 1093 l 275 1093 l 272 1083 z m 243 1006 l -32 1006 l -28 1015 l 246 1015 z "},"Ï":{"ha":497,"x_min":0,"x_max":0,"o":"m 153 11 l 153 74 l 440 74 l 440 11 z m 153 94 l 153 153 l 440 153 l 440 94 z m 153 176 l 153 231 l 440 231 l 440 176 z m 153 258 l 153 310 l 440 310 l 440 258 z m 153 342 l 153 388 l 440 388 l 440 342 z m 153 424 l 153 467 l 440 467 l 440 424 z m 153 506 l 153 544 l 440 544 l 440 506 z m 153 589 l 153 622 l 440 622 l 440 589 z m 153 671 l 153 701 l 440 701 l 440 671 z m 149 753 l 132 779 l 440 779 l 440 753 z m 94 836 l 79 858 l 440 858 l 440 836 z m 440 926 l 440 918 l 40 918 l 35 926 z m 343 1083 l 343 1093 l 619 1093 l 619 1083 z m -25 1083 l -25 1093 l 251 1093 l 251 1083 z m 619 1006 l 343 1006 l 343 1015 l 619 1015 z m 251 1006 l -25 1006 l -25 1015 l 251 1015 z m -25 1165 l -25 1172 l 251 1172 l 251 1165 z m 343 1165 l 343 1172 l 619 1172 l 619 1165 z "},"Ð":{"ha":1206,"x_min":0,"x_max":0,"o":"m 1124 74 b 1036 11 1102 43 1073 22 l 174 11 l 174 74 z m 1150 153 b 1135 94 1149 131 1144 112 l 174 94 l 174 153 z m 174 176 l 174 231 l 1150 231 l 1150 176 z m 863 676 l 461 676 l 461 671 l 174 671 l 174 701 l 1150 701 l 1150 671 l 863 671 z m 1150 765 l 1150 753 l 169 753 l 153 779 l 1149 779 b 1150 765 1150 775 1150 771 z m 56 342 l 56 388 l 581 388 l 581 342 z m 1119 858 b 1127 847 1122 855 1125 851 b 1133 836 1129 844 1131 840 l 115 836 l 100 858 z m 56 424 l 56 467 l 581 467 l 581 424 z m 56 506 l 56 544 l 581 544 l 581 506 z m 174 258 l 174 310 l 461 310 l 461 258 z m 863 258 l 863 310 l 1150 310 l 1150 258 z m 863 342 l 863 388 l 1150 388 l 1150 342 z m 863 424 l 863 467 l 1150 467 l 1150 424 z m 863 506 l 863 544 l 1150 544 l 1150 506 z m 174 589 l 174 622 l 461 622 l 461 589 z m 863 589 l 863 622 l 1150 622 l 1150 589 z m 964 926 b 1026 918 986 926 1007 924 l 61 918 l 56 926 z "},"Ñ":{"ha":1208,"x_min":0,"x_max":0,"o":"m 639 258 l 599 310 l 1153 310 l 1153 258 z m 824 467 l 856 426 l 865 426 l 865 467 l 1153 467 l 1153 424 l 508 424 l 475 467 z m 574 342 l 538 388 l 1153 388 l 1153 342 z m 703 176 l 660 231 l 1153 231 l 1153 176 z m 153 506 l 153 544 l 763 544 l 793 506 z m 767 94 l 721 153 l 1153 153 l 1153 94 z m 832 11 l 783 74 l 1153 74 l 1153 11 z m 153 589 l 153 622 l 701 622 l 728 589 z m 153 11 l 153 74 l 440 74 l 440 11 z m 153 94 l 153 153 l 440 153 l 440 94 z m 153 176 l 153 231 l 440 231 l 440 176 z m 153 671 l 153 701 l 639 701 l 663 671 z m 153 258 l 153 310 l 440 310 l 440 258 z m 153 342 l 153 388 l 440 388 l 440 342 z m 153 424 l 153 467 l 440 467 l 440 424 z m 149 753 l 132 779 l 578 779 l 599 753 z m 865 506 l 865 544 l 1153 544 l 1153 506 z m 94 836 l 79 858 l 515 858 l 533 836 z m 865 589 l 865 622 l 1153 622 l 1153 589 z m 865 671 l 865 701 l 1153 701 l 1153 671 z m 865 753 l 865 779 l 1153 779 l 1153 753 z m 865 836 l 865 858 l 1153 858 l 1153 836 z m 529 1083 l 525 1093 l 981 1093 l 978 1083 z m 949 1006 l 560 1006 l 556 1015 l 951 1015 z m 35 926 l 463 926 l 468 918 l 40 918 z m 325 1165 l 328 1172 l 772 1172 l 775 1165 z m 865 918 l 865 926 l 1153 926 l 1153 918 z m 294 1083 l 297 1093 l 485 1093 l 482 1083 z m 453 1006 l 265 1006 l 268 1015 l 456 1015 z m 821 1165 l 824 1172 l 1011 1172 l 1008 1165 z "},"Ò":{"ha":1088,"x_min":0,"x_max":0,"o":"m 1032 153 b 1017 94 1031 131 1026 112 l 69 94 b 56 153 60 113 56 132 z m 1006 74 b 917 11 983 43 954 22 l 169 11 b 119 35 151 17 134 25 b 82 74 105 46 92 59 z m 56 176 l 56 231 l 1032 231 l 1032 176 z m 744 671 l 744 676 l 343 676 l 343 671 l 56 671 l 56 701 l 1032 701 l 1032 671 z m 1032 765 l 1032 753 l 56 753 l 56 765 l 56 779 l 1031 779 b 1032 765 1031 775 1032 771 z m 72 836 b 78 847 74 840 76 844 b 86 858 81 851 83 855 l 1001 858 b 1009 847 1004 855 1007 851 b 1015 836 1011 844 1013 840 z m 56 258 l 56 310 l 343 310 l 343 258 z m 744 258 l 744 310 l 1032 310 l 1032 258 z m 56 342 l 56 388 l 343 388 l 343 342 z m 744 342 l 744 388 l 1032 388 l 1032 342 z m 56 424 l 56 467 l 343 467 l 343 424 z m 744 424 l 744 467 l 1032 467 l 1032 424 z m 56 506 l 56 544 l 343 544 l 343 506 z m 744 506 l 744 544 l 1032 544 l 1032 506 z m 56 589 l 56 622 l 343 622 l 343 589 z m 744 589 l 744 622 l 1032 622 l 1032 589 z m 178 918 b 242 926 197 924 219 926 l 846 926 b 908 918 868 926 889 924 z m 394 1083 l 390 1093 l 664 1093 l 667 1083 z m 697 1006 l 425 1006 l 421 1015 l 693 1015 z m 361 1165 l 358 1172 l 633 1172 l 636 1165 z "},"Ó":{"ha":1088,"x_min":0,"x_max":0,"o":"m 1032 153 b 1017 94 1031 131 1026 112 l 69 94 b 56 153 60 113 56 132 z m 1006 74 b 917 11 983 43 954 22 l 169 11 b 119 35 151 17 134 25 b 82 74 105 46 92 59 z m 56 176 l 56 231 l 1032 231 l 1032 176 z m 744 671 l 744 676 l 343 676 l 343 671 l 56 671 l 56 701 l 1032 701 l 1032 671 z m 1032 765 l 1032 753 l 56 753 l 56 765 l 56 779 l 1031 779 b 1032 765 1031 775 1032 771 z m 72 836 b 78 847 74 840 76 844 b 86 858 81 851 83 855 l 1001 858 b 1009 847 1004 855 1007 851 b 1015 836 1011 844 1013 840 z m 56 258 l 56 310 l 343 310 l 343 258 z m 744 258 l 744 310 l 1032 310 l 1032 258 z m 56 342 l 56 388 l 343 388 l 343 342 z m 744 342 l 744 388 l 1032 388 l 1032 342 z m 56 424 l 56 467 l 343 467 l 343 424 z m 744 424 l 744 467 l 1032 467 l 1032 424 z m 56 506 l 56 544 l 343 544 l 343 506 z m 744 506 l 744 544 l 1032 544 l 1032 506 z m 56 589 l 56 622 l 343 622 l 343 589 z m 744 589 l 744 622 l 1032 622 l 1032 589 z m 178 918 b 242 926 197 924 219 926 l 846 926 b 908 918 868 926 889 924 z m 419 1083 l 422 1093 l 697 1093 l 693 1083 z m 663 1006 l 390 1006 l 393 1015 l 667 1015 z m 450 1165 l 453 1172 l 728 1172 l 725 1165 z "},"Ô":{"ha":1088,"x_min":0,"x_max":0,"o":"m 1032 153 b 1017 94 1031 131 1026 112 l 69 94 b 56 153 60 113 56 132 z m 1006 74 b 917 11 983 43 954 22 l 169 11 b 119 35 151 17 134 25 b 82 74 105 46 92 59 z m 56 176 l 56 231 l 1032 231 l 1032 176 z m 744 671 l 744 676 l 343 676 l 343 671 l 56 671 l 56 701 l 1032 701 l 1032 671 z m 1032 765 l 1032 753 l 56 753 l 56 765 l 56 779 l 1031 779 b 1032 765 1031 775 1032 771 z m 72 836 b 78 847 74 840 76 844 b 86 858 81 851 83 855 l 1001 858 b 1009 847 1004 855 1007 851 b 1015 836 1011 844 1013 840 z m 56 258 l 56 310 l 343 310 l 343 258 z m 744 258 l 744 310 l 1032 310 l 1032 258 z m 56 342 l 56 388 l 343 388 l 343 342 z m 744 342 l 744 388 l 1032 388 l 1032 342 z m 56 424 l 56 467 l 343 467 l 343 424 z m 744 424 l 744 467 l 1032 467 l 1032 424 z m 56 506 l 56 544 l 343 544 l 343 506 z m 744 506 l 744 544 l 1032 544 l 1032 506 z m 56 589 l 56 622 l 343 622 l 343 589 z m 744 589 l 744 622 l 1032 622 l 1032 589 z m 178 918 b 242 926 197 924 219 926 l 846 926 b 908 918 868 926 889 924 z m 275 1165 l 278 1172 l 808 1172 l 811 1165 z m 567 1083 l 563 1093 l 839 1093 l 842 1083 z m 868 1015 l 872 1006 l 597 1006 l 593 1015 z m 490 1006 l 215 1006 l 218 1015 l 493 1015 z m 244 1083 l 247 1093 l 522 1093 l 519 1083 z "},"Õ":{"ha":1088,"x_min":0,"x_max":0,"o":"m 69 94 b 56 153 60 113 56 132 l 1032 153 b 1017 94 1031 131 1026 112 z m 169 11 b 119 35 151 17 134 25 b 82 74 105 46 92 59 l 1006 74 b 917 11 983 43 954 22 z m 56 176 l 56 231 l 1032 231 l 1032 176 z m 343 676 l 343 671 l 56 671 l 56 701 l 1032 701 l 1032 671 l 744 671 l 744 676 z m 1032 765 l 1032 753 l 56 753 l 56 765 l 56 779 l 1031 779 b 1032 765 1031 775 1032 771 z m 1001 858 b 1009 847 1004 855 1007 851 b 1015 836 1011 844 1013 840 l 72 836 b 78 847 74 840 76 844 b 86 858 81 851 83 855 z m 56 258 l 56 310 l 343 310 l 343 258 z m 744 258 l 744 310 l 1032 310 l 1032 258 z m 56 342 l 56 388 l 343 388 l 343 342 z m 744 342 l 744 388 l 1032 388 l 1032 342 z m 56 424 l 56 467 l 343 467 l 343 424 z m 744 424 l 744 467 l 1032 467 l 1032 424 z m 744 506 l 744 544 l 1032 544 l 1032 506 z m 56 506 l 56 544 l 343 544 l 343 506 z m 744 589 l 744 622 l 1032 622 l 1032 589 z m 56 589 l 56 622 l 343 622 l 343 589 z m 846 926 b 908 918 868 926 889 924 l 178 918 b 242 926 197 924 219 926 z m 421 1083 l 417 1093 l 872 1093 l 869 1083 z m 451 1006 l 447 1015 l 843 1015 l 840 1006 z m 217 1165 l 219 1172 l 664 1172 l 667 1165 z m 344 1006 l 157 1006 l 160 1015 l 347 1015 z m 186 1083 l 189 1093 l 376 1093 l 374 1083 z m 713 1165 l 715 1172 l 903 1172 l 900 1165 z "},"Ö":{"ha":1088,"x_min":0,"x_max":0,"o":"m 1032 153 b 1017 94 1031 131 1026 112 l 69 94 b 56 153 60 113 56 132 z m 1006 74 b 917 11 983 43 954 22 l 169 11 b 119 35 151 17 134 25 b 82 74 105 46 92 59 z m 56 176 l 56 231 l 1032 231 l 1032 176 z m 744 671 l 744 676 l 343 676 l 343 671 l 56 671 l 56 701 l 1032 701 l 1032 671 z m 1032 765 l 1032 753 l 56 753 l 56 765 l 56 779 l 1031 779 b 1032 765 1031 775 1032 771 z m 72 836 b 78 847 74 840 76 844 b 86 858 81 851 83 855 l 1001 858 b 1009 847 1004 855 1007 851 b 1015 836 1011 844 1013 840 z m 56 258 l 56 310 l 343 310 l 343 258 z m 744 258 l 744 310 l 1032 310 l 1032 258 z m 56 342 l 56 388 l 343 388 l 343 342 z m 744 342 l 744 388 l 1032 388 l 1032 342 z m 56 424 l 56 467 l 343 467 l 343 424 z m 744 424 l 744 467 l 1032 467 l 1032 424 z m 56 506 l 56 544 l 343 544 l 343 506 z m 744 506 l 744 544 l 1032 544 l 1032 506 z m 56 589 l 56 622 l 343 622 l 343 589 z m 744 589 l 744 622 l 1032 622 l 1032 589 z m 178 918 b 242 926 197 924 219 926 l 846 926 b 908 918 868 926 889 924 z m 499 1006 l 222 1006 l 222 1015 l 499 1015 z m 222 1083 l 222 1093 l 499 1093 l 499 1083 z m 867 1006 l 590 1006 l 590 1015 l 867 1015 z m 590 1083 l 590 1093 l 867 1093 l 867 1083 z m 590 1165 l 590 1172 l 867 1172 l 867 1165 z m 222 1165 l 222 1172 l 499 1172 l 499 1165 z "},"×":{"ha":644,"x_min":0,"x_max":0,"o":"m 42 358 l 71 388 l 574 388 l 603 358 l 586 342 l 58 342 z m 322 286 l 294 258 l 142 258 l 90 310 l 554 310 l 503 258 l 350 258 z m 103 506 l 64 544 l 581 544 l 542 506 z m 146 463 l 142 467 l 503 467 l 499 463 l 538 424 l 107 424 z m 64 589 l 97 622 l 547 622 l 581 589 z m 146 671 l 176 701 l 260 701 l 290 671 z m 354 671 l 385 701 l 468 701 l 499 671 z m 218 182 l 169 231 l 267 231 z m 426 182 l 378 231 l 475 231 z "},"Ø":{"ha":1088,"x_min":0,"x_max":0,"o":"m 1032 153 b 1017 94 1031 131 1026 112 l 69 94 b 56 153 60 113 56 132 z m 1006 74 b 917 11 983 43 954 22 l 169 11 b 119 35 151 17 134 25 b 82 74 105 46 92 59 z m 56 176 l 56 231 l 1032 231 l 1032 176 z m 511 676 l 343 676 l 343 671 l 56 671 l 56 701 l 1032 701 l 1032 671 l 508 671 z m 56 258 l 56 310 l 604 310 l 581 258 z m 56 753 l 56 765 l 56 779 l 1031 779 b 1032 765 1031 775 1032 771 l 1032 753 z m 72 836 b 78 847 74 840 76 844 b 86 858 81 851 83 855 l 1001 858 b 1009 847 1004 855 1007 851 b 1015 836 1011 844 1013 840 z m 744 589 l 744 603 l 738 589 l 469 589 l 485 622 l 1032 622 l 1032 589 z m 744 258 l 744 310 l 1032 310 l 1032 258 z m 56 342 l 56 388 l 343 388 l 343 342 z m 744 342 l 744 388 l 1032 388 l 1032 342 z m 56 424 l 56 467 l 343 467 l 343 424 z m 744 424 l 744 467 l 1032 467 l 1032 424 z m 351 342 l 372 388 l 642 388 l 619 342 z m 390 424 l 411 467 l 679 467 l 658 424 z m 56 506 l 56 544 l 343 544 l 343 506 z m 744 506 l 744 544 l 1032 544 l 1032 506 z m 429 506 l 449 544 l 717 544 l 699 506 z m 56 589 l 56 622 l 343 622 l 343 589 z m 178 918 b 242 926 197 924 219 926 l 846 926 b 908 918 868 926 889 924 z "},"Ù":{"ha":1185,"x_min":0,"x_max":0,"o":"m 1129 153 b 1114 94 1128 131 1123 112 l 167 94 b 153 153 157 113 153 132 z m 1103 74 b 1014 11 1081 43 1051 22 l 267 11 b 217 35 248 17 231 25 b 179 74 202 46 189 59 z m 153 176 l 153 231 l 1129 231 l 1129 176 z m 153 258 l 153 310 l 440 310 l 440 258 z m 842 258 l 842 310 l 1129 310 l 1129 258 z m 153 342 l 153 388 l 440 388 l 440 342 z m 842 342 l 842 388 l 1129 388 l 1129 342 z m 153 424 l 153 467 l 440 467 l 440 424 z m 842 424 l 842 467 l 1129 467 l 1129 424 z m 153 506 l 153 544 l 440 544 l 440 506 z m 842 506 l 842 544 l 1129 544 l 1129 506 z m 153 589 l 153 622 l 440 622 l 440 589 z m 842 589 l 842 622 l 1129 622 l 1129 589 z m 842 671 l 842 701 l 1129 701 l 1129 671 z m 153 671 l 153 701 l 440 701 l 440 671 z m 149 753 l 132 779 l 440 779 l 440 753 z m 94 836 l 79 858 l 440 858 l 440 836 z m 842 753 l 842 779 l 1129 779 l 1129 753 z m 842 836 l 842 858 l 1129 858 l 1129 836 z m 35 926 l 440 926 l 440 918 l 40 918 z m 492 1083 l 488 1093 l 761 1093 l 764 1083 z m 794 1006 l 522 1006 l 518 1015 l 790 1015 z m 842 926 l 1129 926 l 1129 918 l 842 918 z m 458 1165 l 456 1172 l 731 1172 l 733 1165 z "},"Ú":{"ha":1185,"x_min":0,"x_max":0,"o":"m 1129 153 b 1114 94 1128 131 1123 112 l 167 94 b 153 153 157 113 153 132 z m 1103 74 b 1014 11 1081 43 1051 22 l 267 11 b 217 35 248 17 231 25 b 179 74 202 46 189 59 z m 153 176 l 153 231 l 1129 231 l 1129 176 z m 153 258 l 153 310 l 440 310 l 440 258 z m 842 258 l 842 310 l 1129 310 l 1129 258 z m 153 342 l 153 388 l 440 388 l 440 342 z m 842 342 l 842 388 l 1129 388 l 1129 342 z m 153 424 l 153 467 l 440 467 l 440 424 z m 842 424 l 842 467 l 1129 467 l 1129 424 z m 153 506 l 153 544 l 440 544 l 440 506 z m 842 506 l 842 544 l 1129 544 l 1129 506 z m 153 589 l 153 622 l 440 622 l 440 589 z m 842 589 l 842 622 l 1129 622 l 1129 589 z m 842 671 l 842 701 l 1129 701 l 1129 671 z m 153 671 l 153 701 l 440 701 l 440 671 z m 149 753 l 132 779 l 440 779 l 440 753 z m 94 836 l 79 858 l 440 858 l 440 836 z m 842 753 l 842 779 l 1129 779 l 1129 753 z m 842 836 l 842 858 l 1129 858 l 1129 836 z m 35 926 l 440 926 l 440 918 l 40 918 z m 517 1083 l 519 1093 l 794 1093 l 790 1083 z m 760 1006 l 488 1006 l 490 1015 l 764 1015 z m 842 926 l 1129 926 l 1129 918 l 842 918 z m 547 1165 l 550 1172 l 825 1172 l 822 1165 z "},"Û":{"ha":1185,"x_min":0,"x_max":0,"o":"m 1129 153 b 1114 94 1128 131 1123 112 l 167 94 b 153 153 157 113 153 132 z m 1103 74 b 1014 11 1081 43 1051 22 l 267 11 b 217 35 248 17 231 25 b 179 74 202 46 189 59 z m 153 176 l 153 231 l 1129 231 l 1129 176 z m 153 258 l 153 310 l 440 310 l 440 258 z m 842 258 l 842 310 l 1129 310 l 1129 258 z m 153 342 l 153 388 l 440 388 l 440 342 z m 842 342 l 842 388 l 1129 388 l 1129 342 z m 842 424 l 842 467 l 1129 467 l 1129 424 z m 153 424 l 153 467 l 440 467 l 440 424 z m 842 506 l 842 544 l 1129 544 l 1129 506 z m 153 506 l 153 544 l 440 544 l 440 506 z m 842 589 l 842 622 l 1129 622 l 1129 589 z m 153 589 l 153 622 l 440 622 l 440 589 z m 842 671 l 842 701 l 1129 701 l 1129 671 z m 153 671 l 153 701 l 440 701 l 440 671 z m 149 753 l 132 779 l 440 779 l 440 753 z m 94 836 l 79 858 l 440 858 l 440 836 z m 842 753 l 842 779 l 1129 779 l 1129 753 z m 842 836 l 842 858 l 1129 858 l 1129 836 z m 372 1165 l 375 1172 l 906 1172 l 908 1165 z m 35 926 l 440 926 l 440 918 l 40 918 z m 664 1083 l 660 1093 l 936 1093 l 939 1083 z m 965 1015 l 969 1006 l 694 1006 l 690 1015 z m 588 1006 l 313 1006 l 315 1015 l 590 1015 z m 342 1083 l 344 1093 l 619 1093 l 617 1083 z m 842 926 l 1129 926 l 1129 918 l 842 918 z "},"Ü":{"ha":1185,"x_min":0,"x_max":0,"o":"m 1129 153 b 1114 94 1128 131 1123 112 l 167 94 b 153 153 157 113 153 132 z m 1103 74 b 1014 11 1081 43 1051 22 l 267 11 b 217 35 248 17 231 25 b 179 74 202 46 189 59 z m 153 176 l 153 231 l 1129 231 l 1129 176 z m 153 258 l 153 310 l 440 310 l 440 258 z m 842 258 l 842 310 l 1129 310 l 1129 258 z m 842 342 l 842 388 l 1129 388 l 1129 342 z m 153 342 l 153 388 l 440 388 l 440 342 z m 842 424 l 842 467 l 1129 467 l 1129 424 z m 153 424 l 153 467 l 440 467 l 440 424 z m 842 506 l 842 544 l 1129 544 l 1129 506 z m 153 506 l 153 544 l 440 544 l 440 506 z m 153 589 l 153 622 l 440 622 l 440 589 z m 842 589 l 842 622 l 1129 622 l 1129 589 z m 842 671 l 842 701 l 1129 701 l 1129 671 z m 153 671 l 153 701 l 440 701 l 440 671 z m 149 753 l 132 779 l 440 779 l 440 753 z m 94 836 l 79 858 l 440 858 l 440 836 z m 842 753 l 842 779 l 1129 779 l 1129 753 z m 842 836 l 842 858 l 1129 858 l 1129 836 z m 35 926 l 440 926 l 440 918 l 40 918 z m 964 1006 l 688 1006 l 688 1015 l 964 1015 z m 319 1083 l 319 1093 l 596 1093 l 596 1083 z m 596 1006 l 319 1006 l 319 1015 l 596 1015 z m 688 1083 l 688 1093 l 964 1093 l 964 1083 z m 842 926 l 1129 926 l 1129 918 l 842 918 z m 319 1165 l 319 1172 l 596 1172 l 596 1165 z m 688 1165 l 688 1172 l 964 1172 l 964 1165 z "},"Ý":{"ha":1185,"x_min":0,"x_max":0,"o":"m 246 258 b 181 310 220 269 198 287 l 1100 310 b 1035 258 1084 288 1063 270 z m 164 342 b 153 388 157 357 154 373 l 1128 388 b 1118 342 1126 369 1123 354 z m 153 424 l 153 467 l 1129 467 l 1129 424 z m 496 -71 l 496 -4 l 1094 -4 l 1044 -71 z m 496 -153 l 496 -83 l 1036 -83 l 983 -153 z m 750 -240 l 918 -240 l 613 -647 z m 496 11 l 496 74 l 785 74 l 785 11 z m 496 94 l 496 153 l 785 153 l 785 94 z m 496 176 l 496 231 l 785 231 l 785 176 z m 751 -236 l 775 -167 l 496 -167 l 496 -161 l 978 -161 l 921 -236 z m 153 506 l 153 544 l 440 544 l 440 506 z m 842 506 l 842 544 l 1129 544 l 1129 506 z m 842 589 l 842 622 l 1129 622 l 1129 589 z m 153 589 l 153 622 l 440 622 l 440 589 z m 842 671 l 842 701 l 1129 701 l 1129 671 z m 153 671 l 153 701 l 440 701 l 440 671 z m 149 753 l 132 779 l 440 779 l 440 753 z m 94 836 l 79 858 l 440 858 l 440 836 z m 842 753 l 842 779 l 1129 779 l 1129 753 z m 842 836 l 842 858 l 1129 858 l 1129 836 z m 35 926 l 440 926 l 440 918 l 40 918 z m 517 1083 l 519 1093 l 794 1093 l 790 1083 z m 760 1006 l 488 1006 l 490 1015 l 764 1015 z m 842 918 l 842 926 l 1129 926 l 1129 918 z m 547 1165 l 550 1172 l 825 1172 l 822 1165 z "},"Þ":{"ha":1185,"x_min":0,"x_max":0,"o":"m 1119 231 b 1086 176 1112 209 1101 191 l 153 176 l 153 231 z m 1129 283 b 1128 271 1129 279 1129 275 b 1126 258 1128 267 1127 263 l 153 258 l 153 310 l 1129 310 z m 440 372 l 842 372 l 842 388 l 1129 388 l 1129 342 l 153 342 l 153 388 l 440 388 z m 440 122 l 440 94 l 153 94 l 153 153 l 1057 153 b 1004 130 1041 143 1024 135 b 943 122 985 125 964 122 z m 153 589 l 153 622 l 1129 622 l 1129 589 z m 1118 701 b 1122 686 1120 697 1121 692 b 1126 671 1123 681 1125 675 l 153 671 l 153 701 z m 1047 779 b 1067 767 1055 775 1061 771 l 1083 753 l 149 753 l 132 779 z m 153 11 l 153 74 l 440 74 l 440 11 z m 842 424 l 842 467 l 1129 467 l 1129 424 z m 153 424 l 153 467 l 440 467 l 440 424 z m 842 506 l 842 544 l 1129 544 l 1129 506 z m 153 506 l 153 544 l 440 544 l 440 506 z m 94 836 l 79 858 l 440 858 l 440 836 z m 440 926 l 440 918 l 40 918 l 35 926 z "},"ß":{"ha":1088,"x_min":0,"x_max":0,"o":"m 1032 153 b 1017 94 1031 131 1026 112 l 425 94 l 425 153 z m 1006 74 b 917 11 983 43 954 22 l 425 11 l 425 74 z m 425 176 l 425 231 l 1032 231 l 1032 176 z m 1021 388 b 1032 342 1027 372 1031 356 l 425 342 l 425 388 z m 343 676 l 343 671 l 56 671 l 56 701 l 982 701 l 982 671 l 694 671 l 694 676 z m 982 765 l 982 753 l 56 753 l 56 765 l 56 779 l 981 779 b 982 765 981 775 982 771 z m 946 467 b 1000 424 967 456 985 441 l 425 424 l 425 467 z m 981 544 b 971 506 979 529 975 516 l 425 506 l 425 544 z m 56 -153 l 56 -83 l 343 -83 l 343 -153 z m 951 858 b 959 847 954 855 957 851 b 965 836 961 844 963 840 l 72 836 b 78 847 74 840 76 844 b 86 858 81 851 83 855 z m 56 -71 l 56 -4 l 343 -4 l 343 -71 z m 56 11 l 56 74 l 343 74 l 343 11 z m 56 94 l 56 153 l 343 153 l 343 94 z m 56 176 l 56 231 l 343 231 l 343 176 z m 56 258 l 56 310 l 343 310 l 343 258 z m 744 258 l 744 310 l 1032 310 l 1032 258 z m 56 342 l 56 388 l 343 388 l 343 342 z m 56 424 l 56 467 l 343 467 l 343 424 z m 56 506 l 56 544 l 343 544 l 343 506 z m 982 592 l 982 589 l 694 589 l 694 622 l 982 622 z m 56 589 l 56 622 l 343 622 l 343 589 z m 796 926 b 858 918 818 926 839 924 l 178 918 b 242 926 197 924 219 926 z "},"à":{"ha":1263,"x_min":0,"x_max":0,"o":"m 111 176 l 135 231 l 1126 231 l 1150 176 z m 146 258 l 168 310 l 1093 310 l 1115 258 z m 407 131 l 392 94 l 75 94 l 100 153 l 1161 153 l 1186 94 l 869 94 l 854 131 z m 747 382 l 744 388 l 1058 388 l 1079 342 l 182 342 l 203 388 l 515 388 l 514 382 z m 904 11 l 878 74 l 1196 74 l 1222 11 z m 39 11 l 67 74 l 382 74 l 356 11 z m 325 671 l 338 701 l 922 701 l 936 671 z m 354 753 l 338 779 l 889 779 l 900 753 z m 218 424 l 236 467 l 550 467 l 531 424 z m 729 424 l 711 467 l 1024 467 l 1043 424 z m 300 836 l 285 858 l 854 858 l 864 836 z m 253 506 l 269 544 l 583 544 l 567 506 z m 694 506 l 679 544 l 990 544 l 1007 506 z m 289 589 l 304 622 l 617 622 l 603 589 z m 660 589 l 646 622 l 957 622 l 971 589 z m 240 926 l 825 926 l 828 918 l 246 918 z m 460 1083 l 456 1093 l 729 1093 l 732 1083 z m 763 1006 l 490 1006 l 486 1015 l 758 1015 z m 426 1165 l 424 1172 l 699 1172 l 701 1165 z "},"á":{"ha":1263,"x_min":0,"x_max":0,"o":"m 111 176 l 135 231 l 1126 231 l 1150 176 z m 146 258 l 168 310 l 1093 310 l 1115 258 z m 407 131 l 392 94 l 75 94 l 100 153 l 1161 153 l 1186 94 l 869 94 l 854 131 z m 747 382 l 744 388 l 1058 388 l 1079 342 l 182 342 l 203 388 l 515 388 l 514 382 z m 904 11 l 878 74 l 1196 74 l 1222 11 z m 39 11 l 67 74 l 382 74 l 356 11 z m 325 671 l 338 701 l 922 701 l 936 671 z m 354 753 l 338 779 l 889 779 l 900 753 z m 218 424 l 236 467 l 550 467 l 531 424 z m 729 424 l 711 467 l 1024 467 l 1043 424 z m 300 836 l 285 858 l 854 858 l 864 836 z m 253 506 l 269 544 l 583 544 l 567 506 z m 694 506 l 679 544 l 990 544 l 1007 506 z m 289 589 l 304 622 l 617 622 l 603 589 z m 660 589 l 646 622 l 957 622 l 971 589 z m 240 926 l 825 926 l 828 918 l 246 918 z m 485 1083 l 488 1093 l 763 1093 l 758 1083 z m 728 1006 l 456 1006 l 458 1015 l 732 1015 z m 515 1165 l 518 1172 l 793 1172 l 790 1165 z "},"â":{"ha":1263,"x_min":0,"x_max":0,"o":"m 111 176 l 135 231 l 1126 231 l 1150 176 z m 146 258 l 168 310 l 1093 310 l 1115 258 z m 854 131 l 407 131 l 392 94 l 75 94 l 100 153 l 1161 153 l 1186 94 l 869 94 z m 514 382 l 747 382 l 744 388 l 1058 388 l 1079 342 l 182 342 l 203 388 l 515 388 z m 904 11 l 878 74 l 1196 74 l 1222 11 z m 39 11 l 67 74 l 382 74 l 356 11 z m 325 671 l 338 701 l 922 701 l 936 671 z m 354 753 l 338 779 l 889 779 l 900 753 z m 218 424 l 236 467 l 550 467 l 531 424 z m 729 424 l 711 467 l 1024 467 l 1043 424 z m 300 836 l 285 858 l 854 858 l 864 836 z m 253 506 l 269 544 l 583 544 l 567 506 z m 694 506 l 679 544 l 990 544 l 1007 506 z m 289 589 l 304 622 l 617 622 l 603 589 z m 660 589 l 646 622 l 957 622 l 971 589 z m 240 926 l 825 926 l 828 918 l 246 918 z m 342 1165 l 344 1172 l 875 1172 l 878 1165 z m 633 1083 l 629 1093 l 906 1093 l 908 1083 z m 935 1015 l 939 1006 l 664 1006 l 660 1015 z m 311 1083 l 314 1093 l 589 1093 l 586 1083 z m 557 1006 l 282 1006 l 285 1015 l 560 1015 z "},"ã":{"ha":1263,"x_min":0,"x_max":0,"o":"m 111 176 l 135 231 l 1126 231 l 1150 176 z m 146 258 l 168 310 l 1093 310 l 1115 258 z m 407 131 l 392 94 l 75 94 l 100 153 l 1161 153 l 1186 94 l 869 94 l 854 131 z m 747 382 l 744 388 l 1058 388 l 1079 342 l 182 342 l 203 388 l 515 388 l 514 382 z m 904 11 l 878 74 l 1196 74 l 1222 11 z m 39 11 l 67 74 l 382 74 l 356 11 z m 325 671 l 338 701 l 922 701 l 936 671 z m 354 753 l 338 779 l 889 779 l 900 753 z m 218 424 l 236 467 l 550 467 l 531 424 z m 729 424 l 711 467 l 1024 467 l 1043 424 z m 300 836 l 285 858 l 854 858 l 864 836 z m 253 506 l 269 544 l 583 544 l 567 506 z m 694 506 l 679 544 l 990 544 l 1007 506 z m 289 589 l 304 622 l 617 622 l 603 589 z m 660 589 l 646 622 l 957 622 l 971 589 z m 240 926 l 825 926 l 828 918 l 246 918 z m 488 1083 l 483 1093 l 939 1093 l 936 1083 z m 518 1006 l 514 1015 l 910 1015 l 907 1006 z m 283 1165 l 286 1172 l 731 1172 l 733 1165 z m 411 1006 l 224 1006 l 226 1015 l 414 1015 z m 253 1083 l 256 1093 l 443 1093 l 440 1083 z m 779 1165 l 782 1172 l 969 1172 l 967 1165 z "},"ä":{"ha":1263,"x_min":0,"x_max":0,"o":"m 111 176 l 135 231 l 1126 231 l 1150 176 z m 146 258 l 168 310 l 1093 310 l 1115 258 z m 854 131 l 407 131 l 392 94 l 75 94 l 100 153 l 1161 153 l 1186 94 l 869 94 z m 514 382 l 747 382 l 744 388 l 1058 388 l 1079 342 l 182 342 l 203 388 l 515 388 z m 904 11 l 878 74 l 1196 74 l 1222 11 z m 39 11 l 67 74 l 382 74 l 356 11 z m 325 671 l 338 701 l 922 701 l 936 671 z m 354 753 l 338 779 l 889 779 l 900 753 z m 218 424 l 236 467 l 550 467 l 531 424 z m 729 424 l 711 467 l 1024 467 l 1043 424 z m 300 836 l 285 858 l 854 858 l 864 836 z m 253 506 l 269 544 l 583 544 l 567 506 z m 694 506 l 679 544 l 990 544 l 1007 506 z m 289 589 l 304 622 l 617 622 l 603 589 z m 660 589 l 646 622 l 957 622 l 971 589 z m 240 926 l 825 926 l 828 918 l 246 918 z m 288 1083 l 288 1093 l 564 1093 l 564 1083 z m 564 1006 l 288 1006 l 288 1015 l 564 1015 z m 656 1083 l 656 1093 l 932 1093 l 932 1083 z m 932 1006 l 656 1006 l 656 1015 l 932 1015 z m 288 1165 l 288 1172 l 564 1172 l 564 1165 z m 656 1165 l 656 1172 l 932 1172 l 932 1165 z "},"å":{"ha":1263,"x_min":0,"x_max":0,"o":"m 111 176 l 135 231 l 1126 231 l 1150 176 z m 146 258 l 168 310 l 1093 310 l 1115 258 z m 854 131 l 407 131 l 392 94 l 75 94 l 100 153 l 1161 153 l 1186 94 l 869 94 z m 747 382 l 744 388 l 1058 388 l 1079 342 l 182 342 l 203 388 l 515 388 l 514 382 z m 904 11 l 878 74 l 1196 74 l 1222 11 z m 39 11 l 67 74 l 382 74 l 356 11 z m 325 671 l 338 701 l 922 701 l 936 671 z m 354 753 l 338 779 l 889 779 l 900 753 z m 218 424 l 236 467 l 550 467 l 531 424 z m 729 424 l 711 467 l 1024 467 l 1043 424 z m 300 836 l 285 858 l 854 858 l 864 836 z m 253 506 l 269 544 l 583 544 l 567 506 z m 694 506 l 679 544 l 990 544 l 1007 506 z m 289 589 l 304 622 l 617 622 l 603 589 z m 660 589 l 646 622 l 957 622 l 971 589 z m 240 926 l 825 926 l 828 918 l 246 918 z m 469 1006 l 469 1015 l 746 1015 l 746 1006 z m 565 1089 l 649 1089 l 649 1093 l 746 1093 l 746 1083 l 469 1083 l 469 1093 l 565 1093 z m 469 1165 l 469 1172 l 746 1172 l 746 1165 z "},"æ":{"ha":1847,"x_min":0,"x_max":0,"o":"m 111 176 l 135 231 l 1792 231 l 1792 176 z m 407 131 l 392 94 l 75 94 l 100 153 l 1792 153 l 1792 94 l 869 94 l 854 131 z m 747 382 l 744 388 l 1707 388 l 1707 342 l 182 342 l 203 388 l 515 388 l 514 382 z m 904 11 l 878 74 l 1792 74 l 1792 11 z m 146 258 l 168 310 l 1206 310 l 1206 258 z m 729 424 l 711 467 l 1707 467 l 1707 424 z m 1206 676 l 1206 671 l 325 671 l 338 701 l 1761 701 b 1717 676 1749 685 1734 676 z m 694 506 l 679 544 l 1707 544 l 1707 506 z m 1788 779 b 1785 766 1787 775 1786 770 b 1783 753 1785 762 1784 757 l 918 753 l 918 779 z m 39 11 l 67 74 l 382 74 l 356 11 z m 918 836 l 918 858 l 1792 858 l 1792 836 z m 660 589 l 646 622 l 1206 622 l 1206 589 z m 354 753 l 338 779 l 889 779 l 900 753 z m 218 424 l 236 467 l 550 467 l 531 424 z m 300 836 l 285 858 l 854 858 l 864 836 z m 253 506 l 269 544 l 583 544 l 567 506 z m 289 589 l 304 622 l 617 622 l 603 589 z m 1792 926 l 1792 918 l 918 918 l 918 926 z m 240 926 l 825 926 l 828 918 l 246 918 z "},"ç":{"ha":985,"x_min":0,"x_max":0,"o":"m 169 11 b 119 35 151 17 134 25 b 82 74 105 46 92 59 l 929 74 l 929 11 z m 69 94 b 56 153 60 113 56 132 l 929 153 l 929 94 z m 56 176 l 56 231 l 929 231 l 929 176 z m 925 779 b 923 766 924 775 923 770 b 921 753 922 762 922 757 l 56 753 l 56 765 l 56 779 z m 343 676 l 343 671 l 56 671 l 56 701 l 899 701 b 854 676 887 685 872 676 z m 72 836 b 78 847 74 840 76 844 b 86 858 81 851 83 855 l 929 858 l 929 836 z m 56 258 l 56 310 l 343 310 l 343 258 z m 56 342 l 56 388 l 343 388 l 343 342 z m 56 424 l 56 467 l 343 467 l 343 424 z m 444 -71 l 467 -4 l 663 -4 l 613 -71 z m 307 -479 l 388 -240 l 486 -240 z m 56 506 l 56 544 l 343 544 l 343 506 z m 417 -153 l 440 -83 l 604 -83 l 551 -153 z m 56 589 l 56 622 l 343 622 l 343 589 z m 489 -236 l 389 -236 l 414 -161 l 546 -161 z m 929 926 l 929 918 l 178 918 b 242 926 197 924 219 926 z "},"è":{"ha":985,"x_min":0,"x_max":0,"o":"m 56 11 l 56 74 l 929 74 l 929 11 z m 56 94 l 56 153 l 929 153 l 929 94 z m 56 176 l 56 231 l 929 231 l 929 176 z m 56 342 l 56 388 l 844 388 l 844 342 z m 56 424 l 56 467 l 844 467 l 844 424 z m 56 506 l 56 544 l 844 544 l 844 506 z m 925 779 b 923 766 924 775 923 770 b 921 753 922 762 922 757 l 56 753 l 56 779 z m 343 676 l 343 671 l 56 671 l 56 701 l 899 701 b 854 676 887 685 872 676 z m 56 836 l 56 858 l 929 858 l 929 836 z m 56 258 l 56 310 l 343 310 l 343 258 z m 56 589 l 56 622 l 343 622 l 343 589 z m 929 926 l 929 918 l 56 918 l 56 926 z m 344 1083 l 340 1093 l 614 1093 l 617 1083 z m 375 1006 l 371 1015 l 643 1015 l 647 1006 z m 311 1165 l 308 1172 l 583 1172 l 586 1165 z "},"é":{"ha":985,"x_min":0,"x_max":0,"o":"m 56 11 l 56 74 l 929 74 l 929 11 z m 56 94 l 56 153 l 929 153 l 929 94 z m 56 176 l 56 231 l 929 231 l 929 176 z m 56 342 l 56 388 l 844 388 l 844 342 z m 56 424 l 56 467 l 844 467 l 844 424 z m 56 506 l 56 544 l 844 544 l 844 506 z m 925 779 b 923 766 924 775 923 770 b 921 753 922 762 922 757 l 56 753 l 56 779 z m 343 676 l 343 671 l 56 671 l 56 701 l 899 701 b 854 676 887 685 872 676 z m 56 836 l 56 858 l 929 858 l 929 836 z m 56 258 l 56 310 l 343 310 l 343 258 z m 56 589 l 56 622 l 343 622 l 343 589 z m 929 926 l 929 918 l 56 918 l 56 926 z m 367 1083 l 369 1093 l 644 1093 l 640 1083 z m 610 1006 l 338 1006 l 340 1015 l 614 1015 z m 397 1165 l 400 1172 l 675 1172 l 672 1165 z "},"ê":{"ha":985,"x_min":0,"x_max":0,"o":"m 56 11 l 56 74 l 929 74 l 929 11 z m 56 94 l 56 153 l 929 153 l 929 94 z m 56 176 l 56 231 l 929 231 l 929 176 z m 56 342 l 56 388 l 844 388 l 844 342 z m 56 424 l 56 467 l 844 467 l 844 424 z m 56 506 l 56 544 l 844 544 l 844 506 z m 925 779 b 923 766 924 775 923 770 b 921 753 922 762 922 757 l 56 753 l 56 779 z m 899 701 b 854 676 887 685 872 676 l 343 676 l 343 671 l 56 671 l 56 701 z m 56 836 l 56 858 l 929 858 l 929 836 z m 56 258 l 56 310 l 343 310 l 343 258 z m 56 589 l 56 622 l 343 622 l 343 589 z m 56 918 l 56 926 l 929 926 l 929 918 z m 224 1165 l 226 1172 l 757 1172 l 760 1165 z m 515 1083 l 511 1093 l 788 1093 l 790 1083 z m 817 1015 l 821 1006 l 546 1006 l 542 1015 z m 193 1083 l 196 1093 l 471 1093 l 468 1083 z m 439 1006 l 164 1006 l 167 1015 l 442 1015 z "},"ë":{"ha":985,"x_min":0,"x_max":0,"o":"m 56 11 l 56 74 l 929 74 l 929 11 z m 56 94 l 56 153 l 929 153 l 929 94 z m 56 176 l 56 231 l 929 231 l 929 176 z m 56 342 l 56 388 l 844 388 l 844 342 z m 56 424 l 56 467 l 844 467 l 844 424 z m 56 506 l 56 544 l 844 544 l 844 506 z m 925 779 b 923 766 924 775 923 770 b 921 753 922 762 922 757 l 56 753 l 56 779 z m 899 701 b 854 676 887 685 872 676 l 343 676 l 343 671 l 56 671 l 56 701 z m 56 836 l 56 858 l 929 858 l 929 836 z m 56 258 l 56 310 l 343 310 l 343 258 z m 56 589 l 56 622 l 343 622 l 343 589 z m 56 918 l 56 926 l 929 926 l 929 918 z m 446 1006 l 169 1006 l 169 1015 l 446 1015 z m 169 1083 l 169 1093 l 446 1093 l 446 1083 z m 538 1083 l 538 1093 l 814 1093 l 814 1083 z m 814 1006 l 538 1006 l 538 1015 l 814 1015 z m 169 1165 l 169 1172 l 446 1172 l 446 1165 z m 538 1165 l 538 1172 l 814 1172 l 814 1165 z "},"ì":{"ha":401,"x_min":0,"x_max":0,"o":"m 57 11 l 57 74 l 344 74 l 344 11 z m 57 94 l 57 153 l 344 153 l 344 94 z m 57 176 l 57 231 l 344 231 l 344 176 z m 57 258 l 57 310 l 344 310 l 344 258 z m 57 342 l 57 388 l 344 388 l 344 342 z m 57 424 l 57 467 l 344 467 l 344 424 z m 57 506 l 57 544 l 344 544 l 344 506 z m 57 589 l 57 622 l 344 622 l 344 589 z m 57 671 l 57 701 l 344 701 l 344 671 z m 57 753 l 57 779 l 344 779 l 344 753 z m 57 836 l 57 858 l 344 858 l 344 836 z m 51 1083 l 47 1093 l 321 1093 l 324 1083 z m 354 1006 l 82 1006 l 78 1015 l 350 1015 z m 57 926 l 344 926 l 344 918 l 57 918 z m 18 1165 l 15 1172 l 290 1172 l 293 1165 z "},"í":{"ha":401,"x_min":0,"x_max":0,"o":"m 57 11 l 57 74 l 344 74 l 344 11 z m 57 94 l 57 153 l 344 153 l 344 94 z m 57 176 l 57 231 l 344 231 l 344 176 z m 57 258 l 57 310 l 344 310 l 344 258 z m 57 342 l 57 388 l 344 388 l 344 342 z m 57 424 l 57 467 l 344 467 l 344 424 z m 57 506 l 57 544 l 344 544 l 344 506 z m 57 589 l 57 622 l 344 622 l 344 589 z m 57 671 l 57 701 l 344 701 l 344 671 z m 57 753 l 57 779 l 344 779 l 344 753 z m 57 836 l 57 858 l 344 858 l 344 836 z m 76 1083 l 79 1093 l 354 1093 l 350 1083 z m 319 1006 l 47 1006 l 50 1015 l 324 1015 z m 57 926 l 344 926 l 344 918 l 57 918 z m 107 1165 l 110 1172 l 385 1172 l 382 1165 z "},"î":{"ha":401,"x_min":0,"x_max":0,"o":"m 57 11 l 57 74 l 344 74 l 344 11 z m 57 94 l 57 153 l 344 153 l 344 94 z m 57 176 l 57 231 l 344 231 l 344 176 z m 57 258 l 57 310 l 344 310 l 344 258 z m 57 342 l 57 388 l 344 388 l 344 342 z m 57 424 l 57 467 l 344 467 l 344 424 z m 57 506 l 57 544 l 344 544 l 344 506 z m 57 589 l 57 622 l 344 622 l 344 589 z m 57 671 l 57 701 l 344 701 l 344 671 z m 57 753 l 57 779 l 344 779 l 344 753 z m 57 836 l 57 858 l 344 858 l 344 836 z m -67 1165 l -64 1172 l 465 1172 l 468 1165 z m 224 1083 l 219 1093 l 496 1093 l 499 1083 z m 254 1006 l 250 1015 l 525 1015 l 529 1006 z m 147 1006 l -128 1006 l -124 1015 l 150 1015 z m -99 1083 l -94 1093 l 179 1093 l 176 1083 z m 57 926 l 344 926 l 344 918 l 57 918 z "},"ï":{"ha":401,"x_min":0,"x_max":0,"o":"m 57 11 l 57 74 l 344 74 l 344 11 z m 57 94 l 57 153 l 344 153 l 344 94 z m 57 176 l 57 231 l 344 231 l 344 176 z m 57 258 l 57 310 l 344 310 l 344 258 z m 57 342 l 57 388 l 344 388 l 344 342 z m 57 424 l 57 467 l 344 467 l 344 424 z m 57 506 l 57 544 l 344 544 l 344 506 z m 57 589 l 57 622 l 344 622 l 344 589 z m 57 671 l 57 701 l 344 701 l 344 671 z m 57 753 l 57 779 l 344 779 l 344 753 z m 57 836 l 57 858 l 344 858 l 344 836 z m -121 1083 l -121 1093 l 156 1093 l 156 1083 z m 524 1006 l 247 1006 l 247 1015 l 524 1015 z m 156 1006 l -121 1006 l -121 1015 l 156 1015 z m 247 1083 l 247 1093 l 524 1093 l 524 1083 z m 57 926 l 344 926 l 344 918 l 57 918 z m -121 1165 l -121 1172 l 156 1172 l 156 1165 z m 247 1165 l 247 1172 l 524 1172 l 524 1165 z "},"ð":{"ha":1263,"x_min":0,"x_max":0,"o":"m 111 176 l 135 231 l 1126 231 l 1150 176 z m 146 258 l 168 310 l 1093 310 l 1115 258 z m 407 131 l 392 94 l 75 94 l 100 153 l 1161 153 l 1186 94 l 869 94 l 854 131 z m 747 382 l 744 388 l 1058 388 l 1079 342 l 182 342 l 203 388 l 515 388 l 514 382 z m 904 11 l 878 74 l 1196 74 l 1222 11 z m 39 11 l 67 74 l 382 74 l 356 11 z m 325 671 l 339 701 l 922 701 l 936 671 z m 361 753 l 372 779 l 889 779 l 900 753 z m 729 424 l 711 467 l 1024 467 l 1043 424 z m 218 424 l 238 467 l 550 467 l 531 424 z m 254 506 l 271 544 l 583 544 l 567 506 z m 694 506 l 679 544 l 990 544 l 1007 506 z m 290 589 l 304 622 l 617 622 l 603 589 z m 660 589 l 646 622 l 957 622 l 971 589 z m 397 836 l 407 858 l 854 858 l 864 836 z m 436 926 l 825 926 l 828 918 l 432 918 z "},"ñ":{"ha":1111,"x_min":0,"x_max":0,"o":"m 542 258 l 501 310 l 1056 310 l 1056 258 z m 758 426 l 768 426 l 768 467 l 1056 467 l 1056 424 l 411 424 l 378 467 l 726 467 z m 476 342 l 440 388 l 1056 388 l 1056 342 z m 606 176 l 563 231 l 1056 231 l 1056 176 z m 56 506 l 56 544 l 665 544 l 696 506 z m 669 94 l 624 153 l 1056 153 l 1056 94 z m 735 11 l 686 74 l 1056 74 l 1056 11 z m 56 589 l 56 622 l 604 622 l 631 589 z m 56 11 l 56 74 l 343 74 l 343 11 z m 56 94 l 56 153 l 343 153 l 343 94 z m 56 176 l 56 231 l 343 231 l 343 176 z m 56 671 l 56 701 l 542 701 l 565 671 z m 56 258 l 56 310 l 343 310 l 343 258 z m 56 342 l 56 388 l 343 388 l 343 342 z m 56 424 l 56 467 l 343 467 l 343 424 z m 56 753 l 56 779 l 481 779 l 501 753 z m 768 506 l 768 544 l 1056 544 l 1056 506 z m 768 589 l 768 622 l 1056 622 l 1056 589 z m 768 671 l 768 701 l 1056 701 l 1056 671 z m 56 836 l 56 858 l 418 858 l 436 836 z m 768 753 l 768 779 l 1056 779 l 1056 753 z m 768 836 l 768 858 l 1056 858 l 1056 836 z m 432 1083 l 428 1093 l 883 1093 l 881 1083 z m 463 1006 l 458 1015 l 854 1015 l 851 1006 z m 228 1165 l 231 1172 l 675 1172 l 678 1165 z m 56 926 l 365 926 l 371 918 l 56 918 z m 1056 926 l 1056 918 l 768 918 l 768 926 z m 356 1006 l 168 1006 l 171 1015 l 358 1015 z m 197 1083 l 200 1093 l 388 1093 l 385 1083 z m 724 1165 l 726 1172 l 914 1172 l 911 1165 z "},"ò":{"ha":1088,"x_min":0,"x_max":0,"o":"m 1032 153 b 1017 94 1031 131 1026 112 l 69 94 b 56 153 60 113 56 132 z m 1006 74 b 917 11 983 43 954 22 l 169 11 b 119 35 151 17 134 25 b 82 74 105 46 92 59 z m 56 176 l 56 231 l 1032 231 l 1032 176 z m 744 671 l 744 676 l 343 676 l 343 671 l 56 671 l 56 701 l 1032 701 l 1032 671 z m 1032 765 l 1032 753 l 56 753 l 56 765 l 56 779 l 1031 779 b 1032 765 1031 775 1032 771 z m 72 836 b 78 847 74 840 76 844 b 86 858 81 851 83 855 l 1001 858 b 1009 847 1004 855 1007 851 b 1015 836 1011 844 1013 840 z m 56 258 l 56 310 l 343 310 l 343 258 z m 744 258 l 744 310 l 1032 310 l 1032 258 z m 56 342 l 56 388 l 343 388 l 343 342 z m 744 342 l 744 388 l 1032 388 l 1032 342 z m 56 424 l 56 467 l 343 467 l 343 424 z m 744 424 l 744 467 l 1032 467 l 1032 424 z m 56 506 l 56 544 l 343 544 l 343 506 z m 744 506 l 744 544 l 1032 544 l 1032 506 z m 56 589 l 56 622 l 343 622 l 343 589 z m 744 589 l 744 622 l 1032 622 l 1032 589 z m 178 918 b 242 926 197 924 219 926 l 846 926 b 908 918 868 926 889 924 z m 394 1083 l 390 1093 l 664 1093 l 667 1083 z m 697 1006 l 425 1006 l 421 1015 l 693 1015 z m 361 1165 l 358 1172 l 633 1172 l 636 1165 z "},"ó":{"ha":1088,"x_min":0,"x_max":0,"o":"m 1032 153 b 1017 94 1031 131 1026 112 l 69 94 b 56 153 60 113 56 132 z m 1006 74 b 917 11 983 43 954 22 l 169 11 b 119 35 151 17 134 25 b 82 74 105 46 92 59 z m 56 176 l 56 231 l 1032 231 l 1032 176 z m 744 671 l 744 676 l 343 676 l 343 671 l 56 671 l 56 701 l 1032 701 l 1032 671 z m 1032 765 l 1032 753 l 56 753 l 56 765 l 56 779 l 1031 779 b 1032 765 1031 775 1032 771 z m 72 836 b 78 847 74 840 76 844 b 86 858 81 851 83 855 l 1001 858 b 1009 847 1004 855 1007 851 b 1015 836 1011 844 1013 840 z m 56 258 l 56 310 l 343 310 l 343 258 z m 744 258 l 744 310 l 1032 310 l 1032 258 z m 56 342 l 56 388 l 343 388 l 343 342 z m 744 342 l 744 388 l 1032 388 l 1032 342 z m 56 424 l 56 467 l 343 467 l 343 424 z m 744 424 l 744 467 l 1032 467 l 1032 424 z m 56 506 l 56 544 l 343 544 l 343 506 z m 744 506 l 744 544 l 1032 544 l 1032 506 z m 56 589 l 56 622 l 343 622 l 343 589 z m 744 589 l 744 622 l 1032 622 l 1032 589 z m 178 918 b 242 926 197 924 219 926 l 846 926 b 908 918 868 926 889 924 z m 419 1083 l 422 1093 l 697 1093 l 693 1083 z m 663 1006 l 390 1006 l 393 1015 l 667 1015 z m 450 1165 l 453 1172 l 728 1172 l 725 1165 z "},"ô":{"ha":1088,"x_min":0,"x_max":0,"o":"m 1032 153 b 1017 94 1031 131 1026 112 l 69 94 b 56 153 60 113 56 132 z m 1006 74 b 917 11 983 43 954 22 l 169 11 b 119 35 151 17 134 25 b 82 74 105 46 92 59 z m 56 176 l 56 231 l 1032 231 l 1032 176 z m 744 671 l 744 676 l 343 676 l 343 671 l 56 671 l 56 701 l 1032 701 l 1032 671 z m 1032 765 l 1032 753 l 56 753 l 56 765 l 56 779 l 1031 779 b 1032 765 1031 775 1032 771 z m 72 836 b 78 847 74 840 76 844 b 86 858 81 851 83 855 l 1001 858 b 1009 847 1004 855 1007 851 b 1015 836 1011 844 1013 840 z m 56 258 l 56 310 l 343 310 l 343 258 z m 744 258 l 744 310 l 1032 310 l 1032 258 z m 56 342 l 56 388 l 343 388 l 343 342 z m 744 342 l 744 388 l 1032 388 l 1032 342 z m 56 424 l 56 467 l 343 467 l 343 424 z m 744 424 l 744 467 l 1032 467 l 1032 424 z m 56 506 l 56 544 l 343 544 l 343 506 z m 744 506 l 744 544 l 1032 544 l 1032 506 z m 56 589 l 56 622 l 343 622 l 343 589 z m 744 589 l 744 622 l 1032 622 l 1032 589 z m 178 918 b 242 926 197 924 219 926 l 846 926 b 908 918 868 926 889 924 z m 275 1165 l 278 1172 l 808 1172 l 811 1165 z m 567 1083 l 563 1093 l 839 1093 l 842 1083 z m 868 1015 l 872 1006 l 597 1006 l 593 1015 z m 490 1006 l 215 1006 l 218 1015 l 493 1015 z m 244 1083 l 247 1093 l 522 1093 l 519 1083 z "},"õ":{"ha":1088,"x_min":0,"x_max":0,"o":"m 69 94 b 56 153 60 113 56 132 l 1032 153 b 1017 94 1031 131 1026 112 z m 169 11 b 119 35 151 17 134 25 b 82 74 105 46 92 59 l 1006 74 b 917 11 983 43 954 22 z m 56 176 l 56 231 l 1032 231 l 1032 176 z m 343 676 l 343 671 l 56 671 l 56 701 l 1032 701 l 1032 671 l 744 671 l 744 676 z m 1032 765 l 1032 753 l 56 753 l 56 765 l 56 779 l 1031 779 b 1032 765 1031 775 1032 771 z m 1001 858 b 1009 847 1004 855 1007 851 b 1015 836 1011 844 1013 840 l 72 836 b 78 847 74 840 76 844 b 86 858 81 851 83 855 z m 56 258 l 56 310 l 343 310 l 343 258 z m 744 258 l 744 310 l 1032 310 l 1032 258 z m 56 342 l 56 388 l 343 388 l 343 342 z m 744 342 l 744 388 l 1032 388 l 1032 342 z m 56 424 l 56 467 l 343 467 l 343 424 z m 744 424 l 744 467 l 1032 467 l 1032 424 z m 744 506 l 744 544 l 1032 544 l 1032 506 z m 56 506 l 56 544 l 343 544 l 343 506 z m 744 589 l 744 622 l 1032 622 l 1032 589 z m 56 589 l 56 622 l 343 622 l 343 589 z m 846 926 b 908 918 868 926 889 924 l 178 918 b 242 926 197 924 219 926 z m 421 1083 l 417 1093 l 872 1093 l 869 1083 z m 451 1006 l 447 1015 l 843 1015 l 840 1006 z m 217 1165 l 219 1172 l 664 1172 l 667 1165 z m 344 1006 l 157 1006 l 160 1015 l 347 1015 z m 186 1083 l 189 1093 l 376 1093 l 374 1083 z m 713 1165 l 715 1172 l 903 1172 l 900 1165 z "},"ö":{"ha":1088,"x_min":0,"x_max":0,"o":"m 69 94 b 56 153 60 113 56 132 l 1032 153 b 1017 94 1031 131 1026 112 z m 169 11 b 119 35 151 17 134 25 b 82 74 105 46 92 59 l 1006 74 b 917 11 983 43 954 22 z m 56 176 l 56 231 l 1032 231 l 1032 176 z m 343 676 l 343 671 l 56 671 l 56 701 l 1032 701 l 1032 671 l 744 671 l 744 676 z m 1032 765 l 1032 753 l 56 753 l 56 765 l 56 779 l 1031 779 b 1032 765 1031 775 1032 771 z m 1001 858 b 1009 847 1004 855 1007 851 b 1015 836 1011 844 1013 840 l 72 836 b 78 847 74 840 76 844 b 86 858 81 851 83 855 z m 56 258 l 56 310 l 343 310 l 343 258 z m 744 258 l 744 310 l 1032 310 l 1032 258 z m 56 342 l 56 388 l 343 388 l 343 342 z m 744 342 l 744 388 l 1032 388 l 1032 342 z m 56 424 l 56 467 l 343 467 l 343 424 z m 744 424 l 744 467 l 1032 467 l 1032 424 z m 56 506 l 56 544 l 343 544 l 343 506 z m 744 506 l 744 544 l 1032 544 l 1032 506 z m 56 589 l 56 622 l 343 622 l 343 589 z m 744 589 l 744 622 l 1032 622 l 1032 589 z m 846 926 b 908 918 868 926 889 924 l 178 918 b 242 926 197 924 219 926 z m 499 1006 l 222 1006 l 222 1015 l 499 1015 z m 867 1006 l 590 1006 l 590 1015 l 867 1015 z m 222 1083 l 222 1093 l 499 1093 l 499 1083 z m 590 1083 l 590 1093 l 867 1093 l 867 1083 z m 590 1165 l 590 1172 l 867 1172 l 867 1165 z m 222 1165 l 222 1172 l 499 1172 l 499 1165 z "},"÷":{"ha":689,"x_min":0,"x_max":0,"o":"m 56 342 l 56 388 l 633 388 l 633 342 z m 56 424 l 56 467 l 633 467 l 633 424 z m 56 506 l 56 544 l 633 544 l 633 506 z m 231 94 b 206 153 217 111 208 131 l 482 153 b 457 94 479 132 471 113 z m 467 231 b 483 176 476 214 481 196 l 206 176 b 222 231 206 196 212 214 z m 481 779 b 483 766 481 775 482 770 b 483 753 483 762 483 757 l 206 753 b 206 766 206 757 206 762 b 208 779 207 770 207 775 z m 236 671 b 215 701 229 678 222 688 l 471 701 b 450 671 464 688 457 678 z m 344 299 b 399 288 364 299 382 295 b 444 258 416 281 431 271 l 244 258 b 344 299 271 285 305 299 z m 424 858 b 438 848 428 855 433 851 b 450 836 442 845 446 841 l 239 836 b 251 848 243 841 247 845 b 265 858 256 851 261 855 z m 344 43 b 250 74 307 43 276 53 l 435 74 b 344 43 410 53 380 43 z "},"ø":{"ha":1088,"x_min":0,"x_max":0,"o":"m 1032 153 b 1017 94 1031 131 1026 112 l 69 94 b 56 153 60 113 56 132 z m 1006 74 b 917 11 983 43 954 22 l 169 11 b 119 35 151 17 134 25 b 82 74 105 46 92 59 z m 56 176 l 56 231 l 1032 231 l 1032 176 z m 511 676 l 343 676 l 343 671 l 56 671 l 56 701 l 1032 701 l 1032 671 l 508 671 z m 56 258 l 56 310 l 604 310 l 581 258 z m 56 753 l 56 765 l 56 779 l 1031 779 b 1032 765 1031 775 1032 771 l 1032 753 z m 72 836 b 78 847 74 840 76 844 b 86 858 81 851 83 855 l 1001 858 b 1009 847 1004 855 1007 851 b 1015 836 1011 844 1013 840 z m 744 589 l 744 603 l 738 589 l 469 589 l 485 622 l 1032 622 l 1032 589 z m 744 258 l 744 310 l 1032 310 l 1032 258 z m 56 342 l 56 388 l 343 388 l 343 342 z m 744 342 l 744 388 l 1032 388 l 1032 342 z m 56 424 l 56 467 l 343 467 l 343 424 z m 744 424 l 744 467 l 1032 467 l 1032 424 z m 351 342 l 372 388 l 642 388 l 619 342 z m 390 424 l 411 467 l 679 467 l 658 424 z m 56 506 l 56 544 l 343 544 l 343 506 z m 744 506 l 744 544 l 1032 544 l 1032 506 z m 429 506 l 449 544 l 717 544 l 699 506 z m 56 589 l 56 622 l 343 622 l 343 589 z m 178 918 b 242 926 197 924 219 926 l 846 926 b 908 918 868 926 889 924 z "},"ù":{"ha":1088,"x_min":0,"x_max":0,"o":"m 1032 153 b 1017 94 1031 131 1026 112 l 69 94 b 56 153 60 113 56 132 z m 1006 74 b 917 11 983 43 954 22 l 169 11 b 119 35 151 17 134 25 b 82 74 105 46 92 59 z m 56 176 l 56 231 l 1032 231 l 1032 176 z m 56 258 l 56 310 l 343 310 l 343 258 z m 744 258 l 744 310 l 1032 310 l 1032 258 z m 56 342 l 56 388 l 343 388 l 343 342 z m 744 342 l 744 388 l 1032 388 l 1032 342 z m 56 424 l 56 467 l 343 467 l 343 424 z m 744 424 l 744 467 l 1032 467 l 1032 424 z m 56 506 l 56 544 l 343 544 l 343 506 z m 744 506 l 744 544 l 1032 544 l 1032 506 z m 56 589 l 56 622 l 343 622 l 343 589 z m 744 589 l 744 622 l 1032 622 l 1032 589 z m 744 671 l 744 701 l 1032 701 l 1032 671 z m 56 671 l 56 701 l 343 701 l 343 671 z m 744 753 l 744 779 l 1032 779 l 1032 753 z m 56 753 l 56 779 l 343 779 l 343 753 z m 744 836 l 744 858 l 1032 858 l 1032 836 z m 56 836 l 56 858 l 343 858 l 343 836 z m 394 1083 l 390 1093 l 664 1093 l 667 1083 z m 697 1006 l 425 1006 l 421 1015 l 693 1015 z m 56 918 l 56 926 l 343 926 l 343 918 z m 744 918 l 744 926 l 1032 926 l 1032 918 z m 361 1165 l 358 1172 l 633 1172 l 636 1165 z "},"ú":{"ha":1088,"x_min":0,"x_max":0,"o":"m 1032 153 b 1017 94 1031 131 1026 112 l 69 94 b 56 153 60 113 56 132 z m 1006 74 b 917 11 983 43 954 22 l 169 11 b 119 35 151 17 134 25 b 82 74 105 46 92 59 z m 56 176 l 56 231 l 1032 231 l 1032 176 z m 56 258 l 56 310 l 343 310 l 343 258 z m 744 258 l 744 310 l 1032 310 l 1032 258 z m 56 342 l 56 388 l 343 388 l 343 342 z m 744 342 l 744 388 l 1032 388 l 1032 342 z m 56 424 l 56 467 l 343 467 l 343 424 z m 744 424 l 744 467 l 1032 467 l 1032 424 z m 56 506 l 56 544 l 343 544 l 343 506 z m 744 506 l 744 544 l 1032 544 l 1032 506 z m 56 589 l 56 622 l 343 622 l 343 589 z m 744 589 l 744 622 l 1032 622 l 1032 589 z m 56 671 l 56 701 l 343 701 l 343 671 z m 744 671 l 744 701 l 1032 701 l 1032 671 z m 744 753 l 744 779 l 1032 779 l 1032 753 z m 56 753 l 56 779 l 343 779 l 343 753 z m 744 836 l 744 858 l 1032 858 l 1032 836 z m 56 836 l 56 858 l 343 858 l 343 836 z m 419 1083 l 422 1093 l 697 1093 l 693 1083 z m 663 1006 l 390 1006 l 393 1015 l 667 1015 z m 56 918 l 56 926 l 343 926 l 343 918 z m 744 918 l 744 926 l 1032 926 l 1032 918 z m 450 1165 l 453 1172 l 728 1172 l 725 1165 z "},"û":{"ha":1088,"x_min":0,"x_max":0,"o":"m 1032 153 b 1017 94 1031 131 1026 112 l 69 94 b 56 153 60 113 56 132 z m 1006 74 b 917 11 983 43 954 22 l 169 11 b 119 35 151 17 134 25 b 82 74 105 46 92 59 z m 56 176 l 56 231 l 1032 231 l 1032 176 z m 56 258 l 56 310 l 343 310 l 343 258 z m 744 258 l 744 310 l 1032 310 l 1032 258 z m 56 342 l 56 388 l 343 388 l 343 342 z m 744 342 l 744 388 l 1032 388 l 1032 342 z m 744 424 l 744 467 l 1032 467 l 1032 424 z m 56 424 l 56 467 l 343 467 l 343 424 z m 744 506 l 744 544 l 1032 544 l 1032 506 z m 56 506 l 56 544 l 343 544 l 343 506 z m 744 589 l 744 622 l 1032 622 l 1032 589 z m 56 589 l 56 622 l 343 622 l 343 589 z m 744 671 l 744 701 l 1032 701 l 1032 671 z m 56 671 l 56 701 l 343 701 l 343 671 z m 744 753 l 744 779 l 1032 779 l 1032 753 z m 56 753 l 56 779 l 343 779 l 343 753 z m 744 836 l 744 858 l 1032 858 l 1032 836 z m 56 836 l 56 858 l 343 858 l 343 836 z m 275 1165 l 278 1172 l 808 1172 l 811 1165 z m 567 1083 l 563 1093 l 839 1093 l 842 1083 z m 868 1015 l 872 1006 l 597 1006 l 593 1015 z m 244 1083 l 247 1093 l 522 1093 l 519 1083 z m 490 1006 l 215 1006 l 218 1015 l 493 1015 z m 744 926 l 1032 926 l 1032 918 l 744 918 z m 56 918 l 56 926 l 343 926 l 343 918 z "},"ü":{"ha":1088,"x_min":0,"x_max":0,"o":"m 1032 153 b 1017 94 1031 131 1026 112 l 69 94 b 56 153 60 113 56 132 z m 1006 74 b 917 11 983 43 954 22 l 169 11 b 119 35 151 17 134 25 b 82 74 105 46 92 59 z m 56 176 l 56 231 l 1032 231 l 1032 176 z m 56 258 l 56 310 l 343 310 l 343 258 z m 744 258 l 744 310 l 1032 310 l 1032 258 z m 744 342 l 744 388 l 1032 388 l 1032 342 z m 56 342 l 56 388 l 343 388 l 343 342 z m 744 424 l 744 467 l 1032 467 l 1032 424 z m 56 424 l 56 467 l 343 467 l 343 424 z m 744 506 l 744 544 l 1032 544 l 1032 506 z m 56 506 l 56 544 l 343 544 l 343 506 z m 56 589 l 56 622 l 343 622 l 343 589 z m 744 589 l 744 622 l 1032 622 l 1032 589 z m 744 671 l 744 701 l 1032 701 l 1032 671 z m 56 671 l 56 701 l 343 701 l 343 671 z m 744 753 l 744 779 l 1032 779 l 1032 753 z m 56 753 l 56 779 l 343 779 l 343 753 z m 744 836 l 744 858 l 1032 858 l 1032 836 z m 56 836 l 56 858 l 343 858 l 343 836 z m 499 1006 l 222 1006 l 222 1015 l 499 1015 z m 222 1083 l 222 1093 l 499 1093 l 499 1083 z m 590 1083 l 590 1093 l 867 1093 l 867 1083 z m 867 1006 l 590 1006 l 590 1015 l 867 1015 z m 744 918 l 744 926 l 1032 926 l 1032 918 z m 56 918 l 56 926 l 343 926 l 343 918 z m 222 1165 l 222 1172 l 499 1172 l 499 1165 z m 590 1165 l 590 1172 l 867 1172 l 867 1165 z "},"ý":{"ha":1088,"x_min":0,"x_max":0,"o":"m 149 258 b 83 310 123 269 101 287 l 1003 310 b 938 258 987 288 965 270 z m 67 342 b 56 388 60 357 56 373 l 1031 388 b 1021 342 1029 369 1025 354 z m 56 424 l 56 467 l 1032 467 l 1032 424 z m 400 11 l 400 74 l 688 74 l 688 11 z m 400 94 l 400 153 l 688 153 l 688 94 z m 400 176 l 400 231 l 688 231 l 688 176 z m 56 506 l 56 544 l 343 544 l 343 506 z m 744 506 l 744 544 l 1032 544 l 1032 506 z m 56 589 l 56 622 l 343 622 l 343 589 z m 744 589 l 744 622 l 1032 622 l 1032 589 z m 56 671 l 56 701 l 343 701 l 343 671 z m 744 671 l 744 701 l 1032 701 l 1032 671 z m 56 753 l 56 779 l 343 779 l 343 753 z m 744 753 l 744 779 l 1032 779 l 1032 753 z m 744 836 l 744 858 l 1032 858 l 1032 836 z m 56 836 l 56 858 l 343 858 l 343 836 z m 419 1083 l 422 1093 l 697 1093 l 693 1083 z m 663 1006 l 390 1006 l 393 1015 l 667 1015 z m 744 918 l 744 926 l 1032 926 l 1032 918 z m 56 918 l 56 926 l 343 926 l 343 918 z m 450 1165 l 453 1172 l 728 1172 l 725 1165 z "},"þ":{"ha":1088,"x_min":0,"x_max":0,"o":"m 1022 231 b 989 176 1015 209 1004 191 l 56 176 l 56 231 z m 1032 283 b 1031 271 1032 279 1032 275 b 1029 258 1031 267 1030 263 l 56 258 l 56 310 l 1032 310 z m 343 372 l 744 372 l 744 388 l 1032 388 l 1032 342 l 56 342 l 56 388 l 343 388 z m 343 122 l 343 94 l 56 94 l 56 153 l 960 153 b 907 130 944 143 926 135 b 846 122 888 125 867 122 z m 56 589 l 56 622 l 1032 622 l 1032 589 z m 1021 701 b 1025 686 1023 697 1024 692 b 1029 671 1026 681 1027 675 l 56 671 l 56 701 z m 950 779 b 969 767 957 775 964 771 l 986 753 l 56 753 l 56 779 z m 56 11 l 56 74 l 343 74 l 343 11 z m 56 424 l 56 467 l 343 467 l 343 424 z m 744 424 l 744 467 l 1032 467 l 1032 424 z m 744 506 l 744 544 l 1032 544 l 1032 506 z m 56 506 l 56 544 l 343 544 l 343 506 z m 56 836 l 56 858 l 343 858 l 343 836 z m 343 926 l 343 918 l 56 918 l 56 926 z "},"ÿ":{"ha":1088,"x_min":0,"x_max":0,"o":"m 149 258 b 83 310 123 269 101 287 l 1003 310 b 938 258 987 288 965 270 z m 67 342 b 56 388 60 357 56 373 l 1031 388 b 1021 342 1029 369 1025 354 z m 56 424 l 56 467 l 1032 467 l 1032 424 z m 400 11 l 400 74 l 688 74 l 688 11 z m 400 94 l 400 153 l 688 153 l 688 94 z m 400 176 l 400 231 l 688 231 l 688 176 z m 56 506 l 56 544 l 343 544 l 343 506 z m 744 506 l 744 544 l 1032 544 l 1032 506 z m 56 589 l 56 622 l 343 622 l 343 589 z m 744 589 l 744 622 l 1032 622 l 1032 589 z m 56 671 l 56 701 l 343 701 l 343 671 z m 744 671 l 744 701 l 1032 701 l 1032 671 z m 744 753 l 744 779 l 1032 779 l 1032 753 z m 56 753 l 56 779 l 343 779 l 343 753 z m 744 836 l 744 858 l 1032 858 l 1032 836 z m 56 836 l 56 858 l 343 858 l 343 836 z m 222 1083 l 222 1093 l 499 1093 l 499 1083 z m 867 1006 l 590 1006 l 590 1015 l 867 1015 z m 499 1006 l 222 1006 l 222 1015 l 499 1015 z m 590 1083 l 590 1093 l 867 1093 l 867 1083 z m 744 918 l 744 926 l 1032 926 l 1032 918 z m 56 918 l 56 926 l 343 926 l 343 918 z m 222 1165 l 222 1172 l 499 1172 l 499 1165 z m 590 1165 l 590 1172 l 867 1172 l 867 1165 z "},"Œ":{"ha":1571,"x_min":0,"x_max":0,"o":"m 169 11 b 119 35 151 17 134 25 b 82 74 105 46 92 59 l 1515 74 l 1515 11 z m 69 94 b 56 153 60 113 56 132 l 1515 153 l 1515 94 z m 56 176 l 56 231 l 1515 231 l 1515 176 z m 668 676 l 343 676 l 343 671 l 56 671 l 56 701 l 1485 701 b 1440 676 1473 685 1458 676 l 956 676 l 956 671 l 668 671 z m 1511 779 b 1509 766 1510 775 1509 770 b 1507 753 1509 762 1508 757 l 56 753 l 56 765 l 56 779 z m 668 342 l 668 388 l 1431 388 l 1431 342 z m 668 424 l 668 467 l 1431 467 l 1431 424 z m 72 836 b 78 847 74 840 76 844 b 86 858 81 851 83 855 l 1515 858 l 1515 836 z m 668 506 l 668 544 l 1431 544 l 1431 506 z m 56 258 l 56 310 l 343 310 l 343 258 z m 668 258 l 668 310 l 956 310 l 956 258 z m 56 342 l 56 388 l 343 388 l 343 342 z m 56 424 l 56 467 l 343 467 l 343 424 z m 56 506 l 56 544 l 343 544 l 343 506 z m 1515 926 l 1515 918 l 178 918 b 242 926 197 924 219 926 z m 56 589 l 56 622 l 343 622 l 343 589 z m 668 589 l 668 622 l 956 622 l 956 589 z "},"œ":{"ha":1571,"x_min":0,"x_max":0,"o":"m 169 11 b 119 35 151 17 134 25 b 82 74 105 46 92 59 l 1515 74 l 1515 11 z m 69 94 b 56 153 60 113 56 132 l 1515 153 l 1515 94 z m 56 176 l 56 231 l 1515 231 l 1515 176 z m 668 676 l 343 676 l 343 671 l 56 671 l 56 701 l 1485 701 b 1440 676 1473 685 1458 676 l 956 676 l 956 671 l 668 671 z m 1511 779 b 1509 766 1510 775 1509 770 b 1507 753 1509 762 1508 757 l 56 753 l 56 765 l 56 779 z m 668 342 l 668 388 l 1431 388 l 1431 342 z m 668 424 l 668 467 l 1431 467 l 1431 424 z m 72 836 b 78 847 74 840 76 844 b 86 858 81 851 83 855 l 1515 858 l 1515 836 z m 668 506 l 668 544 l 1431 544 l 1431 506 z m 56 258 l 56 310 l 343 310 l 343 258 z m 668 258 l 668 310 l 956 310 l 956 258 z m 56 342 l 56 388 l 343 388 l 343 342 z m 56 424 l 56 467 l 343 467 l 343 424 z m 56 506 l 56 544 l 343 544 l 343 506 z m 1515 926 l 1515 918 l 178 918 b 242 926 197 924 219 926 z m 56 589 l 56 622 l 343 622 l 343 589 z m 668 589 l 668 622 l 956 622 l 956 589 z "},"Š":{"ha":1043,"x_min":0,"x_max":0,"o":"m 961 74 b 874 11 940 43 911 22 l 56 11 l 56 74 z m 988 153 b 972 94 987 131 981 112 l 56 94 l 56 153 z m 56 176 l 56 231 l 988 231 l 988 176 z m 74 424 b 58 467 66 437 61 451 l 982 467 b 988 426 986 456 988 442 l 988 424 z m 197 342 b 103 388 159 349 128 364 l 988 388 l 988 342 z m 932 544 b 967 506 946 533 957 520 l 56 506 l 56 544 z m 56 753 l 56 765 l 56 779 l 983 779 b 981 766 982 775 982 770 b 979 753 981 762 980 757 z m 957 701 b 913 676 945 685 930 676 l 343 676 l 343 671 l 56 671 l 56 701 z m 72 836 b 78 847 74 840 76 844 b 86 858 81 851 83 855 l 988 858 l 988 836 z m 700 258 l 700 310 l 988 310 l 988 258 z m 56 589 l 56 622 l 343 622 l 343 589 z m 178 918 b 242 926 197 924 219 926 l 988 926 l 988 918 z m 253 1083 l 250 1093 l 792 1093 l 789 1083 z m 283 1006 l 279 1015 l 763 1015 l 760 1006 z m 222 1165 l 219 1172 l 496 1172 l 499 1165 z m 544 1165 l 547 1172 l 822 1172 l 819 1165 z "},"š":{"ha":1043,"x_min":0,"x_max":0,"o":"m 961 74 b 874 11 940 43 911 22 l 56 11 l 56 74 z m 988 153 b 972 94 987 131 981 112 l 56 94 l 56 153 z m 56 176 l 56 231 l 988 231 l 988 176 z m 74 424 b 58 467 66 437 61 451 l 982 467 b 988 426 986 456 988 442 l 988 424 z m 197 342 b 103 388 159 349 128 364 l 988 388 l 988 342 z m 932 544 b 967 506 946 533 957 520 l 56 506 l 56 544 z m 56 753 l 56 765 l 56 779 l 983 779 b 981 766 982 775 982 770 b 979 753 981 762 980 757 z m 957 701 b 913 676 945 685 930 676 l 343 676 l 343 671 l 56 671 l 56 701 z m 72 836 b 78 847 74 840 76 844 b 86 858 81 851 83 855 l 988 858 l 988 836 z m 700 258 l 700 310 l 988 310 l 988 258 z m 56 589 l 56 622 l 343 622 l 343 589 z m 178 918 b 242 926 197 924 219 926 l 988 926 l 988 918 z m 253 1083 l 250 1093 l 792 1093 l 789 1083 z m 283 1006 l 279 1015 l 763 1015 l 760 1006 z m 222 1165 l 219 1172 l 496 1172 l 499 1165 z m 544 1165 l 547 1172 l 822 1172 l 819 1165 z "},"Ÿ":{"ha":1185,"x_min":0,"x_max":0,"o":"m 246 258 b 181 310 220 269 198 287 l 1100 310 b 1035 258 1084 288 1063 270 z m 164 342 b 153 388 157 357 154 373 l 1128 388 b 1118 342 1126 369 1123 354 z m 153 424 l 153 467 l 1129 467 l 1129 424 z m 496 -71 l 496 -4 l 1094 -4 l 1044 -71 z m 496 -153 l 496 -83 l 1036 -83 l 983 -153 z m 613 -647 l 750 -240 l 918 -240 z m 496 11 l 496 74 l 785 74 l 785 11 z m 496 94 l 496 153 l 785 153 l 785 94 z m 496 176 l 496 231 l 785 231 l 785 176 z m 751 -236 l 775 -167 l 496 -167 l 496 -161 l 978 -161 l 921 -236 z m 842 506 l 842 544 l 1129 544 l 1129 506 z m 153 506 l 153 544 l 440 544 l 440 506 z m 842 589 l 842 622 l 1129 622 l 1129 589 z m 153 589 l 153 622 l 440 622 l 440 589 z m 842 671 l 842 701 l 1129 701 l 1129 671 z m 153 671 l 153 701 l 440 701 l 440 671 z m 149 753 l 132 779 l 440 779 l 440 753 z m 94 836 l 79 858 l 440 858 l 440 836 z m 842 753 l 842 779 l 1129 779 l 1129 753 z m 842 836 l 842 858 l 1129 858 l 1129 836 z m 35 926 l 440 926 l 440 918 l 40 918 z m 688 1083 l 688 1093 l 964 1093 l 964 1083 z m 319 1083 l 319 1093 l 596 1093 l 596 1083 z m 964 1006 l 688 1006 l 688 1015 l 964 1015 z m 596 1006 l 319 1006 l 319 1015 l 596 1015 z m 842 918 l 842 926 l 1129 926 l 1129 918 z m 319 1165 l 319 1172 l 596 1172 l 596 1165 z m 688 1165 l 688 1172 l 964 1172 l 964 1165 z "},"Ž":{"ha":1043,"x_min":0,"x_max":0,"o":"m 56 11 l 56 74 l 988 74 l 988 11 z m 56 94 l 56 153 l 988 153 l 988 94 z m 56 176 l 56 231 l 988 231 l 988 176 z m 56 676 l 56 701 l 949 701 b 940 689 946 697 943 693 l 932 678 l 924 671 l 519 671 l 519 676 z m 982 779 b 978 766 980 775 979 770 b 974 753 977 762 975 757 l 56 753 l 56 779 z m 56 836 l 56 858 l 988 858 l 988 836 z m 67 258 l 124 310 l 521 310 l 464 258 z m 158 342 l 210 388 l 608 388 l 557 342 z m 250 424 l 297 467 l 696 467 l 649 424 z m 340 506 l 383 544 l 783 544 l 739 506 z m 433 589 l 469 622 l 869 622 l 832 589 z m 56 918 l 56 926 l 988 926 l 988 918 z m 253 1083 l 250 1093 l 792 1093 l 789 1083 z m 283 1006 l 279 1015 l 763 1015 l 760 1006 z m 222 1165 l 219 1172 l 496 1172 l 499 1165 z m 544 1165 l 547 1172 l 822 1172 l 819 1165 z "},"ž":{"ha":1043,"x_min":0,"x_max":0,"o":"m 56 11 l 56 74 l 988 74 l 988 11 z m 56 94 l 56 153 l 988 153 l 988 94 z m 56 176 l 56 231 l 988 231 l 988 176 z m 56 676 l 56 701 l 949 701 b 940 689 946 697 943 693 l 932 678 l 924 671 l 519 671 l 519 676 z m 982 779 b 978 766 980 775 979 770 b 974 753 977 762 975 757 l 56 753 l 56 779 z m 56 836 l 56 858 l 988 858 l 988 836 z m 67 258 l 124 310 l 521 310 l 464 258 z m 158 342 l 210 388 l 608 388 l 557 342 z m 250 424 l 297 467 l 696 467 l 649 424 z m 340 506 l 383 544 l 783 544 l 739 506 z m 433 589 l 469 622 l 869 622 l 832 589 z m 56 918 l 56 926 l 988 926 l 988 918 z m 253 1083 l 250 1093 l 792 1093 l 789 1083 z m 283 1006 l 279 1015 l 763 1015 l 760 1006 z m 222 1165 l 219 1172 l 496 1172 l 499 1165 z m 544 1165 l 547 1172 l 822 1172 l 819 1165 z "},"ƒ":{"ha":1088,"x_min":0,"x_max":0,"o":"m 169 11 b 119 35 151 17 134 25 b 82 74 105 46 92 59 l 1032 74 l 1032 11 z m 69 94 b 56 153 60 113 56 132 l 1032 153 l 1032 94 z m 56 176 l 56 231 l 1032 231 l 1032 176 z m 1028 467 b 1022 444 1026 459 1024 452 b 1011 424 1019 437 1016 430 l 56 424 l 56 467 z m 982 388 b 872 342 951 361 915 345 l 56 342 l 56 388 z m 56 506 l 56 544 l 1032 544 l 1032 506 z m 343 676 l 343 671 l 56 671 l 56 701 l 1032 701 l 1032 671 l 744 671 l 744 676 z m 1032 765 l 1032 753 l 56 753 l 56 765 l 56 779 l 1031 779 b 1032 765 1031 775 1032 771 z m 1001 858 b 1009 847 1004 855 1007 851 b 1015 836 1011 844 1013 840 l 72 836 b 78 847 74 840 76 844 b 86 858 81 851 83 855 z m 343 590 l 744 590 l 744 622 l 1032 622 l 1032 589 l 56 589 l 56 622 l 343 622 z m 56 258 l 56 310 l 343 310 l 343 258 z m 846 926 b 908 918 868 926 889 924 l 178 918 b 242 926 197 924 219 926 z "},"ˆ":{"ha":726,"x_min":0,"x_max":0,"o":"m 94 1165 l 97 1172 l 628 1172 l 631 1165 z m 386 1083 l 382 1093 l 658 1093 l 661 1083 z m 688 1015 l 692 1006 l 417 1006 l 413 1015 z m 64 1083 l 67 1093 l 342 1093 l 339 1083 z m 310 1006 l 35 1006 l 38 1015 l 313 1015 z "},"˜":{"ha":754,"x_min":0,"x_max":0,"o":"m 300 1083 l 296 1093 l 751 1093 l 749 1083 z m 331 1006 l 326 1015 l 722 1015 l 719 1006 z m 96 1165 l 99 1172 l 543 1172 l 546 1165 z m 224 1006 l 36 1006 l 39 1015 l 226 1015 z m 65 1083 l 68 1093 l 256 1093 l 253 1083 z m 592 1165 l 594 1172 l 782 1172 l 779 1165 z "},"–":{"ha":569,"x_min":0,"x_max":0,"o":"m 56 342 l 56 388 l 514 388 l 514 342 z m 56 424 l 56 467 l 514 467 l 514 424 z m 56 506 l 56 544 l 514 544 l 514 506 z "},"—":{"ha":649,"x_min":0,"x_max":0,"o":"m 56 342 l 56 388 l 593 388 l 593 342 z m 56 424 l 56 467 l 593 467 l 593 424 z m 56 506 l 56 544 l 593 544 l 593 506 z "},"‘":{"ha":399,"x_min":0,"x_max":0,"o":"m 56 506 l 56 544 l 343 544 l 343 506 z m 56 589 l 56 622 l 343 622 l 343 589 z m 56 671 l 56 701 l 343 701 l 343 671 z m 58 753 l 85 779 l 219 779 l 214 753 z m 144 836 l 167 858 l 236 858 l 232 836 z m 229 918 l 238 926 l 251 926 l 249 918 z "},"’":{"ha":399,"x_min":0,"x_max":0,"o":"m 343 678 l 336 671 l 183 671 l 185 676 l 56 676 l 56 701 l 343 701 z m 56 753 l 56 779 l 343 779 l 343 753 z m 56 836 l 56 858 l 343 858 l 343 836 z m 165 589 l 172 622 l 285 622 l 251 589 z m 56 926 l 343 926 l 343 918 l 56 918 z m 147 506 l 156 544 l 206 544 l 165 506 z "},"‚":{"ha":399,"x_min":0,"x_max":0,"o":"m 56 11 l 56 74 l 343 74 l 343 11 z m 56 94 l 56 153 l 343 153 l 343 94 z m 56 176 l 56 231 l 343 231 l 343 176 z m 169 -71 l 183 -4 l 338 -4 l 268 -71 z m 151 -153 l 167 -83 l 256 -83 l 183 -153 z m 161 -175 l 147 -175 l 150 -161 l 175 -161 z "},"“":{"ha":751,"x_min":0,"x_max":0,"o":"m 408 506 l 408 544 l 696 544 l 696 506 z m 56 506 l 56 544 l 343 544 l 343 506 z m 408 589 l 408 622 l 696 622 l 696 589 z m 56 589 l 56 622 l 343 622 l 343 589 z m 408 671 l 408 701 l 696 701 l 696 671 z m 56 671 l 56 701 l 343 701 l 343 671 z m 58 753 l 85 779 l 219 779 l 214 753 z m 411 753 l 438 779 l 572 779 l 567 753 z m 497 836 l 519 858 l 589 858 l 585 836 z m 144 836 l 167 858 l 236 858 l 232 836 z m 582 918 l 590 926 l 604 926 l 601 918 z m 229 918 l 238 926 l 251 926 l 249 918 z "},"”":{"ha":751,"x_min":0,"x_max":0,"o":"m 696 678 l 689 671 l 536 671 l 538 676 l 408 676 l 408 701 l 696 701 z m 343 678 l 336 671 l 183 671 l 185 676 l 56 676 l 56 701 l 343 701 z m 408 753 l 408 779 l 696 779 l 696 753 z m 56 753 l 56 779 l 343 779 l 343 753 z m 408 836 l 408 858 l 696 858 l 696 836 z m 56 836 l 56 858 l 343 858 l 343 836 z m 165 589 l 172 622 l 285 622 l 251 589 z m 518 589 l 525 622 l 638 622 l 604 589 z m 408 926 l 696 926 l 696 918 l 408 918 z m 56 926 l 343 926 l 343 918 l 56 918 z m 147 506 l 156 544 l 206 544 l 165 506 z m 500 506 l 508 544 l 558 544 l 518 506 z "},"„":{"ha":751,"x_min":0,"x_max":0,"o":"m 408 11 l 408 74 l 696 74 l 696 11 z m 56 11 l 56 74 l 343 74 l 343 11 z m 408 94 l 408 153 l 696 153 l 696 94 z m 56 94 l 56 153 l 343 153 l 343 94 z m 408 176 l 408 231 l 696 231 l 696 176 z m 56 176 l 56 231 l 343 231 l 343 176 z m 169 -71 l 183 -4 l 338 -4 l 268 -71 z m 522 -71 l 536 -4 l 690 -4 l 621 -71 z m 151 -153 l 167 -83 l 256 -83 l 183 -153 z m 504 -153 l 519 -83 l 608 -83 l 536 -153 z m 161 -175 l 147 -175 l 150 -161 l 175 -161 z m 514 -175 l 500 -175 l 503 -161 l 528 -161 z "},"†":{"ha":1082,"x_min":0,"x_max":0,"o":"m 153 258 l 153 310 l 942 310 l 942 258 z m 153 342 l 153 388 l 942 388 l 942 342 z m 153 424 l 153 467 l 942 467 l 942 424 z m 1022 779 b 1020 766 1021 775 1021 770 b 1018 753 1020 762 1019 757 l 149 753 l 132 779 z m 440 676 l 440 671 l 153 671 l 153 701 l 996 701 b 951 676 984 685 969 676 z m 94 836 l 79 858 l 1026 858 l 1026 836 z m 153 11 l 153 74 l 440 74 l 440 11 z m 153 94 l 153 153 l 440 153 l 440 94 z m 153 176 l 153 231 l 440 231 l 440 176 z m 153 506 l 153 544 l 440 544 l 440 506 z m 153 589 l 153 622 l 440 622 l 440 589 z m 1026 926 l 1026 918 l 40 918 l 35 926 z "},"‡":{"ha":985,"x_min":0,"x_max":0,"o":"m 56 258 l 56 310 l 844 310 l 844 258 z m 56 342 l 56 388 l 844 388 l 844 342 z m 56 424 l 56 467 l 844 467 l 844 424 z m 925 779 b 923 766 924 775 923 770 b 921 753 922 762 922 757 l 56 753 l 56 779 z m 899 701 b 854 676 887 685 872 676 l 343 676 l 343 671 l 56 671 l 56 701 z m 56 836 l 56 858 l 929 858 l 929 836 z m 56 11 l 56 74 l 343 74 l 343 11 z m 56 94 l 56 153 l 343 153 l 343 94 z m 56 176 l 56 231 l 343 231 l 343 176 z m 56 506 l 56 544 l 343 544 l 343 506 z m 56 589 l 56 622 l 343 622 l 343 589 z m 56 918 l 56 926 l 929 926 l 929 918 z "},"•":{"ha":375,"x_min":0,"x_max":0,"o":"m 49 458 l 49 467 l 326 467 l 326 461 b 319 424 326 448 324 436 l 53 424 b 49 458 50 435 49 446 z m 57 506 b 82 544 63 521 72 534 l 293 544 b 318 506 304 531 313 519 z m 300 388 b 233 342 282 365 260 350 l 140 342 b 72 388 112 350 89 365 z m 167 589 b 177 590 170 589 174 589 b 188 590 180 590 184 590 l 197 590 b 210 589 201 590 205 590 z "},"…":{"ha":1100,"x_min":0,"x_max":0,"o":"m 757 11 l 757 74 l 1044 74 l 1044 11 z m 56 11 l 56 74 l 343 74 l 343 11 z m 407 11 l 407 74 l 694 74 l 694 11 z m 757 94 l 757 153 l 1044 153 l 1044 94 z m 56 94 l 56 153 l 343 153 l 343 94 z m 407 94 l 407 153 l 694 153 l 694 94 z m 757 176 l 757 231 l 1044 231 l 1044 176 z m 407 176 l 407 231 l 694 231 l 694 176 z m 56 176 l 56 231 l 343 231 l 343 176 z "},"‰":{"ha":1550,"x_min":0,"x_max":0,"o":"m 1078 296 b 1074 275 1078 288 1077 281 b 1065 258 1072 269 1069 263 l 722 258 b 711 296 715 269 711 281 l 711 310 l 1078 310 z m 1494 296 b 1491 275 1494 288 1493 281 b 1482 258 1489 269 1486 263 l 1139 258 b 1128 296 1131 269 1128 281 l 1128 310 l 1494 310 z m 711 506 l 711 515 b 718 544 711 527 713 537 l 1069 544 b 1078 515 1075 536 1078 526 l 1078 506 z m 1128 506 l 1128 515 b 1135 544 1128 527 1130 537 l 1486 544 b 1494 515 1492 536 1494 526 l 1494 506 z m 418 622 b 389 589 413 606 403 595 l 88 589 b 58 622 74 595 64 606 z m 315 258 l 339 310 l 556 310 l 532 258 z m 353 342 l 372 388 l 589 388 l 569 342 z m 389 424 l 407 467 l 624 467 l 606 424 z m 174 685 l 301 685 l 301 701 l 422 701 l 422 671 l 56 671 l 56 701 l 174 701 z m 425 506 l 442 544 l 658 544 l 642 506 z m 56 836 l 56 858 l 422 858 l 422 836 z m 461 589 l 476 622 l 693 622 l 678 589 z m 497 671 l 511 701 l 728 701 l 714 671 z m 533 753 l 544 779 l 761 779 l 750 753 z m 1375 342 l 1375 388 l 1494 388 l 1494 342 z m 958 342 l 958 388 l 1078 388 l 1078 342 z m 1128 342 l 1128 388 l 1246 388 l 1246 342 z m 711 342 l 711 388 l 829 388 l 829 342 z m 958 424 l 958 467 l 1078 467 l 1078 424 z m 1375 424 l 1375 467 l 1494 467 l 1494 424 z m 711 424 l 711 467 l 829 467 l 829 424 z m 1128 424 l 1128 467 l 1246 467 l 1246 424 z m 569 836 l 579 858 l 796 858 l 786 836 z m 301 753 l 301 779 l 422 779 l 422 753 z m 56 753 l 56 779 l 174 779 l 174 753 z m 89 918 b 128 926 100 924 113 926 l 347 926 b 386 918 362 926 375 924 z m 606 918 l 610 926 l 826 926 l 822 918 z "},"‹":{"ha":350,"x_min":0,"x_max":0,"o":"m 56 258 l 56 310 l 294 310 l 294 258 z m 56 342 l 56 388 l 294 388 l 294 342 z m 56 225 l 56 231 l 294 231 l 294 176 l 183 176 z m 294 517 l 265 506 l 56 506 l 56 544 l 294 544 z m 56 589 l 56 622 l 294 622 l 294 589 z m 56 701 l 294 701 l 294 671 l 56 671 z m 56 424 l 56 467 l 165 467 l 156 463 l 257 424 z m 192 753 l 261 779 l 294 779 l 294 753 z m 294 135 l 246 153 l 294 153 z "},"›":{"ha":350,"x_min":0,"x_max":0,"o":"m 56 258 l 56 310 l 294 310 l 294 258 z m 56 342 l 56 388 l 294 388 l 294 342 z m 294 225 l 165 176 l 56 176 l 56 231 l 294 231 z m 56 517 l 56 544 l 294 544 l 294 506 l 83 506 z m 56 589 l 56 622 l 294 622 l 294 589 z m 294 701 l 294 671 l 56 671 l 56 701 z m 194 463 l 183 467 l 294 467 l 294 424 l 92 424 z m 56 753 l 56 779 l 89 779 l 158 753 z m 56 135 l 56 153 l 103 153 z "},"€":{"ha":1054,"x_min":0,"x_max":0,"o":"m 56 176 l 56 231 l 999 231 l 999 176 z m 217 94 b 203 153 207 113 203 132 l 999 153 l 999 94 z m 317 11 b 267 35 298 17 281 25 b 229 74 252 46 239 59 l 999 74 l 999 11 z m 56 258 l 56 310 l 646 310 l 646 258 z m 56 342 l 56 388 l 646 388 l 646 342 z m 646 676 l 646 671 l 56 671 l 56 701 l 968 701 b 924 676 956 685 941 676 z m 56 765 l 203 765 l 203 779 l 994 779 b 992 766 994 775 993 770 b 990 753 992 762 991 757 l 56 753 z m 203 507 l 56 507 l 56 544 l 646 544 l 646 507 l 490 507 l 490 506 l 203 506 z m 56 589 l 56 622 l 646 622 l 646 589 z m 219 836 b 226 847 221 840 223 844 b 233 858 228 851 231 855 l 999 858 l 999 836 z m 203 424 l 203 467 l 490 467 l 490 424 z m 999 926 l 999 918 l 325 918 b 389 926 344 924 366 926 z "},"™":{"ha":472,"x_min":0,"x_max":0,"o":"m 35 1001 l 35 1015 l 200 1015 l 200 1001 z m 304 836 l 297 858 l 354 858 l 347 836 z m 96 836 l 96 858 l 139 858 l 139 836 z m 328 918 l 331 926 b 333 936 331 929 332 932 l 381 936 l 374 918 z m 96 918 l 96 936 l 139 936 l 139 918 z m 382 836 l 382 858 l 417 858 l 417 836 z m 233 836 l 233 858 l 268 858 l 268 836 z m 311 936 b 315 918 312 931 313 925 l 276 918 l 269 936 z m 365 1001 b 378 1015 371 1009 375 1013 l 417 1015 l 417 1001 z m 382 918 l 382 936 l 417 936 l 417 918 z m 233 918 l 233 936 l 268 936 l 268 918 z m 269 1015 l 283 1001 l 233 1001 l 233 1015 z "}}}
